<svg width="850" height="350" viewBox="0 0 850 350" fill="none" xmlns="http://www.w3.org/2000/svg">
<g clip-path="url(#clip0)">
<rect width="850" height="350" fill="#EDF6F5"/>
<path d="M729.715 282.948H91.8783C87.5243 282.945 83.35 281.812 80.2712 279.798C77.1924 277.783 75.4605 275.053 75.4556 272.204V14.907C75.4592 12.8203 76.7279 10.8196 78.9834 9.34399C81.2389 7.86838 84.297 7.03832 87.4869 7.03592H733.898C737.144 7.03833 740.255 7.88272 742.549 9.38384C744.844 10.885 746.134 12.9202 746.138 15.0431V272.204C746.133 275.053 744.401 277.783 741.322 279.798C738.244 281.812 734.069 282.945 729.715 282.948V282.948Z" fill="#F2F2F2"/>
<path d="M706.447 269.686H112C103.286 269.686 96.1969 265.343 96.1969 260.005V35.9476C96.1969 31.9887 101.45 28.7677 107.907 28.7677H710.346C716.91 28.7677 722.251 32.0418 722.251 36.0659V260.005C722.251 265.343 715.161 269.686 706.447 269.686Z" fill="white"/>
<path d="M745.909 16.2459H75.2252V10.7761C75.2315 7.91818 76.9704 5.17863 80.0604 3.15842C83.1504 1.13821 87.3391 0.00232885 91.7076 -3.05176e-05H729.427C733.795 0.00231509 737.984 1.13819 741.074 3.1584C744.164 5.17861 745.903 7.91818 745.909 10.7761V16.2459Z" fill="#0AA8A7"/>
<path d="M105.18 10.9282C107.534 10.9282 109.443 9.6795 109.443 8.13914C109.443 6.59878 107.534 5.35007 105.18 5.35007C102.825 5.35007 100.916 6.59878 100.916 8.13914C100.916 9.6795 102.825 10.9282 105.18 10.9282Z" fill="white"/>
<path d="M121.362 10.9282C123.717 10.9282 125.626 9.6795 125.626 8.13914C125.626 6.59878 123.717 5.35007 121.362 5.35007C119.008 5.35007 117.099 6.59878 117.099 8.13914C117.099 9.6795 119.008 10.9282 121.362 10.9282Z" fill="white"/>
<path d="M137.545 10.9282C139.899 10.9282 141.808 9.6795 141.808 8.13914C141.808 6.59878 139.899 5.35007 137.545 5.35007C135.19 5.35007 133.281 6.59878 133.281 8.13914C133.281 9.6795 135.19 10.9282 137.545 10.9282Z" fill="white"/>
<path d="M391.639 240.777H184.774C180.156 240.774 175.729 239.572 172.464 237.436C169.198 235.3 167.361 232.403 167.356 229.382V65.8481C167.36 63.5887 168.734 61.4225 171.176 59.8248C173.618 58.2272 176.929 57.3284 180.383 57.3258H395.822C399.331 57.3284 402.695 58.2415 405.176 59.8647C407.658 61.4879 409.053 63.6886 409.057 65.9841V229.382C409.052 232.403 407.215 235.3 403.95 237.436C400.685 239.572 396.257 240.774 391.639 240.777V240.777ZM180.383 58.6281C177.457 58.6303 174.652 59.3917 172.583 60.7452C170.514 62.0987 169.35 63.9339 169.347 65.8481V229.382C169.351 232.058 170.978 234.623 173.87 236.515C176.763 238.408 180.684 239.472 184.774 239.475H391.639C395.729 239.472 399.651 238.408 402.543 236.515C405.435 234.623 407.062 232.058 407.067 229.382V65.9841C407.063 64.0339 405.878 62.1641 403.77 60.7851C401.662 59.406 398.804 58.6303 395.822 58.6281H180.383Z" fill="#CCCCCC"/>
<path d="M200.699 229.382H375.714C379.938 229.382 383.988 228.285 386.975 226.331C389.961 224.377 391.639 221.727 391.639 218.964V79.2653C391.639 76.5022 389.961 73.8523 386.975 71.8986C383.988 69.9448 379.938 68.8472 375.714 68.8472H200.699C196.476 68.8472 192.425 69.9448 189.439 71.8986C186.452 73.8523 184.774 76.5022 184.774 79.2653V218.964C184.774 221.727 186.452 224.377 189.439 226.331C192.425 228.285 196.476 229.382 200.699 229.382Z" fill="#E6E6E6"/>
<path d="M336.48 97.3498H239.934C238.218 97.3498 236.573 96.9039 235.359 96.1102C234.146 95.3164 233.464 94.2399 233.464 93.1174C233.464 91.9949 234.146 90.9184 235.359 90.1247C236.573 89.331 238.218 88.8851 239.934 88.8851H336.48C338.195 88.8851 339.841 89.331 341.054 90.1247C342.267 90.9184 342.949 91.9949 342.949 93.1174C342.949 94.2399 342.267 95.3164 341.054 96.1102C339.841 96.9039 338.195 97.3498 336.48 97.3498V97.3498Z" fill="white"/>
<path d="M336.48 189.159H239.934C238.218 189.159 236.573 188.713 235.359 187.92C234.146 187.126 233.464 186.049 233.464 184.927C233.464 183.805 234.146 182.728 235.359 181.934C236.573 181.141 238.218 180.695 239.934 180.695H336.48C338.195 180.695 339.841 181.141 341.054 181.934C342.267 182.728 342.949 183.805 342.949 184.927C342.949 186.049 342.267 187.126 341.054 187.92C339.841 188.713 338.195 189.159 336.48 189.159V189.159Z" fill="white"/>
<path d="M336.48 209.344H239.934C238.218 209.344 236.573 208.899 235.359 208.105C234.146 207.311 233.464 206.235 233.464 205.112C233.464 203.99 234.146 202.913 235.359 202.119C236.573 201.326 238.218 200.88 239.934 200.88H336.48C338.195 200.88 339.841 201.326 341.054 202.119C342.267 202.913 342.949 203.99 342.949 205.112C342.949 206.235 342.267 207.311 341.054 208.105C339.841 208.899 338.195 209.344 336.48 209.344V209.344Z" fill="white"/>
<path d="M288.704 159.533C310.143 159.533 327.522 148.164 327.522 134.139C327.522 120.114 310.143 108.745 288.704 108.745C267.266 108.745 249.887 120.114 249.887 134.139C249.887 148.164 267.266 159.533 288.704 159.533Z" fill="#0AA8A7"/>
<path d="M538.413 110.869L521.456 113.209C521.307 113.229 521.167 113.272 521.047 113.334C520.927 113.396 520.83 113.475 520.764 113.565C520.698 113.655 520.665 113.754 520.667 113.853C520.668 113.953 520.705 114.052 520.774 114.141L522.354 116.177L445.671 141.641C445.554 141.68 445.45 141.733 445.365 141.798C445.28 141.863 445.216 141.938 445.175 142.019C445.134 142.101 445.119 142.186 445.129 142.272C445.139 142.357 445.175 142.44 445.234 142.516C445.293 142.593 445.374 142.66 445.474 142.716C445.573 142.772 445.688 142.814 445.812 142.84C445.936 142.867 446.067 142.877 446.198 142.871C446.328 142.864 446.455 142.841 446.572 142.802L523.255 117.338L524.835 119.375C524.904 119.464 525.004 119.541 525.126 119.601C525.248 119.661 525.39 119.702 525.54 119.72C525.69 119.738 525.844 119.734 525.991 119.707C526.138 119.68 526.274 119.631 526.387 119.565L539.284 111.991C539.447 111.895 539.557 111.767 539.597 111.626C539.638 111.485 539.606 111.339 539.506 111.212C539.407 111.084 539.246 110.981 539.049 110.919C538.851 110.857 538.628 110.84 538.413 110.869Z" fill="#E6E6E6"/>
<path d="M538.413 174.163L521.457 171.824C521.307 171.803 521.167 171.76 521.047 171.699C520.927 171.637 520.83 171.558 520.764 171.468C520.698 171.378 520.665 171.279 520.667 171.179C520.668 171.079 520.705 170.981 520.774 170.892L522.354 168.856L445.671 143.392C445.554 143.353 445.45 143.3 445.365 143.235C445.28 143.17 445.216 143.094 445.175 143.013C445.134 142.932 445.119 142.846 445.129 142.761C445.139 142.676 445.175 142.593 445.234 142.516C445.293 142.44 445.374 142.372 445.474 142.317C445.573 142.261 445.688 142.219 445.812 142.192C445.936 142.166 446.067 142.155 446.198 142.162C446.328 142.168 446.455 142.192 446.572 142.23L523.255 167.694L524.835 165.658C524.904 165.569 525.004 165.491 525.126 165.431C525.248 165.372 525.39 165.331 525.54 165.313C525.69 165.294 525.844 165.299 525.991 165.326C526.138 165.353 526.274 165.401 526.387 165.468L539.284 173.042C539.447 173.137 539.557 173.266 539.597 173.407C539.637 173.548 539.605 173.693 539.506 173.821C539.407 173.949 539.246 174.052 539.049 174.114C538.851 174.175 538.628 174.193 538.413 174.163V174.163Z" fill="#E6E6E6"/>
<path d="M594.306 125.359C589.975 125.359 585.741 124.519 582.14 122.945C578.539 121.371 575.733 119.134 574.076 116.517C572.418 113.899 571.985 111.019 572.829 108.24C573.674 105.461 575.76 102.909 578.822 100.905C581.885 98.902 585.786 97.5377 590.034 96.985C594.281 96.4322 598.684 96.7159 602.685 97.8001C606.686 98.8843 610.106 100.72 612.512 103.076C614.918 105.432 616.203 108.201 616.203 111.035C616.196 114.832 613.887 118.474 609.782 121.159C605.677 123.845 600.111 125.355 594.306 125.359V125.359ZM594.306 98.012C590.369 98.012 586.52 98.7758 583.246 100.207C579.973 101.638 577.421 103.671 575.915 106.051C574.408 108.431 574.014 111.049 574.782 113.575C575.55 116.101 577.446 118.422 580.23 120.243C583.014 122.064 586.561 123.305 590.422 123.807C594.284 124.31 598.286 124.052 601.923 123.066C605.561 122.08 608.67 120.411 610.857 118.27C613.044 116.128 614.212 113.61 614.212 111.035C614.206 107.582 612.107 104.272 608.375 101.831C604.643 99.3892 599.583 98.0159 594.306 98.012V98.012Z" fill="#E6E6E6"/>
<path d="M594.306 188.519C589.975 188.519 585.741 187.679 582.14 186.105C578.539 184.531 575.733 182.294 574.076 179.676C572.418 177.059 571.985 174.179 572.829 171.4C573.674 168.621 575.76 166.069 578.822 164.065C581.885 162.062 585.786 160.697 590.034 160.145C594.281 159.592 598.684 159.876 602.685 160.96C606.686 162.044 610.106 163.88 612.512 166.236C614.918 168.592 616.203 171.361 616.203 174.194C616.196 177.992 613.887 181.633 609.782 184.319C605.677 187.004 600.111 188.515 594.306 188.519V188.519ZM594.306 161.172C590.369 161.172 586.52 161.936 583.246 163.366C579.973 164.797 577.421 166.831 575.915 169.211C574.408 171.59 574.014 174.209 574.782 176.735C575.55 179.261 577.446 181.582 580.23 183.403C583.014 185.224 586.561 186.464 590.422 186.967C594.284 187.469 598.286 187.211 601.923 186.226C605.561 185.24 608.67 183.571 610.857 181.429C613.044 179.288 614.212 176.77 614.212 174.194C614.206 170.742 612.107 167.432 608.375 164.99C604.643 162.549 599.583 161.176 594.306 161.172V161.172Z" fill="#E6E6E6"/>
<path d="M592.57 118.093C591.937 118.094 591.322 117.96 590.815 117.712L590.784 117.697L584.175 114.389C583.869 114.236 583.612 114.044 583.419 113.826C583.226 113.607 583.101 113.366 583.05 113.116C583 112.866 583.025 112.612 583.125 112.368C583.224 112.124 583.396 111.896 583.631 111.695C583.866 111.495 584.158 111.327 584.492 111.201C584.826 111.075 585.195 110.993 585.577 110.96C585.96 110.926 586.348 110.943 586.721 111.008C587.093 111.073 587.443 111.186 587.749 111.339L592.03 113.487L602.145 104.854C602.38 104.653 602.672 104.485 603.006 104.359C603.34 104.233 603.708 104.151 604.091 104.118C604.473 104.085 604.861 104.102 605.234 104.167C605.606 104.232 605.955 104.344 606.261 104.498L606.262 104.498L606.199 104.555L606.264 104.498C606.881 104.809 607.285 105.267 607.387 105.771C607.489 106.276 607.28 106.787 606.807 107.192L594.909 117.342C594.633 117.576 594.279 117.765 593.874 117.895C593.469 118.025 593.024 118.092 592.573 118.091L592.57 118.093Z" fill="#E6E6E6"/>
<path d="M584.804 180.41C584.666 180.319 584.556 180.212 584.481 180.093C584.406 179.975 584.367 179.848 584.367 179.719C584.367 179.591 584.406 179.464 584.481 179.346C584.556 179.227 584.666 179.119 584.804 179.029L601.695 167.979C601.976 167.796 602.355 167.693 602.751 167.693C603.147 167.693 603.526 167.796 603.806 167.979C604.086 168.162 604.243 168.411 604.244 168.669C604.244 168.928 604.087 169.177 603.807 169.36L586.916 180.41C586.777 180.501 586.613 180.573 586.431 180.622C586.25 180.671 586.056 180.696 585.86 180.696C585.664 180.696 585.47 180.671 585.289 180.622C585.108 180.573 584.943 180.501 584.804 180.41Z" fill="#E6E6E6"/>
<path d="M602.812 180.41C602.95 180.319 603.06 180.212 603.135 180.093C603.21 179.975 603.249 179.848 603.249 179.719C603.249 179.591 603.21 179.464 603.135 179.346C603.06 179.227 602.95 179.119 602.812 179.029L585.921 167.979C585.64 167.796 585.261 167.693 584.865 167.693C584.469 167.693 584.09 167.796 583.81 167.979C583.53 168.162 583.373 168.411 583.372 168.669C583.372 168.928 583.529 169.177 583.809 169.36L600.7 180.41C600.839 180.501 601.003 180.573 601.185 180.622C601.366 180.671 601.56 180.696 601.756 180.696C601.952 180.696 602.146 180.671 602.327 180.622C602.508 180.573 602.673 180.501 602.812 180.41V180.41Z" fill="#E6E6E6"/>
<path d="M632.115 143.04C632.051 143.04 631.986 143.037 631.922 143.031C631.75 143.015 631.584 142.976 631.435 142.918C631.286 142.86 631.156 142.783 631.052 142.691L622.916 135.554C622.881 135.524 622.835 135.5 622.782 135.485C622.729 135.47 622.671 135.464 622.614 135.469C622.557 135.473 622.502 135.487 622.456 135.51C622.41 135.533 622.374 135.563 622.351 135.597L618.179 141.983C618.071 142.149 617.885 142.289 617.649 142.382C617.413 142.476 617.138 142.519 616.862 142.506C616.587 142.492 616.325 142.422 616.113 142.306C615.901 142.19 615.75 142.034 615.681 141.859L607.356 120.779C607.29 120.612 607.302 120.437 607.389 120.275C607.476 120.112 607.636 119.971 607.846 119.868C608.057 119.765 608.31 119.706 608.572 119.698C608.835 119.689 609.095 119.732 609.32 119.821L637.826 131.056C638.063 131.149 638.249 131.289 638.359 131.454C638.468 131.62 638.495 131.805 638.437 131.981C638.378 132.158 638.236 132.318 638.032 132.439C637.827 132.56 637.569 132.637 637.295 132.657L626.753 133.451C626.696 133.455 626.641 133.469 626.595 133.492C626.549 133.514 626.512 133.544 626.489 133.579C626.467 133.613 626.458 133.651 626.465 133.689C626.471 133.726 626.493 133.762 626.528 133.792L634.664 140.929C634.873 141.114 634.962 141.345 634.912 141.572C634.861 141.799 634.675 142.004 634.394 142.141L632.904 142.868C632.676 142.979 632.4 143.04 632.115 143.04V143.04Z" fill="#0AA8A7"/>
<path d="M678.41 158.567H642.578C639.939 158.567 637.407 157.881 635.541 156.66C633.674 155.439 632.625 153.783 632.625 152.056C632.625 150.329 633.674 148.673 635.541 147.452C637.407 146.231 639.939 145.545 642.578 145.545H678.41C681.05 145.545 683.581 146.231 685.448 147.452C687.314 148.673 688.363 150.329 688.363 152.056C688.363 153.783 687.314 155.439 685.448 156.66C683.581 157.881 681.05 158.567 678.41 158.567V158.567Z" fill="#0AA8A7"/>
<path d="M244.174 113.567L242.683 112.84C242.402 112.703 242.216 112.498 242.166 112.271C242.115 112.044 242.204 111.813 242.413 111.628L250.55 104.491C250.584 104.461 250.606 104.425 250.613 104.388C250.619 104.35 250.611 104.312 250.588 104.278C250.565 104.243 250.529 104.213 250.482 104.191C250.436 104.168 250.382 104.154 250.324 104.15L239.783 103.356C239.508 103.336 239.25 103.26 239.046 103.138C238.841 103.017 238.699 102.857 238.641 102.68C238.582 102.504 238.609 102.319 238.719 102.154C238.828 101.988 239.014 101.848 239.251 101.755L267.757 90.5198C267.982 90.4311 268.243 90.3882 268.505 90.3966C268.768 90.4051 269.02 90.4645 269.231 90.5672C269.442 90.67 269.601 90.8115 269.688 90.9736C269.775 91.1358 269.787 91.3113 269.721 91.4778L261.396 112.558C261.327 112.733 261.176 112.89 260.964 113.006C260.752 113.121 260.49 113.191 260.215 113.205C259.939 113.218 259.664 113.175 259.428 113.082C259.192 112.988 259.007 112.848 258.898 112.682L254.726 106.296C254.703 106.262 254.667 106.232 254.621 106.209C254.575 106.187 254.52 106.172 254.463 106.168C254.406 106.163 254.348 106.169 254.295 106.184C254.242 106.199 254.196 106.223 254.162 106.253L246.025 113.391C245.922 113.482 245.791 113.559 245.642 113.617C245.493 113.675 245.327 113.714 245.155 113.73C245.091 113.736 245.027 113.739 244.962 113.739C244.678 113.739 244.401 113.679 244.174 113.567V113.567Z" fill="#3F3D56"/>
<path d="M188.714 122.755C188.717 121.029 189.767 119.374 191.633 118.153C193.499 116.932 196.029 116.246 198.667 116.244H234.499C237.139 116.244 239.67 116.93 241.537 118.151C243.403 119.372 244.452 121.028 244.452 122.755C244.452 124.482 243.403 126.138 241.537 127.359C239.67 128.58 237.139 129.266 234.499 129.266H198.667C196.029 129.264 193.499 128.578 191.633 127.357C189.767 126.136 188.717 124.481 188.714 122.755V122.755Z" fill="#3F3D56"/>
<path d="M719.963 240.786C721.042 240.139 721.89 239.345 722.449 238.461C723.008 237.576 723.263 236.622 723.198 235.666C723.132 234.71 722.747 233.774 722.069 232.926C721.391 232.078 720.437 231.337 719.274 230.756L730.401 208.656L712.563 211.82L704.731 232.322C703.368 233.665 702.806 235.288 703.151 236.883C703.495 238.479 704.723 239.937 706.6 240.98C708.478 242.023 710.875 242.58 713.338 242.544C715.801 242.508 718.158 241.883 719.963 240.786V240.786Z" fill="#A0616A"/>
<path d="M826.962 239.484C825.883 238.837 825.035 238.043 824.476 237.159C823.917 236.274 823.662 235.32 823.727 234.364C823.793 233.407 824.178 232.472 824.856 231.624C825.534 230.776 826.488 230.035 827.651 229.454L816.524 207.354L834.362 210.518L842.194 231.02C843.557 232.362 844.119 233.985 843.774 235.581C843.43 237.177 842.202 238.635 840.325 239.678C838.447 240.721 836.05 241.278 833.587 241.242C831.124 241.206 828.767 240.581 826.962 239.484V239.484Z" fill="#A0616A"/>
<path d="M774.677 129.086C788.178 129.086 799.123 121.926 799.123 113.094C799.123 104.262 788.178 97.1015 774.677 97.1015C761.176 97.1015 750.231 104.262 750.231 113.094C750.231 121.926 761.176 129.086 774.677 129.086Z" fill="#A0616A"/>
<path d="M751.601 342.078H739.399L733.594 311.287H751.604L751.601 342.078Z" fill="#A0616A"/>
<path d="M754.713 349.816L715.368 349.815V349.49C715.368 348.174 715.764 346.871 716.534 345.656C717.303 344.44 718.431 343.336 719.853 342.405C721.275 341.475 722.964 340.737 724.822 340.234C726.68 339.73 728.671 339.471 730.682 339.471H730.683L754.714 339.472L754.713 349.816Z" fill="#2F2E41"/>
<path d="M793.404 342.078H781.203L775.397 311.287H793.407L793.404 342.078Z" fill="#A0616A"/>
<path d="M796.517 349.816L757.171 349.815V349.49C757.171 348.174 757.567 346.871 758.337 345.656C759.107 344.44 760.235 343.336 761.657 342.405C763.079 341.475 764.767 340.737 766.625 340.234C768.483 339.73 770.475 339.471 772.486 339.471H772.487L796.517 339.472L796.517 349.816Z" fill="#2F2E41"/>
<path d="M751.402 333.078L737.069 333.052C736.454 333.103 735.83 333.07 735.237 332.953C734.644 332.836 734.095 332.639 733.626 332.375C733.146 332.107 732.758 331.776 732.488 331.404C732.217 331.031 732.069 330.625 732.055 330.213L733.706 226.438L799.851 226.006L796.014 329.448C795.992 330.214 795.51 330.944 794.672 331.479C793.834 332.014 792.708 332.312 791.536 332.308H776.756C775.596 332.31 774.481 332.017 773.645 331.49C772.81 330.964 772.32 330.246 772.28 329.487L768.703 267.402C768.704 267.36 768.692 267.319 768.668 267.28C768.643 267.241 768.607 267.206 768.561 267.177C768.515 267.148 768.461 267.125 768.401 267.109C768.341 267.094 768.277 267.087 768.213 267.089C768.085 267.086 767.961 267.117 767.867 267.174C767.772 267.23 767.716 267.309 767.71 267.393L755.263 330.392C755.186 331.061 754.761 331.693 754.058 332.182C753.356 332.671 752.418 332.987 751.402 333.078Z" fill="#2F2E41"/>
<path d="M763.743 233.508C753.97 233.508 743.641 232.366 734.318 229.026C733.621 228.777 733.036 228.412 732.623 227.967C732.211 227.523 731.984 227.015 731.967 226.495L730.664 179.133L728.829 168.999C727.729 162.97 729.371 156.864 733.548 151.442C737.726 146.021 744.254 141.526 752.317 138.519L753.164 138.203L755.551 134.559C755.746 134.258 756.075 134.003 756.496 133.827C756.917 133.651 757.41 133.562 757.91 133.574L790.001 134.173C790.511 134.184 791.003 134.296 791.413 134.495C791.822 134.694 792.128 134.97 792.291 135.286L793.781 138.212C802.018 141.305 808.627 145.958 812.739 151.559C816.85 157.159 818.27 163.443 816.812 169.582L803.657 226.536C803.539 227.049 803.215 227.531 802.719 227.935C802.222 228.339 801.571 228.65 800.831 228.835C795.009 230.281 780.163 233.508 763.743 233.508Z" fill="#3F3D56"/>
<path d="M826.455 227.086C825.952 227.085 825.462 226.986 825.047 226.8C824.632 226.614 824.312 226.351 824.13 226.045L807.834 198.454L794.508 155.468C794.005 153.846 794.238 152.163 795.18 150.627C796.122 149.092 797.731 147.77 799.808 146.825V146.825C801.602 146.009 803.683 145.502 805.857 145.353C808.031 145.204 810.227 145.417 812.241 145.972C814.255 146.528 816.022 147.408 817.377 148.53C818.732 149.652 819.631 150.98 819.99 152.39L823.719 167.028L842.213 223.063C842.348 223.48 842.229 223.914 841.881 224.274C841.533 224.634 840.984 224.891 840.351 224.99L827.021 227.042C826.835 227.071 826.646 227.086 826.455 227.086V227.086Z" fill="#3F3D56"/>
<path d="M721.465 227.086C721.275 227.086 721.085 227.071 720.899 227.042L707.569 224.99C706.936 224.891 706.387 224.634 706.04 224.274C705.692 223.914 705.572 223.48 705.707 223.063L724.206 167.013L727.93 152.39C728.29 150.98 729.189 149.652 730.543 148.53C731.898 147.408 733.665 146.528 735.679 145.972C737.693 145.417 739.889 145.204 742.063 145.353C744.237 145.502 746.318 146.009 748.112 146.825V146.825C750.19 147.77 751.799 149.092 752.74 150.627C753.682 152.163 753.916 153.846 753.412 155.468L740.109 198.401L723.791 226.045C723.608 226.351 723.288 226.614 722.873 226.8C722.458 226.986 721.968 227.085 721.465 227.086V227.086Z" fill="#3F3D56"/>
<path d="M793.705 128.35C791.442 129.202 782.495 129.767 781.858 128.111L781.844 128.074C781.401 126.86 781.769 125.593 781.896 124.348C782.024 123.102 781.837 121.735 780.541 120.819C778.124 119.112 773.825 120.017 770.33 119.586C768.284 119.287 766.473 118.51 765.239 117.401C764.004 116.292 763.429 114.927 763.622 113.561C763.672 113.302 763.75 113.043 763.837 112.784C764.056 112.128 764.039 111.447 763.788 110.796C763.537 110.145 763.059 109.541 762.391 109.031C761.723 108.521 760.883 108.119 759.938 107.858C758.993 107.596 757.968 107.481 756.943 107.522C753.412 107.654 749.6 108.354 746.678 106.643C744.418 105.319 743.867 101.875 744.86 100C746.528 96.8498 757.215 95.2006 761.882 94.2939C767.653 93.2031 773.723 92.9672 779.651 93.6036C785.578 94.2399 791.215 95.7324 796.151 97.9725C799.098 99.3316 801.85 101.039 803.107 103.25C804.363 105.462 803.757 108.251 800.924 109.711C803.12 111.232 804.666 113.103 805.408 115.138C806.149 117.173 806.061 119.3 805.15 121.305C803.751 124.255 797.074 127.082 793.705 128.35Z" fill="#2F2E41"/>
<path d="M113.037 216.898C111.581 216.802 110.175 216.499 108.918 216.009C107.661 215.519 106.583 214.855 105.76 214.064C104.938 213.272 104.391 212.372 104.158 211.427C103.924 210.482 104.011 209.515 104.411 208.594L75.2736 195.25L92.458 190.798L117.493 204.153C119.813 204.695 121.748 205.774 122.932 207.188C124.117 208.601 124.468 210.249 123.918 211.82C123.369 213.391 121.958 214.776 119.953 215.712C117.947 216.648 115.486 217.07 113.037 216.898Z" fill="#FFB8B8"/>
<path d="M97.214 206.755L70.8272 196.743C68.176 195.762 65.8657 194.432 64.043 192.836C62.2203 191.24 60.9251 189.414 60.2398 187.472C59.6209 185.636 59.5839 183.736 60.1311 181.89C60.6782 180.043 61.7979 178.29 63.4211 176.738L85.2646 155.66C86.8097 154.169 89.1591 153.114 91.842 152.708C94.525 152.303 97.3434 152.575 99.7324 153.471C102.121 154.367 103.905 155.82 104.725 157.54C105.545 159.26 105.341 161.119 104.155 162.745L87.098 186.124L104.377 196.077C104.974 196.422 105.421 196.864 105.67 197.359C105.919 197.854 105.963 198.384 105.796 198.893L103.839 204.836C103.694 205.289 103.386 205.713 102.939 206.071C102.493 206.43 101.922 206.714 101.273 206.899C100.628 207.088 99.9231 207.174 99.2169 207.149C98.5107 207.124 97.824 206.989 97.2139 206.755L97.214 206.755Z" fill="#3F3D56"/>
<path d="M216.775 159.918C216.332 160.83 215.589 161.668 214.598 162.372C213.607 163.076 212.391 163.63 211.038 163.993C209.685 164.357 208.226 164.522 206.764 164.477C205.302 164.432 203.874 164.178 202.579 163.733L176.624 179.642L173.499 167.725L198.625 154.444C199.913 153.07 201.926 152.053 204.284 151.586C206.641 151.118 209.179 151.232 211.416 151.907C213.653 152.582 215.435 153.77 216.422 155.246C217.41 156.723 217.535 158.385 216.775 159.918V159.918Z" fill="#FFB8B8"/>
<path d="M110.472 139.033C123.973 139.033 134.918 131.873 134.918 123.04C134.918 114.208 123.973 107.048 110.472 107.048C96.9705 107.048 86.0257 114.208 86.0257 123.04C86.0257 131.873 96.9705 139.033 110.472 139.033Z" fill="#FFB8B8"/>
<path d="M182.449 341.819L194.145 339.542L186.288 308.947L169.027 312.307L182.449 341.819Z" fill="#FFB8B8"/>
<path d="M178.33 339.901L201.363 335.418L201.364 335.418C203.292 335.043 205.313 334.92 207.314 335.055C209.314 335.191 211.254 335.584 213.022 336.21C214.791 336.837 216.353 337.685 217.621 338.706C218.888 339.728 219.836 340.903 220.409 342.164L220.551 342.476L182.84 349.816L178.33 339.901Z" fill="#2F2E41"/>
<path d="M54.3144 341.427H66.516L72.3217 310.636H60.2843L54.3144 341.427Z" fill="#FFB8B8"/>
<path d="M51.2015 338.821L75.2322 338.82H75.2332C77.2443 338.82 79.2358 339.079 81.0938 339.583C82.9518 340.086 84.6401 340.824 86.0622 341.754C87.4843 342.685 88.6123 343.789 89.3819 345.004C90.1516 346.22 90.5477 347.523 90.5477 348.838V349.164L51.2023 349.165L51.2015 338.821Z" fill="#2F2E41"/>
<path d="M173.719 330.798L127.949 244.636C127.853 244.446 127.668 244.281 127.421 244.164C127.175 244.046 126.878 243.982 126.573 243.98C126.267 243.969 125.963 244.023 125.707 244.133C125.452 244.244 125.257 244.405 125.153 244.594L72.4117 330.848C72.0681 331.415 71.4611 331.898 70.676 332.228C69.891 332.558 68.9676 332.718 68.0359 332.686L54.2701 332.249C53.6072 332.228 52.9598 332.111 52.3746 331.906C51.7894 331.702 51.2811 331.414 50.8864 331.065C50.4918 330.716 50.2206 330.314 50.0926 329.888C49.9646 329.462 49.9829 329.023 50.1462 328.602L100.034 199.975L150.086 197.303L150.413 197.611C150.683 197.867 177.464 223.659 177.447 268.187L194.607 329.307C194.726 329.729 194.701 330.164 194.534 330.579C194.368 330.995 194.064 331.381 193.643 331.711C193.223 332.042 192.697 332.307 192.102 332.489C191.508 332.672 190.859 332.766 190.202 332.766H177.95C177.02 332.766 176.113 332.576 175.355 332.224C174.597 331.871 174.025 331.373 173.719 330.798Z" fill="#2F2E41"/>
<path d="M82.1941 170.8C80.4331 167.501 79.9984 163.962 80.9317 160.522C81.865 157.082 84.135 153.857 87.5235 151.156C90.8333 148.471 95.1427 146.387 100.038 145.106C104.933 143.824 110.25 143.387 115.478 143.837C115.893 143.873 116.305 143.91 116.714 143.947C123.369 144.535 129.554 146.515 134.348 149.591C139.141 152.667 142.285 156.675 143.311 161.016L152.658 199.908L99.3686 202.539L98.9862 202.558L82.1941 170.8Z" fill="#3F3D56"/>
<path d="M159.957 186.581C157.041 186.516 154.178 186.054 151.549 185.226C148.92 184.398 146.583 183.221 144.687 181.77L119.479 162.653C117.523 161.22 116.5 159.344 116.627 157.424C116.706 156.421 117.111 155.44 117.814 154.547C118.518 153.654 119.504 152.869 120.708 152.245C122.694 151.208 125.171 150.655 127.713 150.684C130.254 150.712 132.702 151.318 134.633 152.399L164.696 169.254L183.191 160.837C183.854 160.535 184.63 160.356 185.437 160.319C186.244 160.282 187.05 160.389 187.771 160.629L196.623 163.56C197.256 163.77 197.803 164.074 198.221 164.449C198.638 164.824 198.913 165.259 199.024 165.717C199.135 166.175 199.077 166.644 198.857 167.085C198.637 167.526 198.259 167.926 197.756 168.253L175.747 182.553C173.785 183.837 171.456 184.854 168.892 185.547C166.328 186.24 163.58 186.595 160.806 186.591C160.524 186.591 160.241 186.588 159.957 186.581Z" fill="#3F3D56"/>
<path d="M129.061 119.046C132.105 119.819 135.312 120.281 138.571 120.415C141.848 120.442 145.332 119.699 147.125 118.067C147.813 117.353 148.258 116.551 148.427 115.715C148.597 114.879 148.489 114.029 148.11 113.223C147.431 111.589 146.208 110.073 144.531 108.783C142.853 107.493 140.76 106.462 138.403 105.763C135.926 105.028 133.251 104.62 130.532 104.562C127.814 104.505 125.104 104.8 122.56 105.429C120.721 101.771 113.793 99.7804 107.381 99.6678C94.2829 99.4378 82.5714 105.28 76.8806 112.306C71.1898 119.332 70.3584 127.362 70.0045 135.159C69.9182 137.06 69.8821 139.043 71.2589 140.759C73.3091 143.316 77.9679 144.692 82.3592 145.784C93.8744 148.642 105.754 150.826 117.859 152.312C112.047 149.882 110.203 144.651 113.885 141.035C115.686 139.266 118.644 137.793 119.122 135.744C119.696 133.288 116.492 131.139 115.307 128.761C114.708 127.474 114.681 126.102 115.229 124.805C115.777 123.508 116.877 122.34 118.401 121.436C120.061 120.493 122.045 119.827 124.183 119.496C126.322 119.164 128.552 119.176 130.681 119.531" fill="#2F2E41"/>
<path d="M247.834 350H0.995316C0.731342 350 0.478179 349.931 0.291521 349.809C0.104863 349.687 0 349.522 0 349.349C0 349.176 0.104863 349.011 0.291521 348.888C0.478179 348.766 0.731342 348.698 0.995316 348.698H247.834C248.098 348.698 248.351 348.766 248.538 348.888C248.724 349.011 248.829 349.176 248.829 349.349C248.829 349.522 248.724 349.687 248.538 349.809C248.351 349.931 248.098 350 247.834 350Z" fill="#0AA8A7"/>
<path d="M849.005 350H673.829C673.565 350 673.312 349.931 673.125 349.809C672.939 349.687 672.834 349.522 672.834 349.349C672.834 349.176 672.939 349.011 673.125 348.888C673.312 348.766 673.565 348.698 673.829 348.698H849.005C849.269 348.698 849.522 348.766 849.709 348.888C849.895 349.011 850 349.176 850 349.349C850 349.522 849.895 349.687 849.709 349.809C849.522 349.931 849.269 350 849.005 350Z" fill="#0AA8A7"/>
<rect x="280" y="289" width="350" height="50" fill="#0AA8A7"/>
<path d="M332.137 317.527C331.915 320.587 330.783 322.996 328.738 324.754C326.707 326.512 324.025 327.391 320.691 327.391C317.046 327.391 314.174 326.167 312.078 323.719C309.995 321.258 308.953 317.885 308.953 313.602V311.863C308.953 309.129 309.435 306.72 310.398 304.637C311.362 302.553 312.736 300.958 314.52 299.852C316.316 298.732 318.4 298.172 320.77 298.172C324.051 298.172 326.694 299.051 328.699 300.809C330.704 302.566 331.863 305.034 332.176 308.211H326.316C326.173 306.375 325.659 305.047 324.773 304.227C323.901 303.393 322.566 302.977 320.77 302.977C318.816 302.977 317.352 303.68 316.375 305.086C315.411 306.479 314.917 308.647 314.891 311.59V313.738C314.891 316.811 315.353 319.057 316.277 320.477C317.215 321.896 318.686 322.605 320.691 322.605C322.501 322.605 323.849 322.195 324.734 321.375C325.633 320.542 326.147 319.259 326.277 317.527H332.137ZM347.488 311.16C346.72 311.056 346.043 311.004 345.457 311.004C343.322 311.004 341.922 311.727 341.258 313.172V327H335.613V305.867H340.945L341.102 308.387C342.234 306.447 343.803 305.477 345.809 305.477C346.434 305.477 347.02 305.561 347.566 305.73L347.488 311.16ZM359.559 327.391C356.46 327.391 353.934 326.44 351.98 324.539C350.04 322.638 349.07 320.105 349.07 316.941V316.395C349.07 314.272 349.48 312.378 350.301 310.711C351.121 309.031 352.28 307.742 353.777 306.844C355.288 305.932 357.007 305.477 358.934 305.477C361.824 305.477 364.096 306.388 365.75 308.211C367.417 310.034 368.25 312.618 368.25 315.965V318.27H354.793C354.975 319.65 355.522 320.757 356.434 321.59C357.358 322.423 358.523 322.84 359.93 322.84C362.104 322.84 363.803 322.052 365.027 320.477L367.801 323.582C366.954 324.78 365.809 325.717 364.363 326.395C362.918 327.059 361.316 327.391 359.559 327.391ZM358.914 310.047C357.794 310.047 356.883 310.424 356.18 311.18C355.49 311.935 355.047 313.016 354.852 314.422H362.703V313.973C362.677 312.723 362.339 311.759 361.688 311.082C361.036 310.392 360.112 310.047 358.914 310.047ZM383.719 327C383.458 326.492 383.27 325.861 383.152 325.105C381.785 326.629 380.008 327.391 377.82 327.391C375.75 327.391 374.031 326.792 372.664 325.594C371.31 324.396 370.633 322.885 370.633 321.062C370.633 318.823 371.46 317.104 373.113 315.906C374.78 314.708 377.182 314.103 380.32 314.09H382.918V312.879C382.918 311.902 382.664 311.121 382.156 310.535C381.661 309.949 380.874 309.656 379.793 309.656C378.842 309.656 378.094 309.884 377.547 310.34C377.013 310.796 376.746 311.421 376.746 312.215H371.102C371.102 310.991 371.479 309.858 372.234 308.816C372.99 307.775 374.057 306.961 375.438 306.375C376.818 305.776 378.367 305.477 380.086 305.477C382.69 305.477 384.754 306.134 386.277 307.449C387.814 308.751 388.582 310.587 388.582 312.957V322.117C388.595 324.122 388.875 325.639 389.422 326.668V327H383.719ZM379.051 323.074C379.884 323.074 380.652 322.892 381.355 322.527C382.059 322.15 382.579 321.648 382.918 321.023V317.391H380.809C377.983 317.391 376.479 318.367 376.297 320.32L376.277 320.652C376.277 321.355 376.525 321.935 377.02 322.391C377.514 322.846 378.191 323.074 379.051 323.074ZM399.676 300.672V305.867H403.289V310.008H399.676V320.555C399.676 321.336 399.826 321.896 400.125 322.234C400.424 322.573 400.997 322.742 401.844 322.742C402.469 322.742 403.022 322.697 403.504 322.605V326.883C402.397 327.221 401.258 327.391 400.086 327.391C396.128 327.391 394.109 325.392 394.031 321.395V310.008H390.945V305.867H394.031V300.672H399.676ZM412.391 327H406.727V305.867H412.391V327ZM406.395 300.398C406.395 299.552 406.674 298.855 407.234 298.309C407.807 297.762 408.582 297.488 409.559 297.488C410.522 297.488 411.29 297.762 411.863 298.309C412.436 298.855 412.723 299.552 412.723 300.398C412.723 301.258 412.43 301.961 411.844 302.508C411.271 303.055 410.509 303.328 409.559 303.328C408.608 303.328 407.84 303.055 407.254 302.508C406.681 301.961 406.395 301.258 406.395 300.398ZM424.969 320.105L428.895 305.867H434.793L427.664 327H422.273L415.145 305.867H421.043L424.969 320.105ZM446.746 327.391C443.647 327.391 441.121 326.44 439.168 324.539C437.228 322.638 436.258 320.105 436.258 316.941V316.395C436.258 314.272 436.668 312.378 437.488 310.711C438.309 309.031 439.467 307.742 440.965 306.844C442.475 305.932 444.194 305.477 446.121 305.477C449.012 305.477 451.284 306.388 452.938 308.211C454.604 310.034 455.438 312.618 455.438 315.965V318.27H441.98C442.163 319.65 442.71 320.757 443.621 321.59C444.546 322.423 445.711 322.84 447.117 322.84C449.292 322.84 450.991 322.052 452.215 320.477L454.988 323.582C454.142 324.78 452.996 325.717 451.551 326.395C450.105 327.059 448.504 327.391 446.746 327.391ZM446.102 310.047C444.982 310.047 444.07 310.424 443.367 311.18C442.677 311.935 442.234 313.016 442.039 314.422H449.891V313.973C449.865 312.723 449.526 311.759 448.875 311.082C448.224 310.392 447.299 310.047 446.102 310.047ZM474.852 322.293H487.293V327H468.992V298.562H474.852V322.293ZM500.027 327.391C496.928 327.391 494.402 326.44 492.449 324.539C490.509 322.638 489.539 320.105 489.539 316.941V316.395C489.539 314.272 489.949 312.378 490.77 310.711C491.59 309.031 492.749 307.742 494.246 306.844C495.757 305.932 497.475 305.477 499.402 305.477C502.293 305.477 504.565 306.388 506.219 308.211C507.885 310.034 508.719 312.618 508.719 315.965V318.27H495.262C495.444 319.65 495.991 320.757 496.902 321.59C497.827 322.423 498.992 322.84 500.398 322.84C502.573 322.84 504.272 322.052 505.496 320.477L508.27 323.582C507.423 324.78 506.277 325.717 504.832 326.395C503.387 327.059 501.785 327.391 500.027 327.391ZM499.383 310.047C498.263 310.047 497.352 310.424 496.648 311.18C495.958 311.935 495.516 313.016 495.32 314.422H503.172V313.973C503.146 312.723 502.807 311.759 502.156 311.082C501.505 310.392 500.581 310.047 499.383 310.047ZM524.188 327C523.927 326.492 523.738 325.861 523.621 325.105C522.254 326.629 520.477 327.391 518.289 327.391C516.219 327.391 514.5 326.792 513.133 325.594C511.779 324.396 511.102 322.885 511.102 321.062C511.102 318.823 511.928 317.104 513.582 315.906C515.249 314.708 517.651 314.103 520.789 314.09H523.387V312.879C523.387 311.902 523.133 311.121 522.625 310.535C522.13 309.949 521.342 309.656 520.262 309.656C519.311 309.656 518.562 309.884 518.016 310.34C517.482 310.796 517.215 311.421 517.215 312.215H511.57C511.57 310.991 511.948 309.858 512.703 308.816C513.458 307.775 514.526 306.961 515.906 306.375C517.286 305.776 518.836 305.477 520.555 305.477C523.159 305.477 525.223 306.134 526.746 307.449C528.283 308.751 529.051 310.587 529.051 312.957V322.117C529.064 324.122 529.344 325.639 529.891 326.668V327H524.188ZM519.52 323.074C520.353 323.074 521.121 322.892 521.824 322.527C522.527 322.15 523.048 321.648 523.387 321.023V317.391H521.277C518.452 317.391 516.948 318.367 516.766 320.32L516.746 320.652C516.746 321.355 516.993 321.935 517.488 322.391C517.983 322.846 518.66 323.074 519.52 323.074ZM545.262 311.16C544.493 311.056 543.816 311.004 543.23 311.004C541.095 311.004 539.695 311.727 539.031 313.172V327H533.387V305.867H538.719L538.875 308.387C540.008 306.447 541.577 305.477 543.582 305.477C544.207 305.477 544.793 305.561 545.34 305.73L545.262 311.16ZM553.191 305.867L553.367 308.309C554.878 306.421 556.902 305.477 559.441 305.477C561.681 305.477 563.348 306.134 564.441 307.449C565.535 308.764 566.095 310.73 566.121 313.348V327H560.477V313.484C560.477 312.286 560.216 311.421 559.695 310.887C559.174 310.34 558.309 310.066 557.098 310.066C555.509 310.066 554.318 310.743 553.523 312.098V327H547.879V305.867H553.191ZM576.375 327H570.711V305.867H576.375V327ZM570.379 300.398C570.379 299.552 570.659 298.855 571.219 298.309C571.792 297.762 572.566 297.488 573.543 297.488C574.507 297.488 575.275 297.762 575.848 298.309C576.421 298.855 576.707 299.552 576.707 300.398C576.707 301.258 576.414 301.961 575.828 302.508C575.255 303.055 574.493 303.328 573.543 303.328C572.592 303.328 571.824 303.055 571.238 302.508C570.665 301.961 570.379 301.258 570.379 300.398ZM580.223 316.277C580.223 313.035 580.991 310.424 582.527 308.445C584.077 306.466 586.16 305.477 588.777 305.477C591.095 305.477 592.898 306.271 594.188 307.859L594.422 305.867H599.539V326.297C599.539 328.146 599.116 329.754 598.27 331.121C597.436 332.488 596.258 333.53 594.734 334.246C593.211 334.962 591.427 335.32 589.383 335.32C587.833 335.32 586.323 335.008 584.852 334.383C583.38 333.771 582.267 332.977 581.512 332L584.012 328.562C585.418 330.138 587.124 330.926 589.129 330.926C590.626 330.926 591.792 330.522 592.625 329.715C593.458 328.921 593.875 327.788 593.875 326.316V325.184C592.573 326.655 590.861 327.391 588.738 327.391C586.199 327.391 584.142 326.401 582.566 324.422C581.004 322.43 580.223 319.793 580.223 316.512V316.277ZM585.867 316.688C585.867 318.602 586.251 320.105 587.02 321.199C587.788 322.28 588.842 322.82 590.184 322.82C591.902 322.82 593.133 322.176 593.875 320.887V312C593.12 310.711 591.902 310.066 590.223 310.066C588.868 310.066 587.801 310.62 587.02 311.727C586.251 312.833 585.867 314.487 585.867 316.688Z" fill="white"/>
<path d="M616.5 292L619.306 300.637H628.388L621.041 305.975L623.847 314.613L616.5 309.275L609.153 314.613L611.959 305.975L604.612 300.637H613.694L616.5 292Z" fill="#E2F31A"/>
<path d="M288.5 116L292.429 128.092L305.143 128.092L294.857 135.566L298.786 147.658L288.5 140.184L278.214 147.658L282.143 135.566L271.857 128.092L284.571 128.092L288.5 116Z" fill="#E2F31A"/>
</g>
<defs>
<clipPath id="clip0">
<rect width="850" height="350" fill="white"/>
</clipPath>
</defs>
</svg>
