<svg width="100" height="100" viewBox="0 0 100 100" fill="none" xmlns="http://www.w3.org/2000/svg">
<path d="M5.37634 14.6789L100 0V100L0 95.4128L5.37634 14.6789Z" fill="#0AA8A7"/>
<path d="M62.6965 39.928C68.9685 39.928 72.1045 41.112 72.1045 43.48C72.1045 43.992 71.9125 44.568 71.5285 45.208C69.9925 47.576 67.2085 48.76 63.1765 48.76C60.5525 48.76 57.8645 48.312 55.1125 47.416C52.3605 46.456 50.2805 45.464 48.8725 44.44C42.9205 46.168 37.6085 48.824 32.9365 52.408C28.3285 55.992 24.8725 60.056 22.5685 64.6C21.3525 67.032 20.7445 69.4 20.7445 71.704C20.7445 75.288 22.2165 78.2 25.1605 80.44C28.1685 82.68 32.5525 83.8 38.3125 83.8C39.9125 83.8 41.5765 83.704 43.3045 83.512C53.4805 82.424 61.5765 79.16 67.5925 73.72C72.6485 69.24 75.1765 64.536 75.1765 59.608C75.1765 55.704 73.2885 53.752 69.5125 53.752C64.9685 53.752 59.7525 56.184 53.8645 61.048C52.3925 62.264 51.1445 63.8 50.1205 65.656C49.0965 67.512 48.5845 69.336 48.5845 71.128C48.5845 72.92 49.4805 74.04 51.2725 74.488C51.9125 74.744 52.2325 75.064 52.2325 75.448C52.2325 76.088 51.5925 76.344 50.3125 76.216C47.2405 76.152 45.7045 74.136 45.7045 70.168C45.7045 66.2 47.7205 62.488 51.7525 59.032C57.2565 54.296 63.0805 51.928 69.2245 51.928C73.8325 51.928 76.7445 53.368 77.9605 56.248C78.4725 57.592 78.7285 58.936 78.7285 60.28C78.7285 66.232 75.4325 71.832 68.8405 77.08C60.9685 83.48 50.9845 86.68 38.8885 86.68C31.4005 86.68 25.4805 85.272 21.1285 82.456C16.7765 79.704 14.6005 76.088 14.6005 71.608C14.6005 68.984 15.4325 66.36 17.0965 63.736C22.9845 54.392 33.0325 47.448 47.2405 42.904C45.1285 40.472 44.0725 37.88 44.0725 35.128C44.0725 32.376 44.7445 30.072 46.0885 28.216C48.7125 24.632 52.6485 21.688 57.8965 19.384C64.1685 16.632 70.4405 15.256 76.7125 15.256C80.3605 15.256 83.2725 15.864 85.4485 17.08C87.6885 18.232 88.8085 20.056 88.8085 22.552C88.8085 24.984 87.8805 27.064 86.0245 28.792C84.2325 30.456 82.3445 31.288 80.3605 31.288C78.3765 31.288 77.3845 30.808 77.3845 29.848C77.3845 29.272 77.8005 28.984 78.6325 28.984L80.5525 29.272C81.8325 29.272 82.9845 28.6 84.0085 27.256C85.0965 25.848 85.6405 24.408 85.6405 22.936C85.6405 20.76 84.3925 19.16 81.8965 18.136C80.2965 17.496 78.7925 17.176 77.3845 17.176C75.9765 17.176 74.9845 17.208 74.4085 17.272C68.9045 17.592 63.5285 19.512 58.2805 23.032C52.1365 27.064 49.0645 31.608 49.0645 36.664C49.0645 38.52 49.7045 40.248 50.9845 41.848C55.0805 40.568 58.9845 39.928 62.6965 39.928ZM52.6165 43.384C55.3685 45.56 58.5365 46.648 62.1205 46.648C65.7045 46.648 67.4965 45.656 67.4965 43.672C67.4965 42.776 65.8965 42.328 62.6965 42.328C59.4965 42.328 56.1365 42.68 52.6165 43.384Z" fill="white"/>
</svg>
