<svg width="100" height="100" viewBox="0 0 100 100" fill="none" xmlns="http://www.w3.org/2000/svg">
<path d="M5.37634 14.6789L100 0V100L0 95.4128L5.37634 14.6789Z" fill="#0AA8A7"/>
<path d="M27.1348 89.352C25.2148 88.328 23.9988 87.272 23.4868 86.184C22.9748 85.096 22.7188 84.168 22.7188 83.4C22.7188 81.672 23.3268 79.368 24.5428 76.488C25.8228 73.544 27.5188 70.184 29.6308 66.408C31.7428 62.632 34.1428 58.696 36.8307 54.6C34.8468 54.472 32.9588 54.376 31.1668 54.312C29.3748 54.248 27.0708 54.216 24.2548 54.216H22.7188C23.6148 51.912 25.0228 50.312 26.9428 49.416C28.9268 48.456 31.2308 47.976 33.8548 47.976C34.9428 47.976 36.0628 48.04 37.2148 48.168C38.4308 48.296 39.6788 48.424 40.9588 48.552C45.7588 41.64 50.4308 35.336 54.9748 29.64C59.5188 23.88 63.4228 19.432 66.6868 16.296C69.7588 13.224 71.9988 11.688 73.4067 11.688C74.3028 11.688 75.2948 12.04 76.3828 12.744C77.5348 13.448 78.7188 14.344 79.9348 15.432C79.2948 15.944 78.4628 17.256 77.4388 19.368C76.4788 21.48 75.4228 24.168 74.2708 27.432C73.1828 30.632 72.0628 34.152 70.9108 37.992C69.8228 41.832 68.8308 45.736 67.9348 49.704C67.0388 53.672 66.3028 57.48 65.7268 61.128C65.2148 64.712 64.9588 67.88 64.9588 70.632C64.9588 75.688 66.0788 78.216 68.3188 78.216C69.7908 78.216 71.6148 77.096 73.7908 74.856C75.9668 72.616 78.3988 68.968 81.0868 63.912L82.8148 65.736C80.8308 70.984 78.2388 75.304 75.0388 78.696C71.9028 82.088 68.5428 83.784 64.9588 83.784C61.8868 83.784 59.7108 82.472 58.4308 79.848C57.1508 77.16 56.5108 73.512 56.5108 68.904C56.5108 67.432 56.6068 65.768 56.7988 63.912C56.9908 62.056 57.3108 59.752 57.7588 57C54.9428 56.552 52.4468 56.2 50.2708 55.944C48.0948 55.688 46.0148 55.432 44.0308 55.176C40.9588 60.616 37.9828 66.248 35.1028 72.072C32.2228 77.896 29.5668 83.656 27.1348 89.352ZM58.7188 52.296C59.5508 48.52 60.5108 44.712 61.5988 40.872C62.7508 36.968 63.9348 33.256 65.1508 29.736C66.4308 26.152 67.6788 22.952 68.8948 20.136C65.9508 22.44 62.5588 26.248 58.7188 31.56C54.9428 36.808 51.0708 42.856 47.1028 49.704C49.0228 50.088 50.9428 50.504 52.8628 50.952C54.7828 51.4 56.7348 51.848 58.7188 52.296Z" fill="white"/>
</svg>
