<svg width="145" height="48" viewBox="0 0 145 48" fill="none" xmlns="http://www.w3.org/2000/svg">
<path d="M77.375 23.8555H65.0508V33.9336H79.3672V37H61.3008V8.5625H79.1719V11.6484H65.0508V20.7891H77.375V23.8555ZM82.1992 26.2578C82.1992 23.0156 82.9674 20.4115 84.5039 18.4453C86.0404 16.4661 88.0521 15.4766 90.5391 15.4766C93.013 15.4766 94.9727 16.3229 96.418 18.0156V7H100.031V37H96.7109L96.5352 34.7344C95.0898 36.5052 93.0781 37.3906 90.5 37.3906C88.0521 37.3906 86.0534 36.388 84.5039 34.3828C82.9674 32.3776 82.1992 29.7604 82.1992 26.5312V26.2578ZM85.8125 26.668C85.8125 29.0638 86.3073 30.9388 87.2969 32.293C88.2865 33.6471 89.6536 34.3242 91.3984 34.3242C93.6901 34.3242 95.3633 33.2956 96.418 31.2383V21.5312C95.3372 19.5391 93.6771 18.543 91.4375 18.543C89.6667 18.543 88.2865 19.2266 87.2969 20.5938C86.3073 21.9609 85.8125 23.9857 85.8125 26.668ZM109.582 37H105.969V15.8672H109.582V37ZM105.676 10.2617C105.676 9.67578 105.852 9.18099 106.203 8.77734C106.568 8.3737 107.102 8.17188 107.805 8.17188C108.508 8.17188 109.042 8.3737 109.406 8.77734C109.771 9.18099 109.953 9.67578 109.953 10.2617C109.953 10.8477 109.771 11.3359 109.406 11.7266C109.042 12.1172 108.508 12.3125 107.805 12.3125C107.102 12.3125 106.568 12.1172 106.203 11.7266C105.852 11.3359 105.676 10.8477 105.676 10.2617ZM117.16 37V18.6602H113.82V15.8672H117.16V13.6992C117.16 11.4336 117.766 9.68229 118.977 8.44531C120.188 7.20833 121.9 6.58984 124.113 6.58984C124.947 6.58984 125.773 6.70052 126.594 6.92188L126.398 9.85156C125.786 9.73438 125.135 9.67578 124.445 9.67578C123.273 9.67578 122.368 10.0208 121.73 10.7109C121.092 11.388 120.773 12.3646 120.773 13.6406V15.8672H125.285V18.6602H120.773V37H117.16ZM136.203 31.707L141.125 15.8672H144.992L136.496 40.2617C135.181 43.7773 133.091 45.5352 130.227 45.5352L129.543 45.4766L128.195 45.2227V42.293L129.172 42.3711C130.396 42.3711 131.346 42.1237 132.023 41.6289C132.714 41.1341 133.28 40.2292 133.723 38.9141L134.523 36.7656L126.984 15.8672H130.93L136.203 31.707Z" fill="black"/>
<path d="M2.58065 7.04587L48 0V48L0 45.7982L2.58065 7.04587Z" fill="#0AA8A7"/>
<path d="M13.932 41.654C13.092 41.206 12.56 40.744 12.336 40.268C12.112 39.792 12 39.386 12 39.05C12 38.294 12.266 37.286 12.798 36.026C13.358 34.738 14.1 33.268 15.024 31.616C15.948 29.964 16.998 28.242 18.174 26.45C17.306 26.394 16.48 26.352 15.696 26.324C14.912 26.296 13.904 26.282 12.672 26.282H12C12.392 25.274 13.008 24.574 13.848 24.182C14.716 23.762 15.724 23.552 16.872 23.552C17.348 23.552 17.838 23.58 18.342 23.636C18.874 23.692 19.42 23.748 19.98 23.804C22.08 20.78 24.124 18.022 26.112 15.53C28.1 13.01 29.808 11.064 31.236 9.692C32.58 8.348 33.56 7.676 34.176 7.676C34.568 7.676 35.002 7.83 35.478 8.138C35.982 8.446 36.5 8.838 37.032 9.314C36.752 9.538 36.388 10.112 35.94 11.036C35.52 11.96 35.058 13.136 34.554 14.564C34.078 15.964 33.588 17.504 33.084 19.184C32.608 20.864 32.174 22.572 31.782 24.308C31.39 26.044 31.068 27.71 30.816 29.306C30.592 30.874 30.48 32.26 30.48 33.464C30.48 35.676 30.97 36.782 31.95 36.782C32.594 36.782 33.392 36.292 34.344 35.312C35.296 34.332 36.36 32.736 37.536 30.524L38.292 31.322C37.424 33.618 36.29 35.508 34.89 36.992C33.518 38.476 32.048 39.218 30.48 39.218C29.136 39.218 28.184 38.644 27.624 37.496C27.064 36.32 26.784 34.724 26.784 32.708C26.784 32.064 26.826 31.336 26.91 30.524C26.994 29.712 27.134 28.704 27.33 27.5C26.098 27.304 25.006 27.15 24.054 27.038C23.102 26.926 22.192 26.814 21.324 26.702C19.98 29.082 18.678 31.546 17.418 34.094C16.158 36.642 14.996 39.162 13.932 41.654ZM27.75 25.442C28.114 23.79 28.534 22.124 29.01 20.444C29.514 18.736 30.032 17.112 30.564 15.572C31.124 14.004 31.67 12.604 32.202 11.372C30.914 12.38 29.43 14.046 27.75 16.37C26.098 18.666 24.404 21.312 22.668 24.308C23.508 24.476 24.348 24.658 25.188 24.854C26.028 25.05 26.882 25.246 27.75 25.442Z" fill="white"/>
<line x1="58" y1="44.5" x2="123" y2="44.5" stroke="#ED2222" stroke-width="3"/>
</svg>
