<svg width="179" height="48" viewBox="0 0 179 48" fill="none" xmlns="http://www.w3.org/2000/svg">
<path d="M67.4336 30.0352L67.9805 33.7852L68.7812 30.4062L74.4062 10.5625H77.5703L83.0586 30.4062L83.8398 33.8438L84.4453 30.0156L88.8594 10.5625H92.6289L85.7344 39H82.3164L76.457 18.2773L76.0078 16.1094L75.5586 18.2773L69.4844 39H66.0664L59.1914 10.5625H62.9414L67.4336 30.0352ZM104.387 39.3906C101.522 39.3906 99.1914 38.4531 97.3945 36.5781C95.5977 34.6901 94.6992 32.1706 94.6992 29.0195V28.3555C94.6992 26.2591 95.0964 24.3906 95.8906 22.75C96.6979 21.0964 97.8177 19.8073 99.25 18.8828C100.695 17.9453 102.258 17.4766 103.938 17.4766C106.685 17.4766 108.82 18.3815 110.344 20.1914C111.867 22.0013 112.629 24.5924 112.629 27.9648V29.4688H98.3125C98.3646 31.5521 98.9701 33.2383 100.129 34.5273C101.301 35.8034 102.785 36.4414 104.582 36.4414C105.858 36.4414 106.939 36.181 107.824 35.6602C108.71 35.1393 109.484 34.4492 110.148 33.5898L112.355 35.3086C110.585 38.0299 107.928 39.3906 104.387 39.3906ZM103.938 20.4453C102.479 20.4453 101.255 20.9792 100.266 22.0469C99.276 23.1016 98.6641 24.5859 98.4297 26.5H109.016V26.2266C108.911 24.3906 108.417 22.9714 107.531 21.9688C106.646 20.9531 105.448 20.4453 103.938 20.4453ZM134.719 28.668C134.719 31.8971 133.977 34.4948 132.492 36.4609C131.008 38.4141 129.016 39.3906 126.516 39.3906C123.846 39.3906 121.783 38.4466 120.324 36.5586L120.148 39H116.828V9H120.441V20.1914C121.9 18.3815 123.911 17.4766 126.477 17.4766C129.042 17.4766 131.053 18.4466 132.512 20.3867C133.983 22.3268 134.719 24.9831 134.719 28.3555V28.668ZM131.105 28.2578C131.105 25.7969 130.63 23.8958 129.68 22.5547C128.729 21.2135 127.362 20.543 125.578 20.543C123.195 20.543 121.483 21.6497 120.441 23.8633V33.0039C121.548 35.2174 123.273 36.3242 125.617 36.3242C127.349 36.3242 128.697 35.6536 129.66 34.3125C130.624 32.9714 131.105 30.9531 131.105 28.2578ZM143.215 39H139.602V17.8672H143.215V39ZM139.309 12.2617C139.309 11.6758 139.484 11.181 139.836 10.7773C140.201 10.3737 140.734 10.1719 141.438 10.1719C142.141 10.1719 142.674 10.3737 143.039 10.7773C143.404 11.181 143.586 11.6758 143.586 12.2617C143.586 12.8477 143.404 13.3359 143.039 13.7266C142.674 14.1172 142.141 14.3125 141.438 14.3125C140.734 14.3125 140.201 14.1172 139.836 13.7266C139.484 13.3359 139.309 12.8477 139.309 12.2617ZM150.793 39V20.6602H147.453V17.8672H150.793V15.6992C150.793 13.4336 151.398 11.6823 152.609 10.4453C153.82 9.20833 155.533 8.58984 157.746 8.58984C158.579 8.58984 159.406 8.70052 160.227 8.92188L160.031 11.8516C159.419 11.7344 158.768 11.6758 158.078 11.6758C156.906 11.6758 156.001 12.0208 155.363 12.7109C154.725 13.388 154.406 14.3646 154.406 15.6406V17.8672H158.918V20.6602H154.406V39H150.793ZM169.836 33.707L174.758 17.8672H178.625L170.129 42.2617C168.814 45.7773 166.724 47.5352 163.859 47.5352L163.176 47.4766L161.828 47.2227V44.293L162.805 44.3711C164.029 44.3711 164.979 44.1237 165.656 43.6289C166.346 43.1341 166.913 42.2292 167.355 40.9141L168.156 38.7656L160.617 17.8672H164.562L169.836 33.707Z" fill="black"/>
<path d="M2.58064 7.04587L48 0V48L0 45.7982L2.58064 7.04587Z" fill="#0AA8A7"/>
<path d="M32.9219 31.3867L36.9414 10.1406H43.0732L36.4492 40H30.2559L25.3955 20.0254L20.5352 40H14.3418L7.71777 10.1406H13.8496L17.8896 31.3457L22.8115 10.1406H28.0205L32.9219 31.3867Z" fill="white"/>
<line x1="58" y1="45.5" x2="157" y2="45.5" stroke="#ED2222" stroke-width="3"/>
</svg>
