<svg width="173" height="45" viewBox="0 0 173 45" fill="none" xmlns="http://www.w3.org/2000/svg">
<path d="M61.4336 27.0352L61.9805 30.7852L62.7812 27.4062L68.4062 7.5625H71.5703L77.0586 27.4062L77.8398 30.8438L78.4453 27.0156L82.8594 7.5625H86.6289L79.7344 36H76.3164L70.457 15.2773L70.0078 13.1094L69.5586 15.2773L63.4844 36H60.0664L53.1914 7.5625H56.9414L61.4336 27.0352ZM98.3867 36.3906C95.5221 36.3906 93.1914 35.4531 91.3945 33.5781C89.5977 31.6901 88.6992 29.1706 88.6992 26.0195V25.3555C88.6992 23.2591 89.0964 21.3906 89.8906 19.75C90.6979 18.0964 91.8177 16.8073 93.25 15.8828C94.6953 14.9453 96.2578 14.4766 97.9375 14.4766C100.685 14.4766 102.82 15.3815 104.344 17.1914C105.867 19.0013 106.629 21.5924 106.629 24.9648V26.4688H92.3125C92.3646 28.5521 92.9701 30.2383 94.1289 31.5273C95.3008 32.8034 96.7852 33.4414 98.582 33.4414C99.8581 33.4414 100.939 33.181 101.824 32.6602C102.71 32.1393 103.484 31.4492 104.148 30.5898L106.355 32.3086C104.585 35.0299 101.928 36.3906 98.3867 36.3906ZM97.9375 17.4453C96.4792 17.4453 95.2552 17.9792 94.2656 19.0469C93.276 20.1016 92.6641 21.5859 92.4297 23.5H103.016V23.2266C102.911 21.3906 102.417 19.9714 101.531 18.9688C100.646 17.9531 99.4479 17.4453 97.9375 17.4453ZM128.719 25.668C128.719 28.8971 127.977 31.4948 126.492 33.4609C125.008 35.4141 123.016 36.3906 120.516 36.3906C117.846 36.3906 115.783 35.4466 114.324 33.5586L114.148 36H110.828V6H114.441V17.1914C115.9 15.3815 117.911 14.4766 120.477 14.4766C123.042 14.4766 125.053 15.4466 126.512 17.3867C127.983 19.3268 128.719 21.9831 128.719 25.3555V25.668ZM125.105 25.2578C125.105 22.7969 124.63 20.8958 123.68 19.5547C122.729 18.2135 121.362 17.543 119.578 17.543C117.195 17.543 115.483 18.6497 114.441 20.8633V30.0039C115.548 32.2174 117.273 33.3242 119.617 33.3242C121.349 33.3242 122.697 32.6536 123.66 31.3125C124.624 29.9714 125.105 27.9531 125.105 25.2578ZM137.215 36H133.602V14.8672H137.215V36ZM133.309 9.26172C133.309 8.67578 133.484 8.18099 133.836 7.77734C134.201 7.3737 134.734 7.17188 135.438 7.17188C136.141 7.17188 136.674 7.3737 137.039 7.77734C137.404 8.18099 137.586 8.67578 137.586 9.26172C137.586 9.84766 137.404 10.3359 137.039 10.7266C136.674 11.1172 136.141 11.3125 135.438 11.3125C134.734 11.3125 134.201 11.1172 133.836 10.7266C133.484 10.3359 133.309 9.84766 133.309 9.26172ZM144.793 36V17.6602H141.453V14.8672H144.793V12.6992C144.793 10.4336 145.398 8.68229 146.609 7.44531C147.82 6.20833 149.533 5.58984 151.746 5.58984C152.579 5.58984 153.406 5.70052 154.227 5.92188L154.031 8.85156C153.419 8.73438 152.768 8.67578 152.078 8.67578C150.906 8.67578 150.001 9.02083 149.363 9.71094C148.725 10.388 148.406 11.3646 148.406 12.6406V14.8672H152.918V17.6602H148.406V36H144.793ZM163.836 30.707L168.758 14.8672H172.625L164.129 39.2617C162.814 42.7773 160.724 44.5352 157.859 44.5352L157.176 44.4766L155.828 44.2227V41.293L156.805 41.3711C158.029 41.3711 158.979 41.1237 159.656 40.6289C160.346 40.1341 160.913 39.2292 161.355 37.9141L162.156 35.7656L154.617 14.8672H158.562L163.836 30.707Z" fill="black"/>
<rect width="45" height="45" fill="#0AA8A7"/>
<path d="M29.6875 28.7969L33.5156 8.5625H39.3555L33.0469 37H27.1484L22.5195 17.9766L17.8906 37H11.9922L5.68359 8.5625H11.5234L15.3711 28.7578L20.0586 8.5625H25.0195L29.6875 28.7969Z" fill="white"/>
</svg>
