<svg width="144" height="48" viewBox="0 0 144 48" fill="none" xmlns="http://www.w3.org/2000/svg">
<path d="M76.375 23.8555H64.0508V33.9336H78.3672V37H60.3008V8.5625H78.1719V11.6484H64.0508V20.7891H76.375V23.8555ZM81.1992 26.2578C81.1992 23.0156 81.9674 20.4115 83.5039 18.4453C85.0404 16.4661 87.0521 15.4766 89.5391 15.4766C92.013 15.4766 93.9727 16.3229 95.418 18.0156V7H99.0312V37H95.7109L95.5352 34.7344C94.0898 36.5052 92.0781 37.3906 89.5 37.3906C87.0521 37.3906 85.0534 36.388 83.5039 34.3828C81.9674 32.3776 81.1992 29.7604 81.1992 26.5312V26.2578ZM84.8125 26.668C84.8125 29.0638 85.3073 30.9388 86.2969 32.293C87.2865 33.6471 88.6536 34.3242 90.3984 34.3242C92.6901 34.3242 94.3633 33.2956 95.418 31.2383V21.5312C94.3372 19.5391 92.6771 18.543 90.4375 18.543C88.6667 18.543 87.2865 19.2266 86.2969 20.5938C85.3073 21.9609 84.8125 23.9857 84.8125 26.668ZM108.582 37H104.969V15.8672H108.582V37ZM104.676 10.2617C104.676 9.67578 104.852 9.18099 105.203 8.77734C105.568 8.3737 106.102 8.17188 106.805 8.17188C107.508 8.17188 108.042 8.3737 108.406 8.77734C108.771 9.18099 108.953 9.67578 108.953 10.2617C108.953 10.8477 108.771 11.3359 108.406 11.7266C108.042 12.1172 107.508 12.3125 106.805 12.3125C106.102 12.3125 105.568 12.1172 105.203 11.7266C104.852 11.3359 104.676 10.8477 104.676 10.2617ZM116.16 37V18.6602H112.82V15.8672H116.16V13.6992C116.16 11.4336 116.766 9.68229 117.977 8.44531C119.188 7.20833 120.9 6.58984 123.113 6.58984C123.947 6.58984 124.773 6.70052 125.594 6.92188L125.398 9.85156C124.786 9.73438 124.135 9.67578 123.445 9.67578C122.273 9.67578 121.368 10.0208 120.73 10.7109C120.092 11.388 119.773 12.3646 119.773 13.6406V15.8672H124.285V18.6602H119.773V37H116.16ZM135.203 31.707L140.125 15.8672H143.992L135.496 40.2617C134.181 43.7773 132.091 45.5352 129.227 45.5352L128.543 45.4766L127.195 45.2227V42.293L128.172 42.3711C129.396 42.3711 130.346 42.1237 131.023 41.6289C131.714 41.1341 132.28 40.2292 132.723 38.9141L133.523 36.7656L125.984 15.8672H129.93L135.203 31.707Z" fill="black"/>
<path d="M2.58065 7.04587L48 0V48L0 45.7982L2.58065 7.04587Z" fill="#0AA8A7"/>
<path d="M30.168 19.906C32.912 19.906 34.284 20.424 34.284 21.46C34.284 21.684 34.2 21.936 34.032 22.216C33.36 23.252 32.142 23.77 30.378 23.77C29.23 23.77 28.054 23.574 26.85 23.182C25.646 22.762 24.736 22.328 24.12 21.88C21.516 22.636 19.192 23.798 17.148 25.366C15.132 26.934 13.62 28.712 12.612 30.7C12.08 31.764 11.814 32.8 11.814 33.808C11.814 35.376 12.458 36.65 13.746 37.63C15.062 38.61 16.98 39.1 19.5 39.1C20.2 39.1 20.928 39.058 21.684 38.974C26.136 38.498 29.678 37.07 32.31 34.69C34.522 32.73 35.628 30.672 35.628 28.516C35.628 26.808 34.802 25.954 33.15 25.954C31.162 25.954 28.88 27.018 26.304 29.146C25.66 29.678 25.114 30.35 24.666 31.162C24.218 31.974 23.994 32.772 23.994 33.556C23.994 34.34 24.386 34.83 25.17 35.026C25.45 35.138 25.59 35.278 25.59 35.446C25.59 35.726 25.31 35.838 24.75 35.782C23.406 35.754 22.734 34.872 22.734 33.136C22.734 31.4 23.616 29.776 25.38 28.264C27.788 26.192 30.336 25.156 33.024 25.156C35.04 25.156 36.314 25.786 36.846 27.046C37.07 27.634 37.182 28.222 37.182 28.81C37.182 31.414 35.74 33.864 32.856 36.16C29.412 38.96 25.044 40.36 19.752 40.36C16.476 40.36 13.886 39.744 11.982 38.512C10.078 37.308 9.126 35.726 9.126 33.766C9.126 32.618 9.49 31.47 10.218 30.322C12.794 26.234 17.19 23.196 23.406 21.208C22.482 20.144 22.02 19.01 22.02 17.806C22.02 16.602 22.314 15.594 22.902 14.782C24.05 13.214 25.772 11.926 28.068 10.918C30.812 9.714 33.556 9.112 36.3 9.112C37.896 9.112 39.17 9.378 40.122 9.91C41.102 10.414 41.592 11.212 41.592 12.304C41.592 13.368 41.186 14.278 40.374 15.034C39.59 15.762 38.764 16.126 37.896 16.126C37.028 16.126 36.594 15.916 36.594 15.496C36.594 15.244 36.776 15.118 37.14 15.118L37.98 15.244C38.54 15.244 39.044 14.95 39.492 14.362C39.968 13.746 40.206 13.116 40.206 12.472C40.206 11.52 39.66 10.82 38.568 10.372C37.868 10.092 37.21 9.952 36.594 9.952C35.978 9.952 35.544 9.966 35.292 9.994C32.884 10.134 30.532 10.974 28.236 12.514C25.548 14.278 24.204 16.266 24.204 18.478C24.204 19.29 24.484 20.046 25.044 20.746C26.836 20.186 28.544 19.906 30.168 19.906ZM25.758 21.418C26.962 22.37 28.348 22.846 29.916 22.846C31.484 22.846 32.268 22.412 32.268 21.544C32.268 21.152 31.568 20.956 30.168 20.956C28.768 20.956 27.298 21.11 25.758 21.418Z" fill="white"/>
<line x1="58" y1="44.5" x2="123" y2="44.5" stroke="#ED2222" stroke-width="3"/>
<path d="M107.5 3L109.184 8.18237H114.633L110.225 11.3853L111.908 16.5676L107.5 13.3647L103.092 16.5676L104.775 11.3853L100.367 8.18237H105.816L107.5 3Z" fill="#F4EE51"/>
</svg>
