<svg width="190" height="50" viewBox="0 0 190 50" fill="none" xmlns="http://www.w3.org/2000/svg">
<path d="M73.0039 31.5781H61.0898L58.4141 39H54.5469L65.4062 10.5625H68.6875L79.5664 39H75.7188L73.0039 31.5781ZM62.2227 28.4922H71.8906L67.0469 15.1914L62.2227 28.4922ZM86.2266 17.8672L86.3242 20.2109C87.8737 18.388 89.9635 17.4766 92.5938 17.4766C95.5495 17.4766 97.5612 18.6094 98.6289 20.875C99.332 19.8594 100.243 19.0391 101.363 18.4141C102.496 17.7891 103.831 17.4766 105.367 17.4766C110.003 17.4766 112.359 19.931 112.438 24.8398V39H108.824V25.0547C108.824 23.5443 108.479 22.418 107.789 21.6758C107.099 20.9206 105.94 20.543 104.312 20.543C102.971 20.543 101.858 20.9466 100.973 21.7539C100.087 22.5482 99.5729 23.6224 99.4297 24.9766V39H95.7969V25.1523C95.7969 22.0794 94.293 20.543 91.2852 20.543C88.9154 20.543 87.2943 21.5521 86.4219 23.5703V39H82.8086V17.8672H86.2266ZM135.758 28.668C135.758 31.8841 135.022 34.4753 133.551 36.4414C132.079 38.4076 130.087 39.3906 127.574 39.3906C125.009 39.3906 122.991 38.5768 121.52 36.9492V47.125H117.906V17.8672H121.207L121.383 20.2109C122.854 18.388 124.898 17.4766 127.516 17.4766C130.055 17.4766 132.06 18.4336 133.531 20.3477C135.016 22.2617 135.758 24.9245 135.758 28.3359V28.668ZM132.145 28.2578C132.145 25.875 131.637 23.9935 130.621 22.6133C129.605 21.2331 128.212 20.543 126.441 20.543C124.254 20.543 122.613 21.513 121.52 23.4531V33.5508C122.6 35.4779 124.254 36.4414 126.48 36.4414C128.212 36.4414 129.586 35.7578 130.602 34.3906C131.63 33.0104 132.145 30.9661 132.145 28.2578ZM144.293 39H140.68V9H144.293V39ZM154.02 39H150.406V17.8672H154.02V39ZM150.113 12.2617C150.113 11.6758 150.289 11.181 150.641 10.7773C151.005 10.3737 151.539 10.1719 152.242 10.1719C152.945 10.1719 153.479 10.3737 153.844 10.7773C154.208 11.181 154.391 11.6758 154.391 12.2617C154.391 12.8477 154.208 13.3359 153.844 13.7266C153.479 14.1172 152.945 14.3125 152.242 14.3125C151.539 14.3125 151.005 14.1172 150.641 13.7266C150.289 13.3359 150.113 12.8477 150.113 12.2617ZM161.598 39V20.6602H158.258V17.8672H161.598V15.6992C161.598 13.4336 162.203 11.6823 163.414 10.4453C164.625 9.20833 166.337 8.58984 168.551 8.58984C169.384 8.58984 170.211 8.70052 171.031 8.92188L170.836 11.8516C170.224 11.7344 169.573 11.6758 168.883 11.6758C167.711 11.6758 166.806 12.0208 166.168 12.7109C165.53 13.388 165.211 14.3646 165.211 15.6406V17.8672H169.723V20.6602H165.211V39H161.598ZM180.641 33.707L185.562 17.8672H189.43L180.934 42.2617C179.618 45.7773 177.529 47.5352 174.664 47.5352L173.98 47.4766L172.633 47.2227V44.293L173.609 44.3711C174.833 44.3711 175.784 44.1237 176.461 43.6289C177.151 43.1341 177.717 42.2292 178.16 40.9141L178.961 38.7656L171.422 17.8672H175.367L180.641 33.707Z" fill="black"/>
<path d="M2.68817 7.33945L50 0V50L0 47.7064L2.68817 7.33945Z" fill="#0AA8A7"/>
<path d="M13.7863 42.654C13.1703 42.29 12.7783 41.898 12.6103 41.478C12.4423 41.086 12.3583 40.75 12.3583 40.47C12.3583 39.686 12.6383 38.622 13.1983 37.278C13.7863 35.934 14.5563 34.408 15.5083 32.7C16.4883 30.964 17.5663 29.172 18.7423 27.324C17.7063 27.24 16.8243 27.184 16.0963 27.156C15.3683 27.128 14.7383 27.114 14.2063 27.114H12.7363C13.0443 26.302 13.5763 25.742 14.3323 25.434C15.1163 25.098 16.0403 24.93 17.1043 24.93C17.5803 24.93 18.0703 24.958 18.5743 25.014C19.0783 25.07 19.5963 25.14 20.1283 25.224C21.5563 23.068 23.0123 20.982 24.4963 18.966C26.0083 16.922 27.4083 15.116 28.6963 13.548C30.0123 11.952 31.1043 10.748 31.9723 9.936C32.7843 9.152 33.4563 8.76 33.9883 8.76C34.5763 8.76 35.3183 9.208 36.2143 10.104C35.9343 10.328 35.5703 10.93 35.1223 11.91C34.7023 12.862 34.2403 14.066 33.7363 15.522C33.2603 16.978 32.7843 18.574 32.3083 20.31C31.8323 22.046 31.3843 23.824 30.9643 25.644C30.5723 27.436 30.2503 29.144 29.9983 30.768C29.7743 32.392 29.6623 33.82 29.6623 35.052C29.6623 36.116 29.7743 36.942 29.9983 37.53C30.2503 38.118 30.6563 38.412 31.2163 38.412C31.9443 38.412 32.7703 37.908 33.6943 36.9C34.6183 35.892 35.6263 34.324 36.7183 32.196L37.1383 32.616C36.2983 34.856 35.2203 36.69 33.9043 38.118C32.6163 39.546 31.2723 40.26 29.8723 40.26C28.7243 40.26 27.8843 39.756 27.3523 38.748C26.8483 37.712 26.5963 36.34 26.5963 34.632C26.5963 32.84 26.8343 30.754 27.3103 28.374C26.0783 28.178 24.9443 28.024 23.9083 27.912C22.9003 27.772 21.9623 27.646 21.0943 27.534C19.7783 29.97 18.4903 32.476 17.2303 35.052C15.9983 37.628 14.8503 40.162 13.7863 42.654ZM27.6043 26.904C28.0243 25.056 28.5143 23.194 29.0743 21.318C29.6343 19.414 30.2223 17.608 30.8383 15.9C31.4823 14.192 32.0843 12.694 32.6443 11.406C31.7763 11.938 30.7683 12.89 29.6203 14.262C28.5003 15.606 27.3103 17.258 26.0503 19.218C24.7903 21.15 23.5023 23.278 22.1863 25.602C23.1383 25.798 24.0763 26.022 25.0003 26.274C25.9523 26.498 26.8203 26.708 27.6043 26.904Z" fill="white"/>
<line x1="55" y1="46.5" x2="170" y2="46.5" stroke="#ED2222" stroke-width="3"/>
<path d="M152 6L153.347 10.1459H157.706L154.18 12.7082L155.527 16.8541L152 14.2918L148.473 16.8541L149.82 12.7082L146.294 10.1459H150.653L152 6Z" fill="#ED2222"/>
</svg>
