<svg width="581" height="456" viewBox="0 0 581 456" fill="none" xmlns="http://www.w3.org/2000/svg">
<g clip-path="url(#clip0)">
<path d="M452.82 170.975C482.377 170.975 506.339 147.014 506.339 117.456C506.339 87.8982 482.377 63.9369 452.82 63.9369C423.262 63.9369 399.3 87.8982 399.3 117.456C399.3 147.014 423.262 170.975 452.82 170.975Z" fill="#0AA8A7"/>
<path d="M456.753 448.302V325.287C456.754 323.564 457.44 321.912 458.659 320.693C459.877 319.475 461.529 318.789 463.253 318.787H478.012C479.735 318.789 481.387 319.475 482.606 320.693C483.824 321.912 484.51 323.564 484.512 325.287V448.302C484.51 450.025 483.824 451.677 482.606 452.896C481.387 454.114 479.735 454.8 478.012 454.802H463.253C461.529 454.8 459.877 454.114 458.659 452.896C457.44 451.677 456.754 450.025 456.753 448.302V448.302Z" fill="#2F2E41"/>
<path d="M425.56 448.302V325.287C425.562 323.564 426.248 321.912 427.466 320.693C428.685 319.475 430.337 318.789 432.06 318.787H446.82C448.543 318.789 450.195 319.475 451.414 320.693C452.632 321.912 453.318 323.564 453.32 325.287V448.302C453.318 450.025 452.632 451.677 451.414 452.896C450.195 454.114 448.543 454.8 446.82 454.802H432.06C430.337 454.8 428.685 454.114 427.466 452.896C426.248 451.677 425.562 450.025 425.56 448.302V448.302Z" fill="#2F2E41"/>
<path d="M413.397 332.749V223.805C413.397 213.188 417.614 203.006 425.121 195.498C432.629 187.991 442.811 183.774 453.428 183.774H453.428C464.045 183.774 474.227 187.991 481.734 195.498C489.241 203.006 493.459 213.188 493.459 223.805V332.749C493.459 334.473 492.774 336.126 491.555 337.345C490.336 338.564 488.683 339.249 486.959 339.249H419.897C418.173 339.249 416.519 338.564 415.3 337.345C414.081 336.126 413.397 334.473 413.397 332.749V332.749Z" fill="#2F2E41"/>
<path d="M407.624 141.114L407.68 139.114C403.959 139.011 400.679 138.777 398.214 136.977C397.515 136.437 396.941 135.753 396.53 134.972C396.119 134.191 395.881 133.33 395.833 132.448C395.789 131.91 395.871 131.368 396.071 130.866C396.271 130.364 396.584 129.915 396.985 129.554C398.622 128.172 401.254 128.619 403.173 129.499L404.828 130.258L401.655 107.067L399.673 107.339L402.373 127.066C399.765 126.299 397.349 126.629 395.694 128.026C395.059 128.581 394.56 129.275 394.238 130.055C393.915 130.834 393.777 131.677 393.834 132.519C393.892 133.703 394.209 134.86 394.762 135.909C395.315 136.959 396.09 137.874 397.034 138.592C400.201 140.906 404.317 141.022 407.624 141.114Z" fill="#2F2E41"/>
<path d="M423.874 109.04H413.103V111.04H423.874V109.04Z" fill="#2F2E41"/>
<path d="M473.992 332.674C473.362 332.097 472.852 331.401 472.493 330.627C472.134 329.852 471.932 329.013 471.899 328.16L466.804 205.252C466.768 204.399 466.901 203.548 467.195 202.746C467.489 201.945 467.937 201.209 468.515 200.581C469.093 199.953 469.789 199.445 470.564 199.086C471.338 198.727 472.176 198.524 473.029 198.489L487.776 197.877C489.498 197.807 491.177 198.424 492.445 199.591C493.713 200.758 494.466 202.38 494.539 204.102L499.635 327.011C499.704 328.733 499.088 330.412 497.92 331.68C496.753 332.948 495.131 333.701 493.409 333.774L478.663 334.385C478.193 334.405 477.722 334.375 477.258 334.294C476.036 334.079 474.902 333.517 473.992 332.674V332.674Z" fill="#0AA8A7"/>
<path d="M492.81 249.488H468.81C467.087 249.486 465.434 248.801 464.216 247.582C462.997 246.364 462.312 244.712 462.31 242.988V208.988C462.31 204.082 464.259 199.376 467.728 195.907C471.198 192.437 475.903 190.488 480.81 190.488C485.716 190.488 490.422 192.437 493.891 195.907C497.361 199.376 499.31 204.082 499.31 208.988V242.988C499.308 244.712 498.622 246.364 497.404 247.582C496.185 248.801 494.533 249.486 492.81 249.488V249.488Z" fill="#2F2E41"/>
<path d="M338.689 295.037L329.28 283.665C328.183 282.336 327.658 280.626 327.82 278.911C327.982 277.195 328.818 275.614 330.145 274.513L424.925 196.097C426.254 194.999 427.964 194.474 429.68 194.636C431.396 194.798 432.977 195.634 434.077 196.961L443.485 208.334C444.029 208.992 444.439 209.75 444.69 210.566C444.941 211.382 445.029 212.239 444.948 213.089C444.868 213.939 444.621 214.764 444.222 215.519C443.822 216.273 443.278 216.941 442.62 217.485L347.841 295.901C346.699 296.845 345.27 297.371 343.789 297.392C342.308 297.414 340.865 296.93 339.696 296.02C339.326 295.729 338.988 295.4 338.689 295.037V295.037Z" fill="#0AA8A7"/>
<path d="M408.585 243.961L393.382 225.39C392.292 224.056 391.776 222.343 391.947 220.628C392.118 218.913 392.962 217.336 394.294 216.243L420.602 194.705C422.482 193.166 424.647 192.012 426.973 191.309C429.298 190.606 431.74 190.368 434.158 190.609C436.576 190.85 438.922 191.564 441.064 192.712C443.206 193.86 445.1 195.419 446.639 197.299C448.178 199.179 449.332 201.344 450.035 203.67C450.737 205.996 450.974 208.437 450.733 210.855C450.492 213.273 449.776 215.619 448.628 217.761C447.48 219.902 445.921 221.796 444.04 223.335L417.732 244.873C416.398 245.963 414.685 246.479 412.97 246.308C411.255 246.137 409.678 245.293 408.585 243.961V243.961Z" fill="#2F2E41"/>
<path d="M466.237 126.517C469.024 121.862 471.205 116.732 470.17 111.215C469.245 106.289 465.7 102.453 460.603 101.95C457.533 101.646 454.478 102.466 451.48 103C449.022 103.431 446.525 103.593 444.032 103.482C439.016 103.254 434.1 102.007 429.581 99.818C424.995 97.6717 420.921 94.5682 417.634 90.7164C414.347 86.8645 411.923 82.3534 410.525 77.4866C407.483 66.4128 409.741 53.8379 416.965 44.824L414.458 44.1621L417.722 54.8864C417.786 55.1063 417.899 55.3089 418.052 55.4791C418.205 55.6492 418.395 55.7824 418.607 55.8687C418.819 55.9549 419.048 55.992 419.276 55.9772C419.505 55.9623 419.727 55.8958 419.926 55.7828C425.842 52.0447 432.456 49.5474 439.366 48.4426C446.277 47.3377 453.34 47.6483 460.126 49.3556C463.961 50.3191 467.665 51.7437 471.157 53.5984C472.861 54.5043 474.379 51.9156 472.672 51.008C466.112 47.5863 458.927 45.5308 451.551 44.9657C444.175 44.4007 436.761 45.3378 429.757 47.7205C425.768 49.08 421.959 50.9173 418.412 53.1924L420.615 54.0889L417.351 43.3645C417.278 43.1138 417.142 42.8862 416.955 42.7038C416.768 42.5214 416.537 42.3905 416.285 42.3239C416.032 42.2573 415.767 42.2571 415.514 42.3235C415.262 42.3898 415.031 42.5205 414.844 42.7027C411.484 46.9645 409.022 51.8623 407.605 57.1012C406.189 62.34 405.848 67.8113 406.603 73.1855C407.332 78.4823 409.172 83.5652 412.004 88.1009C414.835 92.6366 418.593 96.5226 423.031 99.5042C427.465 102.497 432.448 104.581 437.693 105.635C442.937 106.69 448.339 106.693 453.585 105.646C456.521 105.082 459.85 104.274 462.731 105.503C463.776 106.007 464.697 106.735 465.428 107.635C466.16 108.535 466.685 109.585 466.965 110.711C468.597 116.242 465.82 121.495 462.982 126.094L466.237 126.517Z" fill="#2F2E41"/>
<path d="M439.426 231.741L439.389 231.74C438.83 231.739 438.288 231.547 437.852 231.197C437.416 230.847 437.112 230.359 436.99 229.813L437.186 188.145C437.059 187.581 437.129 186.99 437.383 186.471C437.638 185.952 438.063 185.536 438.586 185.292C445.84 181.884 453.335 181.426 461.5 183.894C462.124 184.079 462.652 184.501 462.971 185.069C463.289 185.637 463.374 186.307 463.206 186.937L441.841 229.88C441.705 230.416 441.393 230.891 440.955 231.228C440.518 231.566 439.979 231.746 439.426 231.741Z" fill="#CCCCCC"/>
<path d="M579.101 455.488H331.101C330.836 455.488 330.582 455.383 330.394 455.195C330.207 455.008 330.101 454.753 330.101 454.488C330.101 454.223 330.207 453.969 330.394 453.781C330.582 453.594 330.836 453.488 331.101 453.488H579.101C579.366 453.488 579.621 453.594 579.808 453.781C579.996 453.969 580.101 454.223 580.101 454.488C580.101 454.753 579.996 455.008 579.808 455.195C579.621 455.383 579.366 455.488 579.101 455.488Z" fill="#0AA8A7"/>
<path d="M336 311.282H150C147.481 311.279 145.067 310.277 143.286 308.496C141.505 306.715 140.503 304.301 140.5 301.782V163.782C140.503 161.263 141.505 158.849 143.286 157.068C145.067 155.287 147.481 154.285 150 154.282H336C338.519 154.285 340.933 155.287 342.714 157.068C344.495 158.849 345.497 161.263 345.5 163.782V301.782C345.497 304.301 344.495 306.715 342.714 308.496C340.933 310.277 338.519 311.279 336 311.282V311.282Z" fill="white"/>
<path d="M174.077 244.692L210.048 245.282H231C231.928 245.281 232.818 244.912 233.474 244.256C234.13 243.6 234.499 242.71 234.5 241.782V240.559L216.458 221.159C216.138 220.815 215.752 220.539 215.322 220.347C214.893 220.155 214.429 220.052 213.959 220.044C213.489 220.035 213.022 220.122 212.585 220.298C212.149 220.474 211.753 220.736 211.421 221.068L193.677 238.812C193.208 239.28 192.572 239.543 191.91 239.544C191.247 239.544 190.612 239.281 190.143 238.814L187.516 236.192C186.859 235.537 185.969 235.169 185.041 235.169C184.113 235.17 183.224 235.538 182.567 236.194L174.077 244.692Z" fill="#0AA8A7"/>
<path d="M336 311.282H150C147.481 311.279 145.067 310.277 143.286 308.496C141.505 306.715 140.503 304.301 140.5 301.782V163.782C140.503 161.263 141.505 158.849 143.286 157.068C145.067 155.287 147.481 154.285 150 154.282H336C338.519 154.285 340.933 155.287 342.714 157.068C344.495 158.849 345.497 161.263 345.5 163.782V301.782C345.497 304.301 344.495 306.715 342.714 308.496C340.933 310.277 338.519 311.279 336 311.282V311.282ZM150 157.282C148.277 157.284 146.625 157.969 145.406 159.188C144.187 160.407 143.502 162.059 143.5 163.782V301.782C143.502 303.505 144.187 305.157 145.406 306.376C146.625 307.595 148.277 308.28 150 308.282H336C337.723 308.28 339.375 307.595 340.594 306.376C341.813 305.158 342.498 303.505 342.5 301.782V163.782C342.498 162.059 341.813 160.407 340.594 159.188C339.375 157.969 337.723 157.284 336 157.282H150Z" fill="#3F3D56"/>
<path d="M315 178.782H171C170.204 178.782 169.441 178.466 168.879 177.903C168.316 177.341 168 176.578 168 175.782C168 174.986 168.316 174.223 168.879 173.661C169.441 173.098 170.204 172.782 171 172.782H315C315.796 172.782 316.559 173.098 317.121 173.661C317.684 174.223 318 174.986 318 175.782C318 176.578 317.684 177.341 317.121 177.903C316.559 178.466 315.796 178.782 315 178.782V178.782Z" fill="#FF6584"/>
<path d="M315.5 195.282H171.5C170.704 195.282 169.941 194.966 169.379 194.403C168.816 193.841 168.5 193.078 168.5 192.282C168.5 191.486 168.816 190.723 169.379 190.161C169.941 189.598 170.704 189.282 171.5 189.282H315.5C316.296 189.282 317.059 189.598 317.621 190.161C318.184 190.723 318.5 191.486 318.5 192.282C318.5 193.078 318.184 193.841 317.621 194.403C317.059 194.966 316.296 195.282 315.5 195.282V195.282Z" fill="#3F3D56"/>
<path d="M316 211.782H247C246.204 211.782 245.441 211.466 244.879 210.903C244.316 210.341 244 209.578 244 208.782C244 207.986 244.316 207.223 244.879 206.661C245.441 206.098 246.204 205.782 247 205.782H316C316.796 205.782 317.559 206.098 318.121 206.661C318.684 207.223 319 207.986 319 208.782C319 209.578 318.684 210.341 318.121 210.903C317.559 211.466 316.796 211.782 316 211.782V211.782Z" fill="#3F3D56"/>
<path d="M316.5 228.282H247.5C246.704 228.282 245.941 227.966 245.379 227.403C244.816 226.841 244.5 226.078 244.5 225.282C244.5 224.486 244.816 223.723 245.379 223.161C245.941 222.598 246.704 222.282 247.5 222.282H316.5C317.296 222.282 318.059 222.598 318.621 223.161C319.184 223.723 319.5 224.486 319.5 225.282C319.5 226.078 319.184 226.841 318.621 227.403C318.059 227.966 317.296 228.282 316.5 228.282V228.282Z" fill="#3F3D56"/>
<path d="M317 244.782H248C247.204 244.782 246.441 244.466 245.879 243.903C245.316 243.341 245 242.578 245 241.782C245 240.986 245.316 240.223 245.879 239.661C246.441 239.098 247.204 238.782 248 238.782H317C317.796 238.782 318.559 239.098 319.121 239.661C319.684 240.223 320 240.986 320 241.782C320 242.578 319.684 243.341 319.121 243.903C318.559 244.466 317.796 244.782 317 244.782V244.782Z" fill="#3F3D56"/>
<path d="M317.5 261.282H173.5C172.704 261.282 171.941 260.966 171.379 260.403C170.816 259.841 170.5 259.078 170.5 258.282C170.5 257.486 170.816 256.723 171.379 256.161C171.941 255.598 172.704 255.282 173.5 255.282H317.5C318.296 255.282 319.059 255.598 319.621 256.161C320.184 256.723 320.5 257.486 320.5 258.282C320.5 259.078 320.184 259.841 319.621 260.403C319.059 260.966 318.296 261.282 317.5 261.282V261.282Z" fill="#0AA8A7"/>
<path d="M318 277.782H174C173.204 277.782 172.441 277.466 171.879 276.903C171.316 276.341 171 275.578 171 274.782C171 273.986 171.316 273.223 171.879 272.661C172.441 272.098 173.204 271.782 174 271.782H318C318.796 271.782 319.559 272.098 320.121 272.661C320.684 273.223 321 273.986 321 274.782C321 275.578 320.684 276.341 320.121 276.903C319.559 277.466 318.796 277.782 318 277.782V277.782Z" fill="#3F3D56"/>
<path d="M318.5 294.282H174.5C173.704 294.282 172.941 293.966 172.379 293.403C171.816 292.841 171.5 292.078 171.5 291.282C171.5 290.486 171.816 289.723 172.379 289.161C172.941 288.598 173.704 288.282 174.5 288.282H318.5C319.296 288.282 320.059 288.598 320.621 289.161C321.184 289.723 321.5 290.486 321.5 291.282C321.5 292.078 321.184 292.841 320.621 293.403C320.059 293.966 319.296 294.282 318.5 294.282Z" fill="#3F3D56"/>
<path d="M231 245.782H175C174.166 245.784 173.346 245.574 172.616 245.172H172.602L172.348 245.019C171.628 244.571 171.035 243.947 170.624 243.205C170.213 242.464 169.998 241.63 170 240.782V210.782C170.002 209.456 170.529 208.186 171.466 207.248C172.403 206.311 173.674 205.784 175 205.782H231C232.326 205.784 233.597 206.311 234.534 207.248C235.471 208.186 235.998 209.456 236 210.782V240.782C235.998 242.108 235.471 243.379 234.534 244.316C233.596 245.253 232.326 245.781 231 245.782V245.782ZM173.286 243.242L173.429 243.33C173.899 243.628 174.444 243.785 175 243.782H231C231.795 243.781 232.558 243.465 233.12 242.902C233.683 242.34 233.999 241.577 234 240.782V210.782C233.999 209.987 233.683 209.224 233.12 208.662C232.558 208.099 231.795 207.783 231 207.782H175C174.205 207.783 173.442 208.099 172.88 208.662C172.317 209.224 172.001 209.987 172 210.782V240.782C171.999 241.265 172.116 241.742 172.34 242.17C172.564 242.599 172.888 242.966 173.286 243.242V243.242Z" fill="#3F3D56"/>
<path d="M2.14358 333.363C1.64381 333.472 1.18478 333.719 0.819084 334.077C0.453385 334.434 0.195809 334.888 0.07592 335.385C-0.0439686 335.882 -0.0213265 336.403 0.141228 336.888C0.303782 337.373 0.599689 337.802 0.995018 338.127L13.022 347.999C13.1978 348.146 13.3434 348.326 13.4506 348.529C13.5506 348.733 13.6074 348.956 13.6176 349.184L14.473 367.416C14.49 368.012 14.7071 368.586 15.0895 369.044C15.4718 369.503 15.9972 369.819 16.581 369.943L16.6023 369.947C17.1792 370.085 17.7854 370.025 18.3245 369.778C18.8636 369.531 19.3046 369.111 19.5771 368.584L23.8473 360.686C23.9905 360.426 24.2017 360.209 24.4584 360.06C24.715 359.911 25.0074 359.834 25.3043 359.839C25.5227 359.838 25.7387 359.883 25.9389 359.971C26.139 360.058 26.3189 360.186 26.4672 360.346L47.3146 382.328C47.6154 382.647 47.9894 382.889 48.4042 383.031C48.819 383.173 49.2623 383.212 49.6956 383.145C50.1276 383.078 50.5372 382.908 50.8899 382.65C51.2426 382.392 51.5281 382.052 51.7223 381.661L81.737 320.708C81.9639 320.249 82.0568 319.736 82.0048 319.226C81.9528 318.717 81.7581 318.233 81.4432 317.829C81.1282 317.425 80.7057 317.119 80.2242 316.945C79.7428 316.771 79.222 316.736 78.7217 316.845L77.7393 317.056L2.14352 333.363H2.14358ZM1.68182 337.287C1.44494 337.092 1.26786 336.834 1.17083 336.543C1.0738 336.251 1.06074 335.939 1.13317 335.64C1.2056 335.342 1.36059 335.07 1.58038 334.856C1.80016 334.641 2.07585 334.493 2.37591 334.428L77.9481 318.127L78.9538 317.909C79.2535 317.846 79.565 317.868 79.8529 317.973C80.1408 318.077 80.3934 318.261 80.582 318.502C80.7706 318.744 80.8876 319.033 80.9197 319.338C80.9518 319.643 80.8977 319.95 80.7635 320.226L50.7489 381.178C50.6325 381.413 50.4609 381.617 50.2489 381.772C50.0368 381.927 49.7905 382.028 49.5308 382.068C49.2712 382.107 49.0059 382.083 48.7575 381.998C48.5091 381.913 48.2849 381.769 48.104 381.579L27.2569 359.597C27.0531 359.377 26.813 359.194 26.547 359.056L78.9586 320.556C79.1648 320.407 79.3126 320.192 79.3765 319.946C79.4405 319.7 79.4166 319.44 79.3089 319.21C79.2012 318.98 79.0166 318.795 78.7869 318.687C78.5572 318.579 78.2969 318.554 78.051 318.617C77.9908 318.632 77.9322 318.653 77.8759 318.679L14.1322 347.588C14.0076 347.43 13.8655 347.286 13.7088 347.16L1.68182 337.287V337.287Z" fill="#0AA8A7"/>
<path d="M2.14358 333.363C1.64381 333.472 1.18478 333.719 0.819084 334.077C0.453385 334.434 0.195809 334.888 0.07592 335.385C-0.0439686 335.882 -0.0213265 336.403 0.141228 336.888C0.303782 337.373 0.599689 337.802 0.995018 338.127L13.022 347.999C13.1978 348.146 13.3434 348.326 13.4506 348.529C13.5506 348.733 13.6074 348.956 13.6176 349.184L14.473 367.416C14.49 368.012 14.7071 368.586 15.0895 369.044C15.4718 369.503 15.9972 369.819 16.581 369.943L16.6023 369.947C17.1792 370.085 17.7854 370.025 18.3245 369.778C18.8636 369.531 19.3046 369.111 19.5771 368.584L23.8473 360.686C23.9905 360.426 24.2017 360.209 24.4584 360.06C24.715 359.911 25.0074 359.834 25.3043 359.839C25.5227 359.838 25.7387 359.883 25.9389 359.971C26.139 360.058 26.3189 360.186 26.4672 360.346L47.3146 382.328C47.6154 382.647 47.9894 382.889 48.4042 383.031C48.819 383.173 49.2623 383.212 49.6956 383.145C50.1276 383.078 50.5372 382.908 50.8899 382.65C51.2426 382.392 51.5281 382.052 51.7223 381.661L81.737 320.708C81.9639 320.249 82.0568 319.736 82.0048 319.226C81.9528 318.717 81.7581 318.233 81.4432 317.829C81.1282 317.425 80.7057 317.119 80.2242 316.945C79.7428 316.771 79.222 316.736 78.7217 316.845L77.7393 317.056L2.14352 333.363H2.14358ZM1.68182 337.287C1.44494 337.092 1.26786 336.834 1.17083 336.543C1.0738 336.251 1.06074 335.939 1.13317 335.64C1.2056 335.342 1.36059 335.07 1.58038 334.856C1.80016 334.641 2.07585 334.493 2.37591 334.428L77.9481 318.127L78.9538 317.909C79.2535 317.846 79.565 317.868 79.8529 317.973C80.1408 318.077 80.3934 318.261 80.582 318.502C80.7706 318.744 80.8876 319.033 80.9197 319.338C80.9518 319.643 80.8977 319.95 80.7635 320.226L50.7489 381.178C50.6325 381.413 50.4609 381.617 50.2489 381.772C50.0368 381.927 49.7905 382.028 49.5308 382.068C49.2712 382.107 49.0059 382.083 48.7575 381.998C48.5091 381.913 48.2849 381.769 48.104 381.579L27.2568 359.597C27.0531 359.377 26.813 359.194 26.547 359.056C26.1663 358.854 25.7422 358.749 25.3116 358.749C25.2509 358.746 25.189 358.749 25.1269 358.752L25.1218 358.751C24.6603 358.778 24.2132 358.922 23.8231 359.17C23.4329 359.418 23.1127 359.762 22.8926 360.168L18.6213 368.072C18.4582 368.389 18.1928 368.642 17.868 368.789C17.5432 368.937 17.1782 368.97 16.832 368.884L16.8214 368.882C16.4701 368.81 16.1537 368.621 15.9241 368.346C15.6946 368.07 15.5656 367.725 15.5585 367.366L14.7033 349.134C14.6962 348.942 14.6675 348.75 14.6177 348.564L14.6189 348.559C14.5716 348.38 14.5055 348.207 14.4216 348.042C14.3416 347.88 14.2445 347.728 14.1321 347.588C14.0075 347.43 13.8655 347.286 13.7088 347.16L1.68179 337.287H1.68182Z" fill="#CCCCCC"/>
<path d="M14.1322 347.588L77.8759 318.679C77.9321 318.653 77.9908 318.632 78.051 318.617C78.2969 318.554 78.5572 318.579 78.7869 318.687C79.0166 318.795 79.2012 318.98 79.3089 319.21C79.4165 319.44 79.4405 319.7 79.3765 319.946C79.3125 320.192 79.1647 320.407 78.9586 320.556L26.547 359.055L25.6222 359.736L24.981 358.859L25.1218 358.751L25.127 358.752L78.3122 319.678L14.6189 348.559L14.6177 348.564L14.3402 348.686L13.891 347.696L14.1322 347.588Z" fill="#CCCCCC"/>
<path d="M381.856 364.363L306.261 348.056L305.278 347.845C304.778 347.736 304.257 347.771 303.776 347.945C303.294 348.119 302.872 348.426 302.557 348.829C302.242 349.233 302.047 349.717 301.995 350.226C301.943 350.736 302.036 351.249 302.263 351.708L332.278 412.661C332.472 413.052 332.757 413.392 333.11 413.65C333.463 413.908 333.872 414.078 334.304 414.145C334.738 414.212 335.181 414.173 335.596 414.031C336.011 413.889 336.385 413.647 336.685 413.328L357.533 391.347C357.681 391.186 357.861 391.058 358.061 390.971C358.261 390.884 358.477 390.838 358.696 390.839C358.992 390.834 359.285 390.911 359.542 391.06C359.798 391.209 360.009 391.426 360.153 391.686L364.423 399.584C364.695 400.111 365.136 400.531 365.675 400.778C366.215 401.025 366.821 401.085 367.398 400.947L367.419 400.943C368.003 400.819 368.528 400.503 368.91 400.044C369.293 399.586 369.51 399.012 369.527 398.416L370.382 380.184C370.393 379.956 370.449 379.733 370.549 379.529C370.657 379.326 370.802 379.146 370.978 378.999L383.005 369.127C383.4 368.802 383.696 368.373 383.859 367.888C384.021 367.403 384.044 366.882 383.924 366.385C383.804 365.888 383.547 365.434 383.181 365.077C382.815 364.719 382.356 364.472 381.856 364.363L381.856 364.363ZM382.318 368.287L370.291 378.16C370.134 378.286 369.993 378.43 369.868 378.588L306.124 349.679C306.068 349.653 306.009 349.632 305.949 349.617C305.703 349.554 305.443 349.579 305.213 349.687C304.983 349.795 304.799 349.98 304.691 350.21C304.583 350.44 304.56 350.7 304.623 350.946C304.687 351.192 304.835 351.407 305.041 351.556L357.453 390.056C357.187 390.194 356.947 390.377 356.743 390.597L335.896 412.579C335.715 412.769 335.491 412.913 335.243 412.998C334.994 413.083 334.729 413.107 334.469 413.068C334.21 413.028 333.963 412.927 333.751 412.772C333.539 412.617 333.368 412.413 333.251 412.178L303.237 351.226C303.102 350.95 303.048 350.643 303.08 350.338C303.112 350.033 303.229 349.744 303.418 349.502C303.607 349.261 303.859 349.077 304.147 348.973C304.435 348.868 304.747 348.846 305.046 348.909L306.052 349.127L381.624 365.428C381.924 365.493 382.2 365.641 382.42 365.856C382.639 366.07 382.794 366.342 382.867 366.64C382.939 366.939 382.926 367.251 382.829 367.543C382.732 367.834 382.555 368.092 382.318 368.287V368.287Z" fill="#E6E6E6"/>
<path d="M381.856 364.363L306.261 348.056L305.278 347.845C304.778 347.736 304.257 347.771 303.776 347.945C303.294 348.119 302.872 348.426 302.557 348.829C302.242 349.233 302.047 349.717 301.995 350.226C301.943 350.736 302.036 351.249 302.263 351.708L332.278 412.661C332.472 413.052 332.757 413.392 333.11 413.65C333.463 413.908 333.872 414.078 334.304 414.145C334.738 414.212 335.181 414.173 335.596 414.031C336.011 413.889 336.385 413.647 336.685 413.328L357.533 391.347C357.681 391.186 357.861 391.058 358.061 390.971C358.261 390.884 358.477 390.838 358.696 390.839C358.992 390.834 359.285 390.911 359.542 391.06C359.798 391.209 360.009 391.426 360.153 391.686L364.423 399.584C364.695 400.111 365.136 400.531 365.675 400.778C366.215 401.025 366.821 401.085 367.398 400.947L367.419 400.943C368.003 400.819 368.528 400.503 368.91 400.044C369.293 399.586 369.51 399.012 369.527 398.416L370.382 380.184C370.393 379.956 370.449 379.733 370.549 379.529C370.657 379.326 370.802 379.146 370.978 378.999L383.005 369.127C383.4 368.802 383.696 368.373 383.859 367.888C384.021 367.403 384.044 366.882 383.924 366.385C383.804 365.888 383.547 365.434 383.181 365.077C382.815 364.719 382.356 364.472 381.856 364.363L381.856 364.363ZM382.318 368.287L370.291 378.16C370.134 378.286 369.993 378.43 369.868 378.588C369.755 378.728 369.658 378.88 369.578 379.042C369.494 379.207 369.428 379.38 369.381 379.559L369.382 379.564C369.333 379.75 369.304 379.942 369.297 380.134L368.442 398.366C368.434 398.725 368.305 399.07 368.076 399.346C367.846 399.621 367.53 399.81 367.179 399.882L367.168 399.884C366.822 399.97 366.457 399.937 366.132 399.789C365.807 399.642 365.542 399.389 365.379 399.072L361.107 391.168C360.887 390.762 360.567 390.418 360.177 390.17C359.787 389.922 359.34 389.778 358.878 389.751L358.873 389.752C358.811 389.749 358.749 389.746 358.688 389.749C358.258 389.749 357.834 389.854 357.453 390.056C357.187 390.194 356.947 390.377 356.743 390.597L335.896 412.579C335.715 412.769 335.491 412.913 335.243 412.998C334.994 413.083 334.729 413.107 334.469 413.068C334.21 413.028 333.963 412.927 333.751 412.772C333.539 412.617 333.368 412.413 333.251 412.178L303.237 351.226C303.102 350.95 303.048 350.643 303.08 350.338C303.112 350.033 303.229 349.744 303.418 349.502C303.607 349.261 303.859 349.077 304.147 348.973C304.435 348.868 304.747 348.846 305.046 348.909L306.052 349.127L381.624 365.428C381.924 365.493 382.2 365.641 382.42 365.856C382.639 366.07 382.794 366.342 382.867 366.64C382.939 366.939 382.926 367.251 382.829 367.543C382.732 367.834 382.555 368.092 382.318 368.287V368.287Z" fill="#CCCCCC"/>
<path d="M370.109 378.696L369.66 379.686L369.382 379.564L369.381 379.559L305.688 350.678L358.873 389.752L358.878 389.751L359.019 389.859L358.378 390.736L357.453 390.055L305.041 351.556C304.835 351.407 304.688 351.192 304.624 350.946C304.56 350.7 304.584 350.44 304.691 350.21C304.799 349.98 304.983 349.795 305.213 349.687C305.443 349.579 305.703 349.554 305.949 349.617C306.009 349.632 306.068 349.653 306.124 349.679L369.868 378.588L370.109 378.696Z" fill="#CCCCCC"/>
<path d="M84.7556 1.15569C84.2738 0.654365 83.6623 0.296538 82.9893 0.12201C82.3162 -0.0525174 81.608 -0.0369067 80.9433 0.167115C80.2786 0.371137 79.6835 0.755565 79.2242 1.27763C78.765 1.7997 78.4596 2.43895 78.342 3.12425L75.206 23.8311C75.1567 24.1363 75.0479 24.4287 74.8856 24.6918C74.7144 24.9494 74.4921 25.1692 74.2325 25.3374L53.3862 38.9328C52.6998 39.3565 52.1784 40.0016 51.9081 40.7616C51.6378 41.5216 51.6348 42.3511 51.8996 43.113L51.9091 43.1408C52.1626 43.9075 52.6638 44.5681 53.3337 45.0189C54.0037 45.4697 54.8044 45.685 55.6101 45.6311L67.9126 45.0969C68.3172 45.081 68.7186 45.1743 69.0747 45.3671C69.4308 45.5599 69.7284 45.845 69.9363 46.1925C70.0903 46.4433 70.1897 46.7236 70.228 47.0154C70.2663 47.3072 70.2427 47.6037 70.1587 47.8857L58.9951 87.1455C58.832 87.7139 58.8122 88.314 58.9375 88.892C59.0628 89.4699 59.3293 90.0079 59.7132 90.4578C60.1009 90.912 60.5908 91.2678 61.1426 91.496C61.6945 91.7242 62.2926 91.8182 62.8878 91.7705L155.756 84.2568C156.595 84.1914 157.389 83.8466 158.009 83.2775C158.365 82.9524 158.653 82.5592 158.855 82.121C159.057 81.6829 159.169 81.2088 159.184 80.7266C159.2 80.2444 159.119 79.7641 158.946 79.3138C158.772 78.8636 158.511 78.4526 158.176 78.1052L157.235 77.1177L84.7555 1.15567L84.7556 1.15569ZM79.8136 3.33644C79.8898 2.84554 80.131 2.39525 80.4973 2.05971C80.9346 1.66029 81.5105 1.44729 82.1024 1.46607C82.6943 1.48484 83.2555 1.73388 83.6666 2.1602L156.122 78.099L157.087 79.1094C157.426 79.4661 157.635 79.9271 157.679 80.4174C157.702 80.7079 157.667 81.0002 157.577 81.2773C157.487 81.5545 157.343 81.8111 157.153 82.0324C156.964 82.2538 156.732 82.4354 156.472 82.5671C156.212 82.6987 155.929 82.7776 155.638 82.7994L62.7695 90.3132C62.5077 90.3339 62.2442 90.3092 61.9908 90.2402C61.71 90.1668 61.4467 90.0383 61.216 89.8623C60.9854 89.6862 60.792 89.4661 60.6471 89.2147C60.5022 88.9632 60.4088 88.6855 60.3722 88.3977C60.3355 88.1098 60.3565 87.8176 60.4338 87.5379L71.5974 48.2785C71.7124 47.8917 71.7586 47.4877 71.7338 47.085L153.977 80.9449C154.253 81.0619 154.558 81.0944 154.852 81.0381C155.147 80.9818 155.418 80.8393 155.632 80.6287C155.769 80.4931 155.878 80.3313 155.952 80.1529C156.026 79.9745 156.063 79.783 156.062 79.5899C156.061 79.3968 156.021 79.2059 155.944 79.0285C155.868 78.8511 155.757 78.6908 155.618 78.5571C155.558 78.4977 155.492 78.4442 155.422 78.3975L76.4728 24.8276C76.5708 24.5748 76.6395 24.3117 76.6776 24.0432L79.8136 3.33637L79.8136 3.33644Z" fill="#FF6584"/>
<path d="M84.7556 1.15569C84.2738 0.654365 83.6623 0.296538 82.9893 0.12201C82.3162 -0.0525174 81.608 -0.0369067 80.9433 0.167115C80.2786 0.371137 79.6835 0.755565 79.2242 1.27763C78.765 1.7997 78.4596 2.43895 78.342 3.12425L75.206 23.8311C75.1567 24.1363 75.0479 24.4287 74.8856 24.6918C74.7144 24.9494 74.4921 25.1692 74.2325 25.3374L53.3862 38.9328C52.6998 39.3565 52.1784 40.0016 51.9081 40.7616C51.6378 41.5216 51.6348 42.3511 51.8996 43.113L51.9091 43.1408C52.1626 43.9075 52.6638 44.5681 53.3337 45.0189C54.0037 45.4697 54.8044 45.685 55.6101 45.6311L67.9126 45.0969C68.3172 45.081 68.7186 45.1743 69.0747 45.3671C69.4308 45.5599 69.7284 45.845 69.9363 46.1925C70.0903 46.4433 70.1897 46.7236 70.228 47.0154C70.2663 47.3072 70.2427 47.6037 70.1587 47.8857L58.9951 87.1455C58.832 87.7139 58.8122 88.314 58.9375 88.892C59.0628 89.4699 59.3293 90.0079 59.7132 90.4578C60.1009 90.912 60.5908 91.2678 61.1426 91.496C61.6945 91.7242 62.2926 91.8182 62.8878 91.7705L155.756 84.2568C156.595 84.1914 157.389 83.8466 158.009 83.2775C158.365 82.9524 158.653 82.5592 158.855 82.121C159.057 81.6829 159.169 81.2088 159.184 80.7266C159.2 80.2444 159.119 79.7641 158.946 79.3138C158.772 78.8636 158.511 78.4526 158.176 78.1052L157.235 77.1177L84.7555 1.15567L84.7556 1.15569ZM79.8136 3.33644C79.8898 2.84554 80.131 2.39525 80.4973 2.05971C80.9346 1.66029 81.5105 1.44729 82.1024 1.46607C82.6943 1.48484 83.2555 1.73388 83.6666 2.1602L156.122 78.099L157.087 79.1094C157.426 79.4661 157.635 79.9271 157.679 80.4174C157.702 80.7079 157.667 81.0002 157.577 81.2773C157.487 81.5545 157.343 81.8111 157.153 82.0324C156.964 82.2538 156.732 82.4354 156.472 82.5671C156.212 82.6987 155.929 82.7776 155.638 82.7994L62.7695 90.3132C62.5077 90.3339 62.2442 90.3092 61.9908 90.2402C61.71 90.1668 61.4467 90.0383 61.216 89.8623C60.9854 89.6862 60.792 89.4661 60.6471 89.2146C60.5022 88.9632 60.4088 88.6855 60.3722 88.3977C60.3355 88.1098 60.3565 87.8175 60.4338 87.5379L71.5974 48.2785C71.7125 47.8917 71.7586 47.4877 71.7338 47.085C71.7018 46.5053 71.5266 45.9425 71.2238 45.4472C71.1837 45.3756 71.1365 45.3063 71.0893 45.2366L71.087 45.2298C70.7251 44.713 70.2385 44.2961 69.6723 44.0176C69.1061 43.7392 68.4788 43.6083 67.8485 43.6372L55.539 44.1737C55.0545 44.2076 54.5727 44.0778 54.1707 43.8053C53.7686 43.5329 53.4697 43.1333 53.3217 42.6708L53.3169 42.6568C53.1545 42.2003 53.1546 41.7016 53.3173 41.2451C53.48 40.7886 53.7952 40.4023 54.2097 40.1513L75.0562 26.5562C75.2775 26.4151 75.4823 26.2496 75.6667 26.063L75.6738 26.0607C75.8506 25.8829 76.0079 25.6867 76.1429 25.4756C76.2759 25.2721 76.3866 25.0548 76.4729 24.8276C76.5708 24.5748 76.6395 24.3116 76.6776 24.0432L79.8136 3.33632V3.33644Z" fill="#CCCCCC"/>
<path d="M76.4728 24.8276L155.422 78.3976C155.492 78.4443 155.558 78.4977 155.618 78.5571C155.831 78.7621 155.976 79.0277 156.034 79.318C156.092 79.6083 156.059 79.9093 155.94 80.1803C155.778 80.5393 155.482 80.8205 155.115 80.9634C154.748 81.1064 154.339 81.0998 153.977 80.9449L71.7337 47.085L70.2809 46.4886L70.8605 45.1421L71.0869 45.2299L71.0892 45.2367L154.554 79.5917L75.6737 26.0607L75.6666 26.063L75.327 25.8275L76.1755 24.6241L76.4728 24.8276Z" fill="#CCCCCC"/>
</g>
<defs>
<clipPath id="clip0">
<rect width="580.101" height="455.488" fill="white"/>
</clipPath>
</defs>
</svg>
