<svg width="1100" height="350" viewBox="0 0 1100 350" fill="none" xmlns="http://www.w3.org/2000/svg">
<rect width="1100" height="350" fill="#F5F5F5"/>
<path opacity="0.2" d="M165.296 19.0311C157.35 18.9291 149.208 19.0311 141.755 20.0599C121.477 22.8624 111.866 32.0326 114.991 39.9567C118.116 47.8809 130.97 54.7852 144.308 61.0952C157.646 67.4053 172.098 73.6444 179.412 81.1873C183.06 84.952 184.765 89.1691 181.059 92.9294C175.341 98.7251 158.1 101.962 141.548 102.636C124.996 103.31 108.376 101.998 91.7652 101.559C84.7956 101.377 77.6289 101.355 71.0635 102.202C63.8573 103.124 57.8538 105.009 52.3333 106.973C30.7542 114.671 13.4831 125.185 16.3024 136.213C19.457 148.731 47.5916 158.624 78.4077 163.932C88.6107 165.706 99.4052 167.116 108.386 169.626C132.045 176.246 137.358 188.662 135.002 199.62C132.646 210.577 124.622 221.547 129.088 232.407C134.342 245.041 157.597 256.455 188.965 261.785C216.912 266.534 251.888 266.219 276.701 259.519C288.797 256.246 297.945 251.701 305.9 247.001C317.713 240.059 327.471 232.457 334.932 224.385C338.392 220.621 341.645 216.572 349.719 213.956C354.648 212.346 361.036 211.446 367.355 210.745C386.4 208.635 406.461 208.058 425.684 206.178C444.907 204.298 464.199 200.79 474.649 194.525C489.436 185.656 482.535 174.295 482.604 163.866C482.723 140.071 521.159 118.773 535.345 95.5767C539.978 87.9984 541.703 79.6131 531.352 72.8507C524.323 68.2611 512.464 64.9487 500.004 62.3901C472.589 56.7629 441.428 54.2575 410.779 51.8186C368.183 48.4308 316.458 47.9918 283.444 37.0301C251.809 26.5296 208.464 19.0311 165.296 19.0311Z" fill="#0AA8A7"/>
<g opacity="0.5">
<path opacity="0.5" d="M27.6716 154.903C25.5056 156.304 23.7243 158.339 26.5582 160.711C32.1249 165.367 45.8899 164.409 52.58 168.866C54.3677 170.1 55.364 171.523 55.4646 172.985C55.7176 175.508 53.9363 177.494 53.0152 179.716C51.8106 182.335 52.7494 185.057 55.667 187.404C58.9511 189.854 63.9071 191.791 69.8368 192.942C75.0189 193.944 79.9581 194.202 84.9175 194.689C91.0699 195.307 97.0623 196.199 102.802 197.35C105.53 197.851 108.095 198.507 110.433 199.301C113.285 200.397 115.872 201.618 118.156 202.945L139.684 214.589C142.419 216.159 145.467 217.619 148.793 218.952C152.421 220.234 156.407 221.309 160.655 222.149C169.248 224.025 178.236 225.945 185.695 225.728C193.154 225.51 198.336 222.358 194.804 217.95C191.464 213.756 182.051 210.222 177.78 206.036C171.05 199.438 179.865 194.508 174.228 187.901C168.823 181.551 153.671 177.295 143.995 171.495C137.052 167.371 133.186 162.574 126.931 158.242C117.822 152.034 104.259 147.285 91.5064 144.882C80.2908 142.793 68.0094 142.048 55.92 142.722C51.3047 142.944 46.7603 143.321 43.481 144.532C39.9993 145.817 40.4446 148.221 38.1775 149.928C35.5763 151.892 30.6169 153.005 27.6716 154.903Z" fill="#0AA8A7"/>
<path opacity="0.5" d="M41.1835 145.973C41.1835 145.973 148.955 190.113 192.416 224.482" stroke="#535461" stroke-width="2" stroke-miterlimit="10"/>
<path opacity="0.5" d="M26.9732 160.982C26.9732 160.982 70.0392 157.315 99.8464 172.023" stroke="#535461" stroke-width="2" stroke-miterlimit="10"/>
<path opacity="0.5" d="M57.5799 188.699C57.5799 188.699 105.15 174.124 121.607 182.602" stroke="#535461" stroke-width="2" stroke-miterlimit="10"/>
<path opacity="0.5" d="M91.304 144.775C91.304 144.775 86.294 155.931 104.32 174.155" stroke="#535461" stroke-width="2" stroke-miterlimit="10"/>
<path opacity="0.5" d="M174.177 188.074C174.177 188.074 169.967 195.39 136.121 190.011" stroke="#535461" stroke-width="2" stroke-miterlimit="10"/>
<path opacity="0.5" d="M139.815 213.667C139.815 213.667 160.473 203.207 151.08 198.072" stroke="#535461" stroke-width="2" stroke-miterlimit="10"/>
</g>
<path d="M22.978 103.468C18.2104 106.091 13.7479 109.722 17.2569 113.304C24.0078 120.335 48.9995 116.895 57.9149 123.442C60.5847 125.4 60.9471 127.792 60.3273 129.927C59.1259 134.104 54.6825 137.651 51.6121 141.468C48.5418 145.286 46.9494 149.902 51.2784 153.932C55.4453 157.834 64.2272 160.298 72.7326 161.279C81.2379 162.26 89.7624 162.038 98.2582 162.166C108.351 162.351 118.373 163.038 128.151 164.217C132.448 164.67 136.563 165.44 140.337 166.499C144.676 167.79 148.184 169.686 151.617 171.55L182.13 188.102C186.182 190.322 190.32 192.541 195.346 194.17C201.143 196.048 207.741 197.002 214.235 197.921C228.204 199.91 242.84 201.916 256.19 200.553C269.539 199.19 280.743 193.251 277.405 186.376C274.23 179.828 259.908 175.185 255.083 168.771C247.455 158.664 266.287 149.289 260.633 139.005C255.217 129.142 231.207 124.055 217.858 115.705C208.323 109.722 204.566 102.238 196.232 95.8729C184.199 86.6845 163.221 80.5989 142.339 78.2863C121.457 75.9737 100.451 77.0523 80.8661 79.3649C72.5705 80.3459 64.2749 81.5843 57.6956 84.0346C50.7063 86.6401 49.9053 90.5951 44.8135 93.7378C38.9113 97.3909 29.4047 99.9166 22.978 103.468Z" fill="#0AA8A7"/>
<path d="M38.9467 87.0311C38.9467 87.0311 210.674 146.225 268.457 197.704" stroke="#535461" stroke-width="2" stroke-miterlimit="10"/>
<path d="M8 114.355C8 114.355 87.4379 102.637 131 123" stroke="#535461" stroke-width="2" stroke-miterlimit="10"/>
<path d="M40.1511 156.025C40.1511 156.025 139.451 125.43 164.552 137.362" stroke="#535461" stroke-width="2" stroke-miterlimit="10"/>
<path d="M133.864 78.3759C133.864 78.3759 116.749 97.6151 137.912 125.581" stroke="#535461" stroke-width="2" stroke-miterlimit="10"/>
<path d="M259.418 139.481C259.418 139.481 246.453 152.22 186.646 147.764" stroke="#535461" stroke-width="2" stroke-miterlimit="10"/>
<path d="M177.223 186.664C177.223 186.664 223.245 166.498 209.176 159.173" stroke="#535461" stroke-width="2" stroke-miterlimit="10"/>
<path opacity="0.1" d="M625.464 342.165C885.391 342.165 1096.1 317.446 1096.1 286.953C1096.1 256.46 885.391 231.74 625.464 231.74C365.537 231.74 154.825 256.46 154.825 286.953C154.825 317.446 365.537 342.165 625.464 342.165Z" fill="#0AA8A7"/>
<path d="M991.874 10C991.874 10 955.621 24.2953 976.09 45.5089C996.559 66.7225 941 102 941 102C941 102 941.597 101.964 942.7 101.888C1017.16 96.7016 1054.16 63.1237 1012.76 38.1757C997.368 28.9035 984.73 18.0274 991.874 10Z" fill="#0AA8A7"/>
<path d="M991.642 10C991.642 10 971.267 27.523 991.642 41.8184C1012.02 56.1137 995.137 96.2348 941 102" stroke="#535461" stroke-width="2" stroke-miterlimit="10"/>
<path d="M1056.63 64.4442C1056.63 64.4442 1015.24 61.5576 1011.48 77.8039C1007.71 94.0502 931.906 96.3027 931.906 96.3027L933.323 96.715C995.913 114.713 1055.79 108.181 1046.68 84.2998C1043.37 75.3962 1043.64 66.4572 1056.63 64.4442Z" fill="#0AA8A7"/>
<path opacity="0.2" d="M1056.63 64.4442C1056.63 64.4442 1015.24 61.5576 1011.48 77.8039C1007.71 94.0502 931.906 96.3027 931.906 96.3027L933.323 96.715C995.913 114.713 1055.79 108.181 1046.68 84.2998C1043.37 75.3962 1043.64 66.4572 1056.63 64.4442Z" fill="#F5F5F5"/>
<path d="M1056.63 64.4442C1056.63 64.4442 1024.51 67.548 1027.15 80.3268C1029.79 93.1057 979.446 108.461 931.906 96.2893" stroke="#535461" stroke-width="2" stroke-miterlimit="10"/>
<path d="M249.692 124.064C249.692 124.064 236.271 104.111 252.212 89.4166C258.985 83.2742 261.027 76.335 258.032 69.6408C256.554 66.4684 254.416 63.362 251.645 60.3604" stroke="#535461" stroke-width="2" stroke-miterlimit="10"/>
<path d="M261.544 51.0711C261.544 53.5187 251.423 60.6087 251.423 60.6087C251.423 60.6087 241.301 53.5143 241.301 51.0711C241.301 49.8952 242.368 48.7673 244.266 47.9358C246.164 47.1043 248.738 46.6371 251.423 46.6371C254.107 46.6371 256.681 47.1043 258.579 47.9358C260.477 48.7673 261.544 49.8952 261.544 51.0711Z" fill="#0AA8A7"/>
<path d="M278.264 64.6215C275.228 66.6745 257.941 70.2217 257.941 70.2217C257.941 70.2217 258.254 61.8591 261.291 59.8062C261.981 59.2889 262.904 58.8383 264.003 58.4816C265.102 58.1249 266.355 57.8695 267.686 57.7308C269.017 57.5922 270.398 57.5732 271.746 57.6749C273.094 57.7766 274.381 57.997 275.529 58.3228C276.677 58.6485 277.663 59.0728 278.426 59.5701C279.19 60.0674 279.715 60.6273 279.971 61.216C280.226 61.8047 280.207 62.41 279.914 62.9953C279.62 63.5806 279.059 64.1339 278.264 64.6215Z" fill="#0AA8A7"/>
<path d="M277.535 87.776C272.546 88.8757 253.538 88.1174 253.538 88.1174C253.538 88.1174 263.447 80.9698 268.426 79.8701C269.618 79.578 270.933 79.3946 272.29 79.3309C273.648 79.2672 275.022 79.3245 276.328 79.4995C277.634 79.6744 278.845 79.9633 279.89 80.3488C280.934 80.7343 281.789 81.2084 282.405 81.7426C283.02 82.2767 283.382 82.8599 283.469 83.457C283.556 84.054 283.366 84.6526 282.911 85.2168C282.456 85.7809 281.746 86.2988 280.822 86.7394C279.898 87.18 278.78 87.5341 277.535 87.7805V87.776Z" fill="#0AA8A7"/>
<path d="M267.981 105.237C263.487 106.692 244.459 107.348 244.459 107.348C244.459 107.348 251.463 99.5705 255.957 98.1162C257.018 97.7361 258.244 97.4544 259.561 97.2881C260.878 97.1219 262.258 97.0745 263.618 97.1489C264.978 97.2233 266.289 97.4179 267.472 97.7209C268.655 98.024 269.686 98.4291 270.501 98.9118C271.316 99.3945 271.899 99.9447 272.214 100.529C272.529 101.113 272.57 101.72 272.334 102.311C272.099 102.903 271.591 103.467 270.843 103.97C270.095 104.473 269.121 104.904 267.981 105.237Z" fill="#0AA8A7"/>
<path d="M236.716 70.6961C240.765 72.3988 259.378 74.168 259.378 74.168C259.378 74.168 254.813 66.0493 250.805 64.3466C249.869 63.9089 248.74 63.5589 247.486 63.3179C246.232 63.0769 244.88 62.9499 243.51 62.9445C242.141 62.939 240.784 63.0554 239.52 63.2865C238.257 63.5176 237.113 63.8585 236.159 64.2888C235.205 64.7191 234.46 65.2297 233.97 65.7897C233.479 66.3497 233.253 66.9475 233.305 67.5469C233.357 68.1463 233.687 68.7349 234.273 69.2769C234.859 69.819 235.69 70.3033 236.716 70.7006V70.6961Z" fill="#0AA8A7"/>
<path d="M226.119 91.1814C231.109 92.281 250.117 91.5228 250.117 91.5228C250.117 91.5228 240.208 84.3751 235.228 83.2755C232.851 82.8048 230.15 82.7547 227.69 83.1354C225.229 83.5162 223.2 84.2985 222.025 85.3191C220.849 86.3396 220.619 87.5196 221.382 88.6127C222.145 89.7059 223.842 90.6277 226.119 91.1858V91.1814Z" fill="#0AA8A7"/>
<path d="M222.071 111.711C226.565 113.165 245.593 113.822 245.593 113.822C245.593 113.822 238.589 106.044 234.095 104.59C231.933 103.958 229.298 103.715 226.738 103.91C224.177 104.106 221.887 104.726 220.341 105.641C218.795 106.557 218.112 107.698 218.434 108.828C218.757 109.958 220.059 110.99 222.071 111.711Z" fill="#0AA8A7"/>
<path d="M1085.42 240.103H999.293C1001.29 238.358 1002.33 236.435 1002.33 234.485V62.675C1002.32 59.3262 999.284 56.1153 993.877 53.7481C988.47 51.381 981.138 50.0513 973.494 50.0513H306.836C299.189 50.0513 291.854 51.3822 286.447 53.7513C281.039 56.1203 278.001 59.3335 278.001 62.6839V234.485C278.005 236.435 279.044 238.358 281.037 240.103H191.869C189.848 240.103 187.909 240.454 186.48 241.081C185.051 241.707 184.248 242.556 184.248 243.441V246.133C184.248 251.088 188.741 255.841 196.74 259.345C204.738 262.849 215.587 264.818 226.899 264.818H1050.45C1061.76 264.818 1072.61 262.849 1080.61 259.345C1088.6 255.841 1093.1 251.088 1093.1 246.133V243.441C1093.1 243.001 1092.9 242.564 1092.51 242.158C1092.12 241.751 1091.56 241.381 1090.84 241.071C1090.13 240.761 1089.28 240.515 1088.35 240.349C1087.42 240.183 1086.42 240.099 1085.42 240.103ZM554.767 250.789L547.379 247.113H730.685L722.507 250.789H554.767Z" fill="url(#paint0_linear)"/>
<path d="M970.549 52.4767H309.711C296.709 52.4767 286.169 57.0942 286.169 62.7903V234.773C286.169 240.469 296.709 245.086 309.711 245.086H970.549C983.551 245.086 994.091 240.469 994.091 234.773V62.7903C994.091 57.0942 983.551 52.4767 970.549 52.4767Z" fill="#535461"/>
<path d="M977.705 80.553H301.077V237.903H977.705V80.553Z" fill="#F1F1F4"/>
<path d="M639.391 69.4502C642.683 69.4502 645.353 68.2809 645.353 66.8385C645.353 65.3962 642.683 64.2269 639.391 64.2269C636.099 64.2269 633.43 65.3962 633.43 66.8385C633.43 68.2809 636.099 69.4502 639.391 69.4502Z" fill="white"/>
<path d="M743.863 238.227L720.584 248.674H556.619L535.608 238.227H201.96C199.984 238.227 198.089 238.571 196.692 239.183C195.295 239.795 194.511 240.625 194.511 241.49V244.124C194.511 246.524 195.59 248.9 197.688 251.117C199.786 253.334 202.86 255.348 206.736 257.043C210.612 258.739 215.212 260.084 220.275 261C225.338 261.916 230.763 262.387 236.241 262.384H1041.08C1052.14 262.384 1062.74 260.46 1070.56 257.036C1078.37 253.611 1082.76 248.967 1082.76 244.124V241.49C1082.76 240.625 1081.98 239.795 1080.58 239.183C1079.18 238.571 1077.29 238.227 1075.31 238.227H743.863Z" fill="#535461"/>
<path d="M527.389 92.5426H342.403V153.617H527.389V92.5426Z" fill="white"/>
<path opacity="0.2" d="M422.158 97.828H360.499V113.094H422.158V97.828Z" fill="#0AA8A7"/>
<path d="M509.292 97.828H436.905V101.353H509.292V97.828Z" fill="#E6E8EC"/>
<path d="M487.845 103.699H436.905V107.224H487.845V103.699Z" fill="#E6E8EC"/>
<path d="M509.292 109.569H436.905V113.094H509.292V109.569Z" fill="#E6E8EC"/>
<path d="M509.292 115.444H360.499V118.969H509.292V115.444Z" fill="#E6E8EC"/>
<path d="M509.292 121.315H360.499V124.84H509.292V121.315Z" fill="#E6E8EC"/>
<path d="M509.292 127.19H360.499V130.715H509.292V127.19Z" fill="#E6E8EC"/>
<path d="M497.228 133.061H360.499V136.586H497.228V133.061Z" fill="#E6E8EC"/>
<path d="M509.292 138.931H360.499V142.456H509.292V138.931Z" fill="#E6E8EC"/>
<path d="M509.292 144.806H360.499V148.332H509.292V144.806Z" fill="#E6E8EC"/>
<path d="M731.14 92.5426H546.154V153.617H731.14V92.5426Z" fill="white"/>
<path opacity="0.2" d="M625.899 97.828H564.241V113.094H625.899V97.828Z" fill="#0AA8A7"/>
<path d="M713.044 97.828H640.656V101.353H713.044V97.828Z" fill="#E6E8EC"/>
<path d="M691.597 103.699H640.656V107.224H691.597V103.699Z" fill="#E6E8EC"/>
<path d="M713.044 109.569H640.656V113.094H713.044V109.569Z" fill="#E6E8EC"/>
<path d="M713.034 115.444H564.241V118.969H713.034V115.444Z" fill="#E6E8EC"/>
<path d="M713.034 121.315H564.241V124.84H713.034V121.315Z" fill="#E6E8EC"/>
<path d="M713.034 127.19H564.241V130.715H713.034V127.19Z" fill="#E6E8EC"/>
<path d="M700.969 133.061H564.241V136.586H700.969V133.061Z" fill="#E6E8EC"/>
<path d="M713.034 138.931H564.241V142.456H713.034V138.931Z" fill="#E6E8EC"/>
<path d="M713.034 144.806H564.241V148.332H713.034V144.806Z" fill="#E6E8EC"/>
<path d="M934.882 92.5426H749.895V153.617H934.882V92.5426Z" fill="white"/>
<path opacity="0.2" d="M829.651 97.828H767.992V113.094H829.651V97.828Z" fill="#0AA8A7"/>
<path d="M916.785 97.828H844.398V101.353H916.785V97.828Z" fill="#E6E8EC"/>
<path d="M895.338 103.699H844.398V107.224H895.338V103.699Z" fill="#E6E8EC"/>
<path d="M916.785 109.569H844.398V113.094H916.785V109.569Z" fill="#E6E8EC"/>
<path d="M916.785 115.444H767.992V118.969H916.785V115.444Z" fill="#E6E8EC"/>
<path d="M916.785 121.315H767.992V124.84H916.785V121.315Z" fill="#E6E8EC"/>
<path d="M916.785 127.19H767.992V130.715H916.785V127.19Z" fill="#E6E8EC"/>
<path d="M904.72 133.061H767.992V136.586H904.72V133.061Z" fill="#E6E8EC"/>
<path d="M916.785 138.931H767.992V142.456H916.785V138.931Z" fill="#E6E8EC"/>
<path d="M916.785 144.806H767.992V148.332H916.785V144.806Z" fill="#E6E8EC"/>
<path d="M527.389 161.248H342.403V222.322H527.389V161.248Z" fill="white"/>
<path opacity="0.2" d="M422.158 166.533H360.499V181.8H422.158V166.533Z" fill="#0AA8A7"/>
<path d="M509.292 166.533H436.905V170.058H509.292V166.533Z" fill="#E6E8EC"/>
<path d="M487.845 172.408H436.905V175.933H487.845V172.408Z" fill="#E6E8EC"/>
<path d="M509.292 178.279H436.905V181.804H509.292V178.279Z" fill="#E6E8EC"/>
<path d="M509.292 184.15H360.499V187.675H509.292V184.15Z" fill="#E6E8EC"/>
<path d="M509.292 190.025H360.499V193.55H509.292V190.025Z" fill="#E6E8EC"/>
<path d="M509.292 195.895H360.499V199.42H509.292V195.895Z" fill="#E6E8EC"/>
<path d="M497.228 201.77H360.499V205.296H497.228V201.77Z" fill="#E6E8EC"/>
<path d="M509.292 207.641H360.499V211.166H509.292V207.641Z" fill="#E6E8EC"/>
<path d="M509.292 213.512H360.499V217.037H509.292V213.512Z" fill="#E6E8EC"/>
<path d="M731.14 161.248H546.154V222.322H731.14V161.248Z" fill="white"/>
<path opacity="0.2" d="M625.899 166.533H564.241V181.8H625.899V166.533Z" fill="#0AA8A7"/>
<path d="M713.044 166.533H640.656V170.058H713.044V166.533Z" fill="#E6E8EC"/>
<path d="M691.597 172.408H640.656V175.933H691.597V172.408Z" fill="#E6E8EC"/>
<path d="M713.044 178.279H640.656V181.804H713.044V178.279Z" fill="#E6E8EC"/>
<path d="M713.034 184.15H564.241V187.675H713.034V184.15Z" fill="#E6E8EC"/>
<path d="M713.034 190.025H564.241V193.55H713.034V190.025Z" fill="#E6E8EC"/>
<path d="M713.034 195.895H564.241V199.42H713.034V195.895Z" fill="#E6E8EC"/>
<path d="M700.969 201.77H564.241V205.296H700.969V201.77Z" fill="#E6E8EC"/>
<path d="M713.034 207.641H564.241V211.166H713.034V207.641Z" fill="#E6E8EC"/>
<path d="M713.034 213.512H564.241V217.037H713.034V213.512Z" fill="#E6E8EC"/>
<path opacity="0.1" d="M934.882 161.248H749.895V222.322H934.882V161.248Z" fill="#F68080"/>
<path d="M447.431 113.094H162.011C158.575 113.091 155.17 113.385 151.993 113.959C148.816 114.533 145.929 115.376 143.496 116.439C141.063 117.503 139.133 118.766 137.815 120.156C136.498 121.547 135.819 123.037 135.817 124.543V297.798C135.821 299.303 136.502 300.792 137.82 302.181C139.138 303.57 141.068 304.832 143.5 305.894C145.931 306.957 148.817 307.799 151.991 308.373C155.166 308.946 158.567 309.24 162.001 309.238H447.421C450.855 309.24 454.256 308.946 457.431 308.373C460.605 307.799 463.491 306.957 465.922 305.894C468.354 304.832 470.284 303.57 471.602 302.181C472.92 300.792 473.601 299.303 473.605 297.798V124.543C473.603 123.038 472.925 121.548 471.609 120.158C470.293 118.768 468.364 117.506 465.933 116.443C463.502 115.379 460.617 114.536 457.443 113.962C454.268 113.387 450.866 113.093 447.431 113.094Z" fill="url(#paint1_linear)"/>
<path d="M449.354 115.444H160.088C148.909 115.444 139.846 119.415 139.846 124.312V298.605C139.846 303.503 148.909 307.473 160.088 307.473H449.354C460.534 307.473 469.597 303.503 469.597 298.605V124.312C469.597 119.415 460.534 115.444 449.354 115.444Z" fill="#535461"/>
<path d="M452.836 133.611H156.596V289.311H452.836V133.611Z" fill="#F1F1F4"/>
<path d="M303.375 126.015C305.594 126.015 307.393 125.227 307.393 124.255C307.393 123.283 305.594 122.494 303.375 122.494C301.156 122.494 299.357 123.283 299.357 124.255C299.357 125.227 301.156 126.015 303.375 126.015Z" fill="white"/>
<path d="M303.375 303.363C310.038 303.363 315.44 300.997 315.44 298.078C315.44 295.159 310.038 292.792 303.375 292.792C296.712 292.792 291.31 295.159 291.31 298.078C291.31 300.997 296.712 303.363 303.375 303.363Z" fill="white"/>
<path d="M253.892 149.52H169.4V177.419H253.892V149.52Z" fill="white"/>
<path opacity="0.2" d="M205.836 151.936H177.669V158.911H205.836V151.936Z" fill="#0AA8A7"/>
<path d="M245.633 151.936H212.567V153.546H245.633V151.936Z" fill="#E6E8EC"/>
<path d="M235.836 154.619H212.567V156.229H235.836V154.619Z" fill="#E6E8EC"/>
<path d="M245.633 157.302H212.567V158.911H245.633V157.302Z" fill="#E6E8EC"/>
<path d="M245.633 159.984H177.669V161.594H245.633V159.984Z" fill="#E6E8EC"/>
<path d="M245.633 162.667H177.669V164.276H245.633V162.667Z" fill="#E6E8EC"/>
<path d="M245.633 165.349H177.669V166.959H245.633V165.349Z" fill="#E6E8EC"/>
<path d="M240.127 168.032H177.669V169.641H240.127V168.032Z" fill="#E6E8EC"/>
<path d="M245.633 170.715H177.669V172.324H245.633V170.715Z" fill="#E6E8EC"/>
<path d="M245.633 173.397H177.669V175.007H245.633V173.397Z" fill="#E6E8EC"/>
<path d="M346.967 149.52H262.475V177.419H346.967V149.52Z" fill="white"/>
<path opacity="0.2" d="M298.901 151.936H270.734V158.911H298.901V151.936Z" fill="#0AA8A7"/>
<path d="M338.708 151.936H305.642V153.546H338.708V151.936Z" fill="#E6E8EC"/>
<path d="M328.911 154.619H305.642V156.229H328.911V154.619Z" fill="#E6E8EC"/>
<path d="M338.708 157.302H305.642V158.911H338.708V157.302Z" fill="#E6E8EC"/>
<path d="M338.698 159.984H270.734V161.594H338.698V159.984Z" fill="#E6E8EC"/>
<path d="M338.698 162.667H270.734V164.276H338.698V162.667Z" fill="#E6E8EC"/>
<path d="M338.698 165.349H270.734V166.959H338.698V165.349Z" fill="#E6E8EC"/>
<path d="M333.192 168.032H270.734V169.641H333.192V168.032Z" fill="#E6E8EC"/>
<path d="M338.698 170.715H270.734V172.324H338.698V170.715Z" fill="#E6E8EC"/>
<path d="M338.698 173.397H270.734V175.007H338.698V173.397Z" fill="#E6E8EC"/>
<path d="M440.032 149.52H355.54V177.419H440.032V149.52Z" fill="white"/>
<path opacity="0.2" d="M391.977 151.936H363.809V158.911H391.977V151.936Z" fill="#0AA8A7"/>
<path d="M431.773 151.936H398.707V153.546H431.773V151.936Z" fill="#E6E8EC"/>
<path d="M421.976 154.619H398.707V156.229H421.976V154.619Z" fill="#E6E8EC"/>
<path d="M431.773 157.302H398.707V158.911H431.773V157.302Z" fill="#E6E8EC"/>
<path d="M431.773 159.984H363.809V161.594H431.773V159.984Z" fill="#E6E8EC"/>
<path d="M431.773 162.667H363.809V164.276H431.773V162.667Z" fill="#E6E8EC"/>
<path d="M431.773 165.349H363.809V166.959H431.773V165.349Z" fill="#E6E8EC"/>
<path d="M426.267 168.032H363.809V169.641H426.267V168.032Z" fill="#E6E8EC"/>
<path d="M431.773 170.715H363.809V172.324H431.773V170.715Z" fill="#E6E8EC"/>
<path d="M431.773 173.397H363.809V175.007H431.773V173.397Z" fill="#E6E8EC"/>
<path d="M253.892 180.904H169.4V208.803H253.892V180.904Z" fill="white"/>
<path opacity="0.2" d="M205.836 183.32H177.669V190.295H205.836V183.32Z" fill="#0AA8A7"/>
<path d="M245.633 183.32H212.567V184.93H245.633V183.32Z" fill="#E6E8EC"/>
<path d="M235.836 186.003H212.567V187.613H235.836V186.003Z" fill="#E6E8EC"/>
<path d="M245.633 188.686H212.567V190.295H245.633V188.686Z" fill="#E6E8EC"/>
<path d="M245.633 191.368H177.669V192.978H245.633V191.368Z" fill="#E6E8EC"/>
<path d="M245.633 194.051H177.669V195.66H245.633V194.051Z" fill="#E6E8EC"/>
<path d="M245.633 196.733H177.669V198.343H245.633V196.733Z" fill="#E6E8EC"/>
<path d="M240.127 199.416H177.669V201.026H240.127V199.416Z" fill="#E6E8EC"/>
<path d="M245.633 202.099H177.669V203.708H245.633V202.099Z" fill="#E6E8EC"/>
<path d="M245.633 204.781H177.669V206.391H245.633V204.781Z" fill="#E6E8EC"/>
<path d="M346.967 180.904H262.475V208.803H346.967V180.904Z" fill="white"/>
<path opacity="0.2" d="M298.901 183.32H270.734V190.295H298.901V183.32Z" fill="#0AA8A7"/>
<path d="M338.708 183.32H305.642V184.93H338.708V183.32Z" fill="#E6E8EC"/>
<path d="M328.911 186.003H305.642V187.613H328.911V186.003Z" fill="#E6E8EC"/>
<path d="M338.708 188.686H305.642V190.295H338.708V188.686Z" fill="#E6E8EC"/>
<path d="M338.698 191.368H270.734V192.978H338.698V191.368Z" fill="#E6E8EC"/>
<path d="M338.698 194.051H270.734V195.66H338.698V194.051Z" fill="#E6E8EC"/>
<path d="M338.698 196.733H270.734V198.343H338.698V196.733Z" fill="#E6E8EC"/>
<path d="M333.192 199.416H270.734V201.026H333.192V199.416Z" fill="#E6E8EC"/>
<path d="M338.698 202.099H270.734V203.708H338.698V202.099Z" fill="#E6E8EC"/>
<path d="M338.698 204.781H270.734V206.391H338.698V204.781Z" fill="#E6E8EC"/>
<path d="M440.032 180.904H355.54V208.803H440.032V180.904Z" fill="white"/>
<path opacity="0.2" d="M391.977 183.32H363.809V190.295H391.977V183.32Z" fill="#0AA8A7"/>
<path d="M431.773 183.32H398.707V184.93H431.773V183.32Z" fill="#E6E8EC"/>
<path d="M421.976 186.003H398.707V187.613H421.976V186.003Z" fill="#E6E8EC"/>
<path d="M431.773 188.686H398.707V190.295H431.773V188.686Z" fill="#E6E8EC"/>
<path d="M431.773 191.368H363.809V192.978H431.773V191.368Z" fill="#E6E8EC"/>
<path d="M431.773 194.051H363.809V195.66H431.773V194.051Z" fill="#E6E8EC"/>
<path d="M431.773 196.733H363.809V198.343H431.773V196.733Z" fill="#E6E8EC"/>
<path d="M426.267 199.416H363.809V201.026H426.267V199.416Z" fill="#E6E8EC"/>
<path d="M431.773 202.099H363.809V203.708H431.773V202.099Z" fill="#E6E8EC"/>
<path d="M431.773 204.781H363.809V206.391H431.773V204.781Z" fill="#E6E8EC"/>
<path d="M253.892 213.529H169.4V241.428H253.892V213.529Z" fill="white"/>
<path opacity="0.2" d="M205.836 215.946H177.669V222.921H205.836V215.946Z" fill="#0AA8A7"/>
<path d="M245.633 215.946H212.567V217.556H245.633V215.946Z" fill="#E6E8EC"/>
<path d="M235.836 218.629H212.567V220.238H235.836V218.629Z" fill="#E6E8EC"/>
<path d="M245.633 221.311H212.567V222.921H245.633V221.311Z" fill="#E6E8EC"/>
<path d="M245.633 223.994H177.669V225.603H245.633V223.994Z" fill="#E6E8EC"/>
<path d="M245.633 226.676H177.669V228.286H245.633V226.676Z" fill="#E6E8EC"/>
<path d="M245.633 229.359H177.669V230.969H245.633V229.359Z" fill="#E6E8EC"/>
<path d="M240.127 232.042H177.669V233.651H240.127V232.042Z" fill="#E6E8EC"/>
<path d="M245.633 234.724H177.669V236.334H245.633V234.724Z" fill="#E6E8EC"/>
<path d="M245.633 237.407H177.669V239.016H245.633V237.407Z" fill="#E6E8EC"/>
<path d="M346.967 213.529H262.475V241.428H346.967V213.529Z" fill="white"/>
<path opacity="0.2" d="M298.901 215.946H270.734V222.921H298.901V215.946Z" fill="#0AA8A7"/>
<path d="M338.708 215.946H305.642V217.556H338.708V215.946Z" fill="#E6E8EC"/>
<path d="M328.911 218.629H305.642V220.238H328.911V218.629Z" fill="#E6E8EC"/>
<path d="M338.708 221.311H305.642V222.921H338.708V221.311Z" fill="#E6E8EC"/>
<path d="M338.698 223.994H270.734V225.603H338.698V223.994Z" fill="#E6E8EC"/>
<path d="M338.698 226.676H270.734V228.286H338.698V226.676Z" fill="#E6E8EC"/>
<path d="M338.698 229.359H270.734V230.969H338.698V229.359Z" fill="#E6E8EC"/>
<path d="M333.192 232.042H270.734V233.651H333.192V232.042Z" fill="#E6E8EC"/>
<path d="M338.698 234.724H270.734V236.334H338.698V234.724Z" fill="#E6E8EC"/>
<path d="M338.698 237.407H270.734V239.016H338.698V237.407Z" fill="#E6E8EC"/>
<path d="M440.032 213.529H355.54V241.428H440.032V213.529Z" fill="white"/>
<path opacity="0.2" d="M391.977 215.946H363.809V222.921H391.977V215.946Z" fill="#0AA8A7"/>
<path d="M431.773 215.946H398.707V217.556H431.773V215.946Z" fill="#E6E8EC"/>
<path d="M421.976 218.629H398.707V220.238H421.976V218.629Z" fill="#E6E8EC"/>
<path d="M431.773 221.311H398.707V222.921H431.773V221.311Z" fill="#E6E8EC"/>
<path d="M431.773 223.994H363.809V225.603H431.773V223.994Z" fill="#E6E8EC"/>
<path d="M431.773 226.676H363.809V228.286H431.773V226.676Z" fill="#E6E8EC"/>
<path d="M431.773 229.359H363.809V230.969H431.773V229.359Z" fill="#E6E8EC"/>
<path d="M426.267 232.042H363.809V233.651H426.267V232.042Z" fill="#E6E8EC"/>
<path d="M431.773 234.724H363.809V236.334H431.773V234.724Z" fill="#E6E8EC"/>
<path d="M431.773 237.407H363.809V239.016H431.773V237.407Z" fill="#E6E8EC"/>
<path d="M253.892 244.914H169.4V272.812H253.892V244.914Z" fill="white"/>
<path opacity="0.2" d="M205.836 247.33H177.669V254.305H205.836V247.33Z" fill="#0AA8A7"/>
<path d="M245.633 247.33H212.567V248.94H245.633V247.33Z" fill="#E6E8EC"/>
<path d="M235.836 250.013H212.567V251.622H235.836V250.013Z" fill="#E6E8EC"/>
<path d="M245.633 252.695H212.567V254.305H245.633V252.695Z" fill="#E6E8EC"/>
<path d="M245.633 255.378H177.669V256.987H245.633V255.378Z" fill="#E6E8EC"/>
<path d="M245.633 258.06H177.669V259.67H245.633V258.06Z" fill="#E6E8EC"/>
<path d="M245.633 260.743H177.669V262.353H245.633V260.743Z" fill="#E6E8EC"/>
<path d="M240.127 263.426H177.669V265.035H240.127V263.426Z" fill="#E6E8EC"/>
<path d="M245.633 266.108H177.669V267.718H245.633V266.108Z" fill="#E6E8EC"/>
<path d="M245.633 268.791H177.669V270.4H245.633V268.791Z" fill="#E6E8EC"/>
<path d="M346.967 244.914H262.475V272.812H346.967V244.914Z" fill="white"/>
<path opacity="0.2" d="M298.901 247.33H270.734V254.305H298.901V247.33Z" fill="#0AA8A7"/>
<path d="M338.708 247.33H305.642V248.94H338.708V247.33Z" fill="#E6E8EC"/>
<path d="M328.911 250.013H305.642V251.622H328.911V250.013Z" fill="#E6E8EC"/>
<path d="M338.708 252.695H305.642V254.305H338.708V252.695Z" fill="#E6E8EC"/>
<path d="M338.698 255.378H270.734V256.987H338.698V255.378Z" fill="#E6E8EC"/>
<path d="M338.698 258.06H270.734V259.67H338.698V258.06Z" fill="#E6E8EC"/>
<path d="M338.698 260.743H270.734V262.353H338.698V260.743Z" fill="#E6E8EC"/>
<path d="M333.192 263.426H270.734V265.035H333.192V263.426Z" fill="#E6E8EC"/>
<path d="M338.698 266.108H270.734V267.718H338.698V266.108Z" fill="#E6E8EC"/>
<path d="M338.698 268.791H270.734V270.4H338.698V268.791Z" fill="#E6E8EC"/>
<path opacity="0.1" d="M440.032 244.914H355.54V272.812H440.032V244.914Z" fill="black"/>
<path d="M229.874 171.819H83.3183C81.415 171.817 79.5295 171.979 77.7695 172.297C76.0095 172.614 74.4095 173.081 73.0608 173.669C71.7122 174.257 70.6412 174.956 69.9092 175.726C69.1771 176.496 68.7983 177.321 68.7943 178.155V318.753C68.7983 319.587 69.1771 320.413 69.9092 321.182C70.6412 321.952 71.7122 322.651 73.0608 323.239C74.4095 323.828 76.0095 324.294 77.7695 324.611C79.5295 324.929 81.415 325.091 83.3183 325.09H229.874C231.778 325.091 233.663 324.929 235.423 324.611C237.183 324.294 238.783 323.828 240.132 323.239C241.48 322.651 242.551 321.952 243.284 321.182C244.016 320.413 244.394 319.587 244.398 318.753V178.159C244.396 177.325 244.018 176.499 243.286 175.729C242.555 174.959 241.484 174.259 240.135 173.67C238.787 173.082 237.186 172.615 235.425 172.297C233.665 171.98 231.779 171.817 229.874 171.819Z" fill="url(#paint2_linear)"/>
<path d="M231.929 172.998H81.2738C75.125 172.998 70.1404 175.182 70.1404 177.875V319.631C70.1404 322.325 75.125 324.509 81.2738 324.509H231.929C238.078 324.509 243.062 322.325 243.062 319.631V177.875C243.062 175.182 238.078 172.998 231.929 172.998Z" fill="#535461"/>
<path d="M230.32 187.089H82.873V310.409H230.32V187.089Z" fill="#F1F1F4"/>
<path d="M139.167 180.629C139.905 180.629 140.504 180.367 140.504 180.044C140.504 179.72 139.905 179.458 139.167 179.458C138.43 179.458 137.831 179.72 137.831 180.044C137.831 180.367 138.43 180.629 139.167 180.629Z" fill="white"/>
<path d="M174.359 179.454H146.89C146.331 179.454 145.878 179.653 145.878 179.897V180.186C145.878 180.43 146.331 180.629 146.89 180.629H174.359C174.918 180.629 175.371 180.43 175.371 180.186V179.897C175.371 179.653 174.918 179.454 174.359 179.454Z" fill="white"/>
<path d="M155.928 320.394C161.11 320.394 165.311 318.554 165.311 316.284C165.311 314.014 161.11 312.173 155.928 312.173C150.747 312.173 146.546 314.014 146.546 316.284C146.546 318.554 150.747 320.394 155.928 320.394Z" fill="white"/>
<path opacity="0.1" d="M206.869 194.472H106.324V227.67H206.869V194.472Z" fill="black"/>
<path d="M206.869 231.82H106.324V265.017H206.869V231.82Z" fill="white"/>
<path opacity="0.2" d="M149.673 234.693H116.162V242.994H149.673V234.693Z" fill="#0AA8A7"/>
<path d="M197.031 234.693H157.689V236.609H197.031V234.693Z" fill="#E6E8EC"/>
<path d="M185.381 237.886H157.689V239.801H185.381V237.886Z" fill="#E6E8EC"/>
<path d="M197.031 241.074H157.689V242.989H197.031V241.074Z" fill="#E6E8EC"/>
<path d="M197.041 244.266H116.162V246.182H197.041V244.266Z" fill="#E6E8EC"/>
<path d="M197.041 247.459H116.162V249.374H197.041V247.459Z" fill="#E6E8EC"/>
<path d="M197.041 250.651H116.162V252.567H197.041V250.651Z" fill="#E6E8EC"/>
<path d="M190.482 253.844H116.162V255.759H190.482V253.844Z" fill="#E6E8EC"/>
<path d="M197.041 257.036H116.162V258.952H197.041V257.036Z" fill="#E6E8EC"/>
<path d="M197.041 260.229H116.162V262.144H197.041V260.229Z" fill="#E6E8EC"/>
<path d="M206.869 269.243H106.324V302.441H206.869V269.243Z" fill="white"/>
<path opacity="0.2" d="M149.673 272.116H116.162V280.417H149.673V272.116Z" fill="#0AA8A7"/>
<path d="M197.031 272.116H157.689V274.032H197.031V272.116Z" fill="#E6E8EC"/>
<path d="M185.381 275.309H157.689V277.224H185.381V275.309Z" fill="#E6E8EC"/>
<path d="M197.031 278.501H157.689V280.417H197.031V278.501Z" fill="#E6E8EC"/>
<path d="M197.041 281.694H116.162V283.609H197.041V281.694Z" fill="#E6E8EC"/>
<path d="M197.041 284.886H116.162V286.802H197.041V284.886Z" fill="#E6E8EC"/>
<path d="M197.041 288.079H116.162V289.994H197.041V288.079Z" fill="#E6E8EC"/>
<path d="M190.482 291.271H116.162V293.187H190.482V291.271Z" fill="#E6E8EC"/>
<path d="M197.041 294.459H116.162V296.375H197.041V294.459Z" fill="#E6E8EC"/>
<path d="M197.041 297.652H116.162V299.567H197.041V297.652Z" fill="#E6E8EC"/>
<path d="M550.253 284.926C543.452 281.312 535.213 277.158 536.367 272.347C537.298 268.449 535.061 264.849 535.506 260.943C536.134 255.391 533.573 251.041 524.444 247.481C519.11 245.401 510.193 243.765 507.541 244.182C502.278 245.007 496.539 244.692 491.125 245.246C487.015 245.69 484.272 246.315 482.582 247.126C479.171 248.456 479.111 250.345 480.669 252.363C479.308 253.452 478.487 254.656 478.258 255.894C478.03 257.132 478.399 258.377 479.343 259.548C480.286 260.72 481.783 261.791 483.734 262.692C485.686 263.593 488.049 264.304 490.669 264.778C486.874 265.47 483.584 267.07 482.319 270.316C481.419 272.546 480.064 274.737 478.271 276.861C477.467 277.028 476.642 277.176 475.801 277.304C475.983 277.335 476.175 277.357 476.368 277.388C475.973 277.455 475.568 277.521 475.173 277.583C475.902 277.707 476.653 277.802 477.42 277.867C474.659 281.007 470.949 283.97 466.388 286.678C466.388 286.678 454.931 287.786 450.478 285.848C450.478 285.848 451.206 286.221 452.188 286.78C447.826 285.986 440.68 284.696 434.567 283.631C430.134 282.86 428.99 283.631 429.051 284.705C427.961 284.76 426.908 284.911 425.954 285.148C424.643 284.779 423.27 284.456 421.844 284.181C419.294 283.906 411.025 281.964 402.746 288.615C397.928 292.486 385.539 299.545 376.076 304.773C357.605 308.493 333.567 313.198 324.64 314.39H318.931C318.182 313.854 317.656 313.503 317.656 313.503L317.211 313.632L317.018 313.503C317.018 313.503 305.774 316.913 294.357 316.94C292.732 316.928 291.116 316.836 289.539 316.665C284.286 316.084 280.592 315.827 277.95 315.849C274.823 315.827 273.052 316.151 271.948 316.762C271.805 316.843 271.673 316.927 271.554 317.015C271.431 317.106 271.32 317.199 271.22 317.295C271.118 317.392 271.027 317.494 270.936 317.601C270.901 317.694 270.915 317.789 270.976 317.88C271.038 317.971 271.145 318.054 271.291 318.124C271.443 318.22 271.608 318.312 271.786 318.399L272.1 318.549C274.362 319.472 276.811 320.301 279.418 321.028C280.359 321.307 281.351 321.591 282.394 321.884L284.367 322.434L286.128 322.917L286.837 323.108L287.626 323.32L289.033 323.697L289.873 323.919L291.452 324.331L292.727 324.664C296.067 325.551 299.407 326.367 302.403 327.107L304.509 327.626L304.711 327.675L306.057 328.003L308.395 328.57L310.004 328.956L310.753 329.138L311.563 329.329L311.725 329.368L313.122 329.701C313.409 329.722 313.704 329.715 313.985 329.681C314.266 329.648 314.528 329.588 314.751 329.506C315.156 328.752 316.148 327.138 317.201 327.014C318.253 326.89 322.848 323.36 324.154 321.01H336.573C339.014 320.92 341.438 320.759 343.83 320.527C340.621 321.529 337.443 322.159 334.974 321.888C329.751 321.321 324.802 322.713 324.306 324.105L324.245 324.189C324.245 324.216 324.245 324.247 324.245 324.274C324.245 324.3 324.245 324.34 324.245 324.376C324.245 324.411 324.245 324.433 324.245 324.46C324.245 324.487 324.245 324.526 324.245 324.562C324.245 324.597 324.245 324.62 324.245 324.646C324.245 324.673 324.245 324.717 324.245 324.748C324.245 324.779 324.245 324.801 324.245 324.828C324.245 324.855 324.245 324.903 324.306 324.939C324.367 324.974 324.306 324.988 324.306 325.01C324.343 325.058 324.387 325.106 324.437 325.152V325.187C324.506 325.246 324.584 325.302 324.67 325.356L324.771 325.413L324.974 325.524L325.115 325.586L325.348 325.684L325.52 325.746L325.794 325.834L325.996 325.892L326.33 325.976L326.553 326.03L326.968 326.114L327.18 326.154C327.403 326.194 327.636 326.234 327.889 326.269C328.142 326.305 328.759 326.384 329.296 326.442L329.832 326.5L330.611 326.579L331.026 326.619L332.727 326.77L333.557 326.837L334.235 326.89L335.793 327.01L338.83 327.227L341.512 327.404L345.004 327.621L345.773 327.666L347.028 327.741L348.83 327.848L350.064 327.918L353.253 328.096L354.265 328.149L356.289 328.255C358.931 328.393 361.491 328.526 363.839 328.641L366.562 328.774L367.939 328.841L368.526 328.867L370.175 328.947L371.096 328.992L372.22 329.045L373.809 329.116H373.981L374.993 329.16C375.12 329.166 375.248 329.16 375.369 329.142C375.49 329.125 375.602 329.097 375.697 329.06C375.792 329.023 375.868 328.978 375.921 328.927C375.975 328.876 376.003 328.821 376.005 328.765C376.005 328.765 376.005 328.734 376.005 328.721C376.101 328.658 376.154 328.584 376.157 328.508C376.183 327.845 376.373 327.185 376.724 326.54C376.795 326.429 376.876 326.313 376.957 326.203L377.058 326.074C377.169 325.936 377.281 325.799 377.412 325.657C377.502 325.557 377.58 325.455 377.645 325.351L377.706 325.254C377.706 325.2 377.766 325.143 377.797 325.085C379.082 323.17 377.534 319.6 377.088 318.199C376.949 317.747 376.715 317.302 376.39 316.869C376.471 316.872 376.552 316.872 376.633 316.869C377.293 316.761 377.913 316.612 378.475 316.426C387.857 314.958 395.782 313.282 398.282 311.601C402.349 311.127 406.672 311.324 410.428 312.156C415.286 313.215 452.056 318.47 469.182 320.899C472.218 322.061 474.667 322.74 475.993 322.673C475.993 322.673 497.784 324.216 506.549 321.201C507.329 321.436 507.815 321.565 507.815 321.565C507.815 321.565 520.547 318.793 522.46 315.193C523.077 314.027 523.634 312.302 524.201 310.395C527.157 309.091 528.82 307.329 528.826 305.491C529.221 299.439 534.575 292.526 538.543 286.367C543.36 286.531 545.223 286.137 549.676 285.179L549.484 285.068L550.253 284.926ZM477.258 293.989L474.829 293.63C475.652 293.149 476.361 292.632 476.945 292.087L477.258 293.989ZM463.554 296.534L478.311 300.414L478.443 301.203C478.263 301.804 478.304 302.413 478.564 303.008C472.066 300.476 464.455 297.404 463.564 296.534H463.554ZM457.532 290.886C455.923 290.593 454.587 290.331 453.676 290.114L457.097 290.207C457.299 290.426 457.449 290.653 457.542 290.886H457.532ZM418.059 297.204C418.059 297.204 420.61 294.712 426.338 298.867C427.229 299.514 428.869 300.538 431.035 301.815L414.375 300.835C416.105 299.736 417.348 298.504 418.039 297.204H418.059Z" fill="url(#paint3_linear)"/>
<path d="M454.708 287.188C454.708 287.188 443.028 285.033 433.818 283.419C424.608 281.805 430.134 287.188 430.134 287.188C430.134 287.188 445.498 289.072 445.498 289.343C445.498 289.613 458.403 289.879 458.403 289.879L454.708 287.188Z" fill="#F7C4A7"/>
<path opacity="0.05" d="M454.708 287.188C454.708 287.188 443.028 285.033 433.818 283.419C424.608 281.805 430.134 287.188 430.134 287.188C430.134 287.188 445.498 289.072 445.498 289.343C445.498 289.613 458.403 289.879 458.403 289.879L454.708 287.188Z" fill="black"/>
<path d="M504.454 265.922C504.454 265.922 483.564 261.076 479.87 270.498C477.57 276.234 472.327 281.666 464.536 286.385C464.536 286.385 453.473 287.462 449.172 285.578C449.172 285.578 459.617 290.961 454.698 291.502C454.698 291.502 465.761 295 470.68 293.923C475.599 292.845 479.283 285.578 481.125 283.694C482.967 281.809 489.728 265.381 504.454 265.922Z" fill="#575988"/>
<path opacity="0.1" d="M504.454 265.922C504.454 265.922 483.564 261.076 479.87 270.498C477.57 276.234 472.327 281.666 464.536 286.385C464.536 286.385 453.473 287.462 449.172 285.578C449.172 285.578 459.617 290.961 454.698 291.502C454.698 291.502 465.761 295 470.68 293.923C475.599 292.845 479.283 285.578 481.125 283.694C482.967 281.809 489.728 265.381 504.454 265.922Z" fill="black"/>
<path d="M492.805 262.69C492.805 262.69 505.709 269.15 506.327 274.533C506.944 279.916 521.073 268.879 522.308 268.609C523.543 268.339 510.011 259.191 508.776 256.234C507.541 253.276 492.805 262.69 492.805 262.69Z" fill="#F7C4A7"/>
<path d="M501.711 265.452L493.574 268.68L497.41 275.477L507.855 271.172L506.63 266.866L501.711 265.452Z" fill="#F7C4A7"/>
<path d="M331.806 313.304H317.676L323.203 319.223L336.725 317.609L331.806 313.304Z" fill="#F7C4A7"/>
<path opacity="0.1" d="M320.935 312.448C320.935 312.448 306.32 316.913 293.8 315.521C281.28 314.129 277.9 314.634 276.442 316.448C275.096 318.097 311.371 326.828 317.15 328.207C317.241 328.233 317.346 328.249 317.455 328.254C317.564 328.258 317.673 328.25 317.774 328.231C317.874 328.213 317.963 328.183 318.03 328.145C318.098 328.108 318.143 328.063 318.162 328.016C318.557 327.284 319.508 325.715 320.52 325.595C321.846 325.44 327.909 320.487 327.605 318.532C327.302 316.576 320.935 312.448 320.935 312.448Z" fill="black"/>
<path d="M320.328 312.448C320.328 312.448 305.713 316.913 293.193 315.521C280.673 314.129 277.292 314.634 275.835 316.448C274.489 318.097 310.764 326.828 316.543 328.207C316.634 328.233 316.739 328.249 316.848 328.254C316.956 328.258 317.066 328.25 317.167 328.231C317.267 328.213 317.355 328.183 317.423 328.145C317.491 328.108 317.536 328.063 317.555 328.016C317.95 327.284 318.901 325.715 319.913 325.595C321.239 325.44 327.302 320.487 326.998 318.532C326.694 316.576 320.328 312.448 320.328 312.448Z" fill="#F3B5B7"/>
<path d="M441.186 301.727L400.013 299.306C400.013 299.306 333.03 313.304 325.045 313.574L326.887 319.782H339.174C344.093 319.782 392.017 315.206 398.778 310.63C402.69 310.174 406.848 310.365 410.458 311.167C416.602 312.497 475.599 320.86 475.599 320.86L441.186 301.727Z" fill="#575988"/>
<path opacity="0.1" d="M441.186 301.727L400.013 299.306C400.013 299.306 333.03 313.304 325.045 313.574L326.887 319.782H339.174C344.093 319.782 392.017 315.206 398.778 310.63C402.69 310.174 406.848 310.365 410.458 311.167C416.602 312.497 475.599 320.86 475.599 320.86L441.186 301.727Z" fill="black"/>
<path d="M368.06 310.072L361.299 313.841L368.06 315.454L377.898 312.227L368.06 310.072Z" fill="#F7C4A7"/>
<path d="M485.426 305.762C485.426 305.762 463.321 297.47 461.773 295.963C460.224 294.455 423.98 284.23 421.521 283.96C419.061 283.689 411.075 281.805 403.09 288.265C395.104 294.725 365.641 310.338 365.641 310.338C365.641 310.338 374.862 315.991 377.928 315.721C380.995 315.45 415.377 302.8 417.867 296.605C417.867 296.605 420.326 294.184 425.853 298.219C431.379 302.254 467.026 321.64 473.787 321.37C473.787 321.37 500.214 323.254 505.74 318.678C511.266 314.102 485.426 305.762 485.426 305.762Z" fill="#575988"/>
<path d="M479.222 262.299H387.21V292.677H479.222V262.299Z" fill="url(#paint4_linear)"/>
<path d="M475.457 263.536H390.964V291.435H475.457V263.536Z" fill="white"/>
<path opacity="0.2" d="M427.401 265.953H399.234V272.928H427.401V265.953Z" fill="#0AA8A7"/>
<path d="M467.198 265.953H434.132V267.563H467.198V265.953Z" fill="#E6E8EC"/>
<path d="M457.401 268.636H434.132V270.245H457.401V268.636Z" fill="#E6E8EC"/>
<path d="M467.198 271.318H434.132V272.928H467.198V271.318Z" fill="#E6E8EC"/>
<path d="M467.198 274.001H399.234V275.61H467.198V274.001Z" fill="#E6E8EC"/>
<path d="M467.198 276.683H399.234V278.293H467.198V276.683Z" fill="#E6E8EC"/>
<path d="M467.198 279.366H399.234V280.975H467.198V279.366Z" fill="#E6E8EC"/>
<path d="M461.692 282.049H399.234V283.658H461.692V282.049Z" fill="#E6E8EC"/>
<path d="M467.198 284.731H399.234V286.341H467.198V284.731Z" fill="#E6E8EC"/>
<path d="M467.198 287.414H399.234V289.023H467.198V287.414Z" fill="#E6E8EC"/>
<path d="M498.027 266.325C498.027 266.325 490.345 267.806 489.728 273.996C489.11 280.186 475.558 290.686 475.558 290.686L476.783 303.07C476.783 303.07 491.529 309.531 492.764 313.57C493.999 317.609 504.454 320.301 504.454 320.301C504.454 320.301 516.742 317.609 518.624 314.093C520.507 310.577 521.66 301.979 524.768 298.747C527.875 295.515 525.992 275.327 525.992 275.327L516.772 268.325L511.853 265.904L498.948 272.365C498.948 272.365 491.884 268.206 498.027 266.325Z" fill="#F3B5B7"/>
<path opacity="0.1" d="M479.9 299.031C479.9 299.031 478.058 289.338 483.584 287.188L494.647 273.442C494.647 273.442 498.645 266.849 498.027 266.308C497.41 265.767 483.584 271.558 483.584 271.558L474.364 285.826L476.823 300.902L479.9 299.031Z" fill="black"/>
<path d="M479.283 299.031C479.283 299.031 477.441 289.338 482.967 287.188L494.029 273.442C494.029 273.442 498.331 266.711 497.714 266.175C497.096 265.638 482.967 271.558 482.967 271.558L473.746 285.826L476.206 300.902L479.283 299.031Z" fill="#575988"/>
<path d="M483.584 294.725C483.584 294.725 452.836 290.42 451.014 289.343C449.192 288.265 429.506 281.268 422.745 286.11C415.984 290.952 447.937 292.318 447.937 292.318L480.507 300.933L483.584 294.725Z" fill="#F7C4A7"/>
<path opacity="0.1" d="M369.386 313.814L360.277 313.096C360.277 313.096 345.378 321.454 337.625 320.607C329.872 319.76 322.727 323.418 330.925 324.597C338.334 325.657 370.307 327.143 376.42 327.417C376.545 327.425 376.673 327.421 376.794 327.405C376.915 327.39 377.027 327.363 377.122 327.327C377.218 327.291 377.295 327.246 377.349 327.196C377.402 327.146 377.431 327.091 377.432 327.036C377.461 325.998 377.921 324.97 378.789 324.003C380.428 322.23 378.789 318.452 378.333 317.015C378.08 316.168 377.473 315.349 376.542 314.599L369.386 313.814Z" fill="black"/>
<path d="M369.244 314.076L360.135 313.357C360.135 313.357 345.257 321.72 337.453 320.868C329.65 320.017 322.555 323.68 330.753 324.859C338.162 325.919 370.135 327.404 376.248 327.679C376.373 327.687 376.5 327.683 376.622 327.667C376.743 327.651 376.855 327.624 376.95 327.588C377.046 327.552 377.123 327.508 377.177 327.458C377.23 327.408 377.259 327.353 377.26 327.298C377.289 326.259 377.749 325.232 378.617 324.265C380.256 322.491 378.617 318.714 378.161 317.277C377.908 316.43 377.301 315.611 376.37 314.86L369.244 314.076Z" fill="#F3B5B7"/>
<path opacity="0.1" d="M497.41 265.789C508.271 265.789 517.075 261.932 517.075 257.174C517.075 252.416 508.271 248.558 497.41 248.558C486.549 248.558 477.744 252.416 477.744 257.174C477.744 261.932 486.549 265.789 497.41 265.789Z" fill="black"/>
<path d="M495.568 265.789C506.429 265.789 515.233 261.932 515.233 257.174C515.233 252.416 506.429 248.558 495.568 248.558C484.707 248.558 475.902 252.416 475.902 257.174C475.902 261.932 484.707 265.789 495.568 265.789Z" fill="#F7C4A7"/>
<path d="M514.92 265.651C514.92 265.651 538.269 269.15 538.269 276.422C538.269 283.694 525.365 295.266 524.747 304.689C524.13 314.111 490.335 312.763 490.335 312.763C490.335 312.763 485.416 280.998 490.335 278.572C495.254 276.147 517.379 266.729 514.92 265.651Z" fill="#575988"/>
<path opacity="0.1" d="M510.618 280.727C510.618 280.727 502.015 297.417 481.732 294.473C481.732 294.473 471.287 301.204 478.696 304.165C478.696 304.165 496.519 306.05 508.189 300.933C519.859 295.816 528.442 293.923 530.284 287.715C532.126 281.508 533.32 272.91 527.247 273.717C521.175 274.524 510.618 280.727 510.618 280.727Z" fill="black"/>
<path d="M511.236 280.457C511.236 280.457 502.632 297.146 482.349 294.202C482.349 294.202 471.904 300.933 479.313 303.895C479.313 303.895 497.137 305.779 508.806 300.663C520.476 295.546 529.049 293.661 530.932 287.471C532.814 281.281 533.968 272.666 527.895 273.473C521.822 274.28 511.236 280.457 511.236 280.457Z" fill="#575988"/>
<path d="M379.143 323.4C379.143 323.427 379.143 323.453 379.082 323.476C378.643 323.935 378.304 324.412 378.07 324.899C378.212 324.686 378.384 324.456 378.586 324.256C378.846 323.981 379.032 323.694 379.143 323.4Z" fill="#DDDBE2"/>
<path d="M331.249 324.074C328.719 323.711 327.656 323.112 327.615 322.482C326.603 323.369 327.231 324.345 330.804 324.859C338.212 325.919 370.196 327.404 376.299 327.679C376.425 327.687 376.553 327.682 376.675 327.667C376.796 327.651 376.909 327.623 377.005 327.587C377.101 327.55 377.178 327.505 377.23 327.455C377.283 327.404 377.311 327.349 377.311 327.293C377.315 327.195 377.235 327.1 377.087 327.026C376.939 326.952 376.734 326.905 376.511 326.894C369.781 326.575 338.557 325.116 331.249 324.074Z" fill="#DDDBE2"/>
<path d="M276.675 315.973C276.832 315.775 277.032 315.583 277.272 315.401C276.608 315.695 276.112 316.054 275.825 316.448C274.479 318.097 310.753 326.823 316.533 328.207C316.624 328.232 316.729 328.247 316.837 328.251C316.945 328.255 317.054 328.247 317.153 328.228C317.253 328.209 317.341 328.18 317.409 328.143C317.477 328.106 317.524 328.063 317.545 328.016C317.579 327.954 317.565 327.889 317.507 327.83C317.449 327.772 317.348 327.723 317.221 327.692C310.804 326.158 275.339 317.605 276.675 315.973Z" fill="#DDDBE2"/>
<path d="M320.713 325.121C320.389 325.161 320.065 325.347 319.771 325.613H319.873C320.136 325.582 320.601 325.351 321.168 324.992C321.041 325.05 320.885 325.094 320.713 325.121Z" fill="#DDDBE2"/>
<path opacity="0.1" d="M492.835 264.756C491.104 266.427 490.74 268.303 489.465 270.077C488.223 271.793 486.092 273.361 483.239 274.658C480.386 275.955 476.888 276.945 473.018 277.552C479.404 278.67 486.934 277.304 491.874 275.043C496.813 272.781 499.697 269.771 502.471 266.844C509.636 268.955 508.766 273.806 511.165 277.583C512.199 279.227 514.026 280.754 516.523 282.061C519.02 283.368 522.128 284.425 525.638 285.161C529.136 285.849 532.938 286.188 536.771 286.155C540.604 286.121 544.372 285.715 547.804 284.966C541.235 281.454 531.883 276.639 532.996 271.966C533.897 268.179 527.693 265.288 528.128 261.492C528.735 256.101 524.079 253.374 515.223 249.915C510.072 247.893 518.179 245.038 511.539 245.876C508.928 246.204 506.175 244.989 503.614 245.384C498.554 246.182 492.997 245.88 487.774 246.417C460.619 249.201 495.345 262.313 492.835 264.756Z" fill="black"/>
<path d="M493.452 264.485C491.722 266.157 491.357 268.033 490.082 269.806C488.84 271.523 486.709 273.091 483.857 274.388C481.004 275.684 477.506 276.675 473.635 277.282C480.022 278.399 487.552 277.034 492.491 274.772C497.43 272.511 500.315 269.5 503.088 266.574C510.254 268.684 509.383 273.535 511.782 277.313C512.816 278.956 514.644 280.483 517.14 281.79C519.637 283.098 522.746 284.155 526.255 284.891C529.753 285.579 533.555 285.918 537.388 285.884C541.221 285.851 544.99 285.445 548.421 284.696C541.852 281.184 533.118 277.158 534.251 272.502C535.152 268.715 533.806 264.827 534.251 261.031C534.859 255.639 528.836 250.447 520.021 246.989C514.869 244.967 506.863 244.71 504.262 245.113C499.201 245.911 493.645 245.61 488.422 246.146C461.236 248.935 495.983 262.042 493.452 264.485Z" fill="#B96B6B"/>
<path d="M165.817 346.462C201.241 341.686 222.152 342.081 222.152 342.081L219.247 334.867C220.154 334.6 220.978 334.283 221.696 333.922C221.696 333.922 218.063 325.165 221.696 322.975C225.33 320.784 235.33 300.884 235.33 300.884V294.114C253.548 291.329 274.853 275.207 274.853 275.207L301.665 305.451C301.665 305.451 328.466 328.739 332.099 329.533C335.004 330.167 336.451 335.377 336.927 337.447L336.704 337.478C336.816 337.979 336.866 338.29 336.866 338.29L337.079 338.228V338.29C337.529 338.152 338.002 338.031 338.496 337.926C333.263 340.56 325.429 344.347 318.911 346.847C315.318 348.226 321.765 349.291 324.782 349.268C326.497 349.244 328.21 349.351 329.842 349.583C345.115 351.893 370.226 343.46 370.226 343.46L363.941 335.78C365.58 335.722 366.592 335.696 366.592 335.696C366.592 335.696 346.148 304.25 336.603 301.261C333.586 300.298 330.865 299.168 328.506 297.9C323.967 295.483 321.679 292.405 322.099 289.28L325.45 263.479C330.834 263.133 334.306 262.845 334.306 262.845C334.306 262.845 335.561 255.795 335.52 250.385C335.52 247.57 335.257 245.1 334.306 244.133C333.182 242.989 332.828 240.701 332.808 238.404C332.808 235.301 333.395 232.392 333.395 232.392C333.395 232.392 340.662 228.211 350.662 218.646C355.064 214.438 356.208 211.109 356.107 208.723C356.175 207.611 355.93 206.501 355.378 205.415C355.095 204.879 354.57 204.372 353.835 203.925C353.1 203.478 352.169 203.1 351.097 202.812C345.348 201.269 332.261 197.461 328.405 193.771C323.506 189.089 316.431 188.424 316.148 188.397L315.713 187.573C318.426 186.59 320.407 185.274 321.401 183.795C322.879 181.8 323.182 179.671 324.437 177.645C325.045 176.669 325.885 175.725 326.462 174.749C327.038 173.768 327.314 172.757 327.281 171.743C327.391 170.267 326.697 168.8 325.257 167.464C322.909 165.349 318.233 163.687 312.909 163.412C309.974 163.261 306.725 163.483 304.316 162.733C302.656 162.214 301.786 161.332 300.268 160.716C297.383 159.519 292.768 159.581 289.013 160.139C283.957 160.899 279.625 162.377 276.705 164.338C274.954 165.518 273.73 166.87 271.483 167.886C269.59 168.733 267.11 169.273 265.026 170.027C263.482 170.555 262.227 171.227 261.352 171.994C260.476 172.761 260.002 173.604 259.965 174.461C259.965 174.461 259.965 174.506 259.965 174.528C259.965 174.639 259.965 174.749 259.965 174.86C260.066 176.572 262.789 178.275 266.615 178.62C267.616 178.701 268.641 178.713 269.651 178.656C268.788 180.053 268.578 181.511 269.033 182.944C269.489 184.377 270.6 185.756 272.3 186.996C274 188.237 276.255 189.314 278.928 190.163C281.602 191.013 284.64 191.617 287.859 191.94C287.798 192.082 287.728 192.224 287.657 192.384H287.869C287.431 193.073 286.883 193.749 286.23 194.406H285.936L286.675 193.829L276.25 193.514C273.215 193.414 270.172 193.663 267.424 194.237C263.831 195 259.904 196.454 259.418 199.203C258.507 204.355 236.241 212.115 236.241 212.115C228.518 217.489 178.084 218.482 178.084 218.482C178.084 218.482 178.306 218.606 178.408 218.673L177.396 218.589L173.58 218.283C173.58 218.283 161.768 202.959 150.412 205.743C139.056 208.528 169.946 223.657 169.946 223.657L178.873 223.918L179.774 223.945C179.446 224.937 178.977 225.919 178.367 226.885C178.246 227.08 178.155 227.204 178.134 227.235C178.134 227.235 201.616 226.047 221.565 226.237H223.366L224.642 226.211C225.654 231.013 241.281 240.772 241.281 240.772L250.927 241.659L251.655 241.725C248.547 244.542 244.599 247.164 239.915 249.525L236.737 257.289L236.99 257.262L236.737 257.888C237.281 257.829 237.785 257.714 238.204 257.551C231.98 264.787 221.656 276.049 214.48 279.978C203.579 285.95 204.936 295.497 204.936 295.497C204.936 295.497 194.035 320.576 194.49 325.152C194.543 327.36 193.179 329.531 190.553 331.417C188.415 332.493 186.536 333.662 184.946 334.907C176.768 341.079 163.59 340.671 163.59 340.671C152.234 343.872 165.817 346.462 165.817 346.462ZM235.988 225.062L237.162 224.858L237.435 224.81L238.558 224.597L238.751 224.557L239.763 224.353L239.985 224.309L241.058 224.074L241.311 224.016L242.324 223.781H242.404L243.417 223.524L243.659 223.462L244.672 223.205L244.834 223.16L245.714 222.925L245.917 222.872L246.858 222.61L247.07 222.548L247.941 222.296L248.022 222.273L248.912 222.003L249.115 221.941L249.965 221.675L250.097 221.635L250.846 221.395L251.008 221.342L251.787 221.081L251.949 221.027L252.657 220.784H252.718L253.437 220.531L253.588 220.478L254.267 220.234L254.327 220.212L254.935 219.985L255.036 219.946L255.633 219.719L255.724 219.684L256.271 219.467L256.797 219.258L256.868 219.227L257.88 218.784L259.358 218.731C260.613 219.444 261.109 220.708 261.159 222.158C261.017 225.878 258.447 230.472 258.447 230.472C258.228 232.752 257.322 235.009 255.754 237.185C254.646 237.159 253.558 237.043 252.546 236.844C252.546 236.844 252.485 236.986 252.394 237.225L251.524 237.127L247.101 236.644C247.101 236.644 243.427 228.45 235.988 225.062Z" fill="url(#paint5_linear)"/>
<path d="M359.194 331.076L367.625 341.367C367.625 341.367 344.538 349.127 329.538 347.521C327.279 347.275 324.977 347.112 322.656 347.034C319.549 346.932 314.205 345.943 317.504 344.679C328.152 340.6 342.342 333.022 342.342 333.022L359.194 331.076Z" fill="#4F4D59"/>
<path d="M219.034 330.104L223.022 340.015C223.022 340.015 202.618 339.624 168.023 344.289C168.023 344.289 154.714 341.762 165.807 338.653C165.807 338.653 178.671 339.043 186.656 333.018C194.642 326.992 199.521 327.772 199.521 327.772L219.034 330.104Z" fill="#4F4D59"/>
<path d="M324.599 258.207L320.693 288.358C320.274 291.572 322.707 294.732 327.484 297.177C329.643 298.3 332.104 299.305 334.812 300.17C344.123 303.084 364.082 333.785 364.082 333.785C364.082 333.785 341.461 334.366 335.257 336.312C335.257 336.312 333.931 328.539 330.379 327.763C326.826 326.987 300.662 304.263 300.662 304.263L274.479 274.724C274.479 274.724 253.629 290.464 235.886 293.182V299.789C235.886 299.789 226.129 319.219 222.577 321.356C219.024 323.493 222.577 332.042 222.577 332.042C222.577 332.042 212.375 337.678 188.873 331.652C188.873 331.652 196.413 327.958 195.958 323.489C195.502 319.019 206.18 294.544 206.18 294.544C206.18 294.544 204.855 285.232 215.492 279.388C226.129 273.544 243.832 251.214 243.832 251.214L256.038 239.708L324.599 258.207Z" fill="#787C9C"/>
<g opacity="0.1">
<path opacity="0.1" d="M359.862 333.794C359.862 333.794 339.903 303.092 330.591 300.179C327.728 299.262 325.141 298.191 322.889 296.991C318.332 294.579 316.042 291.497 316.482 288.371L320.389 258.22L254.975 240.555L255.866 239.717L324.377 258.216L320.47 288.367C320.03 291.492 322.32 294.574 326.877 296.987C329.128 298.187 331.716 299.258 334.579 300.175C343.89 303.088 363.85 333.789 363.85 333.789C363.85 333.789 341.229 334.37 335.024 336.317C335.024 336.317 334.974 336.015 334.862 335.523C343.587 334.215 359.862 333.794 359.862 333.794Z" fill="black"/>
<path opacity="0.1" d="M218.377 332.055C218.377 332.055 214.824 323.507 218.377 321.369C221.929 319.232 231.686 299.802 231.686 299.802V293.196C249.429 290.473 270.278 274.737 270.278 274.737L271.827 276.488C265.815 280.665 249.773 291.036 235.684 293.196V299.802C235.684 299.802 225.927 319.232 222.374 321.369C218.822 323.507 222.374 332.055 222.374 332.055C222.374 332.055 217.425 334.782 206.494 334.414C214.642 334.108 218.377 332.055 218.377 332.055Z" fill="black"/>
</g>
<path d="M172.021 224.397L180.736 224.65L185.331 224.783V219.906L179.258 219.427L175.523 219.13C175.523 219.13 163.995 204.169 152.902 206.887C141.809 209.605 172.021 224.397 172.021 224.397Z" fill="#714B4F"/>
<path d="M311.735 184.371C311.735 184.371 317.504 194.086 319.276 200.112C321.047 206.138 278.031 201.278 278.031 201.278C278.031 201.278 294.438 192.534 285.116 187.87L311.735 184.371Z" fill="#714B4F"/>
<path d="M265.167 224.788L264.277 228.481L278.021 228.091L291.766 222.845L305.511 205.938L314.397 199.921L321.047 196.228L318.385 191.758C318.385 191.758 317.17 192.202 315.116 192.911C308.365 195.177 292.515 199.882 280.936 198.582C280.4 198.524 279.873 198.451 279.357 198.365L262.06 211.383L265.167 224.788Z" fill="#E6E6F0"/>
<path opacity="0.1" d="M314.842 190.61C314.842 190.61 321.927 191.191 326.816 195.855C330.571 199.443 343.233 203.141 348.89 204.661C349.969 204.95 350.905 205.331 351.642 205.781C352.379 206.231 352.902 206.742 353.182 207.282C354.326 209.499 354.761 213.623 348.546 219.564C338.789 228.876 331.694 232.973 331.694 232.973C331.694 232.973 329.923 242.284 332.585 245.02C335.247 247.756 332.585 262.703 332.585 262.703C332.585 262.703 286.027 266.587 270.491 262.703C254.955 258.819 257.182 243.818 257.182 243.818C257.182 243.818 242.546 257.431 237.253 257.821L240.289 250.243C240.289 250.243 257.586 242.08 258.507 231.589C258.507 231.589 263.831 222.069 259.398 219.542C259.398 219.542 184.44 222.265 180.007 219.932C180.007 219.932 229.237 218.961 236.777 213.725C236.777 213.725 258.507 206.147 259.398 201.096C259.528 200.149 260.207 199.232 261.37 198.431C262.534 197.631 264.143 196.973 266.048 196.521C269.065 195.769 272.527 195.431 275.987 195.55L286.007 195.851C286.007 195.851 268.72 209.233 269.641 211.007C270.562 212.78 268.75 226.938 268.75 226.938C268.75 226.938 288.709 208.089 297.576 205.952C306.442 203.815 316.614 195.044 316.614 195.044L314.842 190.61Z" fill="black"/>
<path opacity="0.1" d="M265.167 224.788L264.277 228.481L278.021 228.091L291.766 222.845L305.511 205.938L314.397 199.921L321.047 196.228L318.385 191.758C318.385 191.758 317.17 192.202 315.116 192.911L315.723 194.445C315.723 194.445 305.521 203.22 296.654 205.358C287.788 207.495 267.829 226.344 267.829 226.344C267.829 226.344 269.6 212.155 268.72 210.412C268.113 209.224 275.886 202.675 280.936 198.582C280.4 198.524 279.873 198.451 279.357 198.365L262.06 211.383L265.167 224.788Z" fill="black"/>
<path opacity="0.1" d="M180.736 224.654L185.331 224.788V219.91L179.258 219.431C181.393 220.673 181.323 222.828 180.736 224.654Z" fill="black"/>
<path d="M314.842 190.007C314.842 190.007 321.927 190.588 326.816 195.252C330.571 198.84 343.233 202.538 348.89 204.058C349.969 204.347 350.905 204.728 351.642 205.178C352.379 205.628 352.902 206.139 353.182 206.679C354.326 208.896 354.761 213.02 348.546 218.961C338.789 228.273 331.694 232.37 331.694 232.37C331.694 232.37 329.923 241.681 332.585 244.417C335.247 247.153 332.585 262.1 332.585 262.1C332.585 262.1 286.027 265.984 270.491 262.1C254.955 258.216 257.182 243.251 257.182 243.251C257.182 243.251 242.546 256.85 237.253 257.236L240.289 249.658C240.289 249.658 257.586 241.495 258.507 231.004C258.507 231.004 263.831 221.484 259.398 218.957C259.398 218.957 242.101 227.12 222.587 226.938C203.073 226.756 180.007 227.909 180.007 227.909C180.007 227.909 184.44 221.701 180.007 219.36C180.007 219.36 229.237 218.389 236.777 213.153C236.777 213.153 258.507 205.575 259.398 200.524C259.522 199.574 260.199 198.652 261.365 197.848C262.531 197.044 264.146 196.384 266.058 195.931C269.075 195.179 272.537 194.841 275.997 194.96L286.017 195.261C286.017 195.261 268.72 208.661 269.641 210.408C270.562 212.155 268.75 226.339 268.75 226.339C268.75 226.339 288.709 207.49 297.576 205.353C306.442 203.216 316.644 194.441 316.644 194.441L314.873 190.007" fill="#67647E"/>
<path opacity="0.1" d="M324.599 210.408C324.599 210.408 313.952 226.149 307.747 228.091C301.543 230.033 263.841 239.943 252.748 237.611C252.748 237.611 250.087 243.441 254.074 244.798C254.074 244.798 295.43 244.089 295.764 244.022C295.764 244.022 322.818 242.466 327.251 236.64C331.684 230.813 337.008 220.899 337.008 220.899L324.599 210.408Z" fill="black"/>
<path d="M267.829 228.188C268.684 228.188 269.378 227.754 269.378 227.217C269.378 226.681 268.684 226.246 267.829 226.246C266.974 226.246 266.281 226.681 266.281 227.217C266.281 227.754 266.974 228.188 267.829 228.188Z" fill="#BA7855"/>
<path d="M263.396 234.99C264.251 234.99 264.945 234.555 264.945 234.019C264.945 233.483 264.251 233.048 263.396 233.048C262.541 233.048 261.847 233.483 261.847 234.019C261.847 234.555 262.541 234.99 263.396 234.99Z" fill="#BA7855"/>
<g opacity="0.1">
<path opacity="0.1" d="M329.478 261.9C329.478 261.9 332.14 246.94 329.478 244.217C326.816 241.495 328.587 232.17 328.587 232.17C328.587 232.17 335.672 228.091 345.439 218.762C351.653 212.82 351.208 208.696 350.075 206.479C349.794 205.939 349.269 205.428 348.53 204.978C347.791 204.528 346.854 204.147 345.773 203.859C340.115 202.338 327.454 198.64 323.709 195.053C320.956 192.424 317.504 191.089 315.004 190.428L314.832 189.985C314.832 189.985 321.917 190.566 326.806 195.23C330.561 198.817 343.222 202.515 348.87 204.036C349.951 204.325 350.888 204.705 351.627 205.156C352.366 205.606 352.891 206.116 353.172 206.657C354.315 208.874 354.751 212.997 348.536 218.939C338.779 228.25 331.684 232.348 331.684 232.348C331.684 232.348 329.913 241.659 332.575 244.395C335.237 247.131 332.575 262.078 332.575 262.078C332.575 262.078 299.306 264.853 279.63 263.368C299.509 264.401 329.478 261.9 329.478 261.9Z" fill="black"/>
<path opacity="0.1" d="M269.641 210.408C270.248 211.605 269.641 218.646 269.145 222.956C266.999 224.876 265.653 226.144 265.653 226.144C265.653 226.144 267.424 211.955 266.544 210.213C265.704 208.55 281.28 196.357 282.829 195.137L286.058 195.235C286.058 195.235 268.72 208.661 269.641 210.408Z" fill="black"/>
<path opacity="0.1" d="M219.48 226.73C238.994 226.925 256.291 218.748 256.291 218.748C256.814 219.066 257.195 219.424 257.414 219.804C252.354 221.892 238.184 227.067 222.587 226.898C203.073 226.703 180.007 227.869 180.007 227.869C180.007 227.869 180.098 227.741 180.24 227.519C193.276 226.937 206.376 226.673 219.48 226.73Z" fill="black"/>
<path opacity="0.1" d="M254.074 243.051C254.074 243.051 253.892 244.266 253.993 246.089C249.378 250.079 240.977 256.961 237.222 257.236L237.88 255.639C244.338 252.088 254.074 243.051 254.074 243.051Z" fill="black"/>
</g>
<path d="M259.206 194.015H153.185V229.018H259.206V194.015Z" fill="url(#paint6_linear)"/>
<path d="M256.463 194.915H155.918V228.113H256.463V194.915Z" fill="white"/>
<path opacity="0.2" d="M199.268 197.789H165.756V206.089H199.268V197.789Z" fill="#0AA8A7"/>
<path d="M246.625 197.789H207.284V199.704H246.625V197.789Z" fill="#E6E8EC"/>
<path d="M234.975 200.981H207.284V202.897H234.975V200.981Z" fill="#E6E8EC"/>
<path d="M246.625 204.174H207.284V206.089H246.625V204.174Z" fill="#E6E8EC"/>
<path d="M246.635 207.366H165.756V209.282H246.635V207.366Z" fill="#E6E8EC"/>
<path d="M246.635 210.559H165.756V212.474H246.635V210.559Z" fill="#E6E8EC"/>
<path d="M246.635 213.747H165.756V215.662H246.635V213.747Z" fill="#E6E8EC"/>
<path d="M240.077 216.939H165.756V218.855H240.077V216.939Z" fill="#E6E8EC"/>
<path d="M246.635 220.132H165.756V222.047H246.635V220.132Z" fill="#E6E8EC"/>
<path d="M246.635 223.324H165.756V225.24H246.635V223.324Z" fill="#E6E8EC"/>
<path d="M241.655 241.109L251.078 241.996L258.507 242.665L254.52 237.788L251.746 237.482L247.425 237.012C247.425 237.012 241.22 223.422 228.801 224.397C216.383 225.373 241.655 241.109 241.655 241.109Z" fill="#714B4F"/>
<path opacity="0.1" d="M251.078 241.978L258.507 242.665L254.52 237.788L251.746 237.482C251.126 238.964 250.902 240.473 251.078 241.978Z" fill="black"/>
<path d="M324.599 210.022C324.599 210.022 313.952 225.763 307.747 227.705C301.543 229.647 263.841 239.557 252.748 237.225C252.748 237.225 250.087 243.056 254.074 244.413C254.074 244.413 295.43 243.703 295.764 243.637C295.764 243.637 322.818 242.08 327.251 236.254C331.684 230.428 337.008 220.513 337.008 220.513L324.599 210.022Z" fill="#67647E"/>
<path opacity="0.1" d="M311.29 184.762C311.29 184.762 312.191 186.282 313.395 188.495C310.934 190.531 307.012 192.155 302.234 193.117C297.455 194.079 292.087 194.324 286.958 193.816C288.021 191.821 287.788 189.825 284.671 188.242L311.29 184.762Z" fill="black"/>
<path d="M292.667 193.701C305.892 193.701 316.614 189.004 316.614 183.21C316.614 177.416 305.892 172.719 292.667 172.719C279.441 172.719 268.72 177.416 268.72 183.21C268.72 189.004 279.441 193.701 292.667 193.701Z" fill="#714B4F"/>
<path opacity="0.1" d="M271.868 180.319C270.129 180.53 268.308 180.578 266.523 180.461C262.789 180.124 260.127 178.461 260.036 176.789C260.073 175.952 260.536 175.128 261.39 174.379C262.244 173.63 263.469 172.973 264.975 172.457C266.999 171.717 269.428 171.189 271.28 170.364C273.477 169.384 274.671 168.063 276.341 166.91C279.194 164.995 283.427 163.553 288.365 162.813C292.039 162.268 296.533 162.206 299.357 163.376C300.804 163.975 301.654 164.839 303.274 165.345C305.622 166.077 308.8 165.859 311.664 166.006C314.261 166.18 316.718 166.633 318.821 167.323C320.923 168.012 322.605 168.918 323.719 169.961C325.894 172.072 326.309 174.451 324.893 176.683C324.336 177.636 323.526 178.563 322.929 179.512C321.684 181.489 321.391 183.564 319.954 185.515C318.516 187.466 315.551 189.373 311.067 189.949C311.422 187.762 310.437 185.573 308.213 183.609C307.845 183.181 307.122 182.829 306.189 182.624C305.389 182.534 304.55 182.534 303.75 182.624C298.134 182.989 292.404 182.481 287.555 181.188C285.855 180.744 283.203 179.188 281.381 179.033C279.084 178.851 274.297 180.079 271.868 180.319Z" fill="black"/>
<path d="M271.868 179.928C270.129 180.14 268.308 180.188 266.523 180.07C262.789 179.733 260.127 178.071 260.036 176.399C260.073 175.562 260.536 174.738 261.39 173.989C262.244 173.24 263.469 172.583 264.975 172.067C266.999 171.326 269.428 170.799 271.28 169.974C273.477 168.994 274.671 167.673 276.341 166.52C279.194 164.605 283.427 163.163 288.365 162.423C292.039 161.877 296.533 161.815 299.357 162.986C300.804 163.585 301.654 164.449 303.274 164.955C305.622 165.686 308.8 165.469 311.664 165.615C314.261 165.79 316.718 166.243 318.821 166.932C320.923 167.622 322.605 168.528 323.719 169.571C325.894 171.682 326.309 174.061 324.893 176.293C324.336 177.246 323.526 178.173 322.929 179.121C321.684 181.099 321.391 183.174 319.954 185.125C318.516 187.076 315.551 188.983 311.067 189.559C311.422 187.372 310.437 185.183 308.213 183.218C307.845 182.79 307.122 182.439 306.189 182.234C305.389 182.144 304.55 182.144 303.75 182.234C298.134 182.599 292.404 182.091 287.555 180.797C285.855 180.354 283.203 178.798 281.381 178.643C279.084 178.461 274.297 179.693 271.868 179.928Z" fill="#503F43"/>
<path d="M87.215 337.115C89.07 336.452 90.4218 335.558 91.0914 334.552C91.5975 333.532 90.6056 332.313 88.379 331.94C85.8891 331.523 83.2272 332.277 81.2131 333.044C79.199 333.811 76.8812 334.68 74.2395 334.516C75.5973 333.977 76.613 333.293 77.1877 332.531C77.7624 331.768 77.8765 330.954 77.5188 330.167C77.4046 329.84 77.0897 329.534 76.6079 329.28C75.2213 328.632 72.7213 328.912 71.0615 329.422C65.7984 331.045 64.3308 334.175 64.3004 336.995C63.7741 335.98 64.2195 334.92 64.1992 333.891C64.179 332.862 63.5312 331.674 61.5272 331.133C60.2845 330.841 58.8889 330.695 57.4787 330.712C55.1103 330.672 52.4788 330.779 50.8594 331.537C48.8351 332.477 49.3716 334.06 51.1225 335.084C52.8735 336.108 55.5253 336.769 57.9746 337.487C59.9377 337.998 61.6122 338.697 62.8733 339.531C63.0217 339.647 63.1437 339.769 63.2377 339.895H78.0451C81.3744 339.154 84.4591 338.219 87.215 337.115Z" fill="#0AA8A7"/>
<path d="M966.754 275.482C968.609 274.819 969.96 273.925 970.63 272.919C971.136 271.899 970.144 270.68 967.917 270.307C965.428 269.89 962.766 270.644 960.752 271.411C958.738 272.178 956.42 273.047 953.778 272.883C955.136 272.344 956.152 271.66 956.726 270.898C957.301 270.135 957.415 269.321 957.057 268.534C956.943 268.207 956.628 267.901 956.146 267.647C954.76 266.999 952.26 267.279 950.6 267.789C945.337 269.412 943.869 272.542 943.839 275.362C943.313 274.347 943.758 273.287 943.738 272.258C943.718 271.229 943.07 270.041 941.066 269.5C939.823 269.208 938.427 269.062 937.017 269.079C934.649 269.039 932.017 269.145 930.398 269.904C928.374 270.844 928.91 272.427 930.661 273.451C932.412 274.475 935.064 275.136 937.513 275.854C939.476 276.365 941.151 277.064 942.412 277.898C942.56 278.014 942.682 278.136 942.776 278.262H957.604C960.926 277.52 964.004 276.585 966.754 275.482Z" fill="#0AA8A7"/>
<path d="M1080.71 142.473C1078.82 139.782 1076.08 136.372 1073.92 135.569C1073.79 135.517 1073.64 135.474 1073.49 135.44H1073.22V132.115L1068.11 132.51C1067.3 131.309 1066.69 130.078 1066.28 128.829C1066.77 129.068 1067.4 129.231 1068.08 129.297C1068.77 129.364 1069.48 129.331 1070.12 129.202C1070.04 129.136 1069.96 129.065 1069.89 128.993L1070.12 128.945C1069.31 128.257 1068.89 127.48 1068.88 126.689C1068.92 125.967 1069.16 125.25 1069.59 124.558C1070.5 123.026 1072.05 121.597 1072.91 120.056C1073.46 119.065 1073.72 118.041 1073.68 117.015C1073.71 115.275 1072.89 113.557 1071.3 111.998C1070.9 111.548 1070.27 111.154 1069.47 110.853C1068.75 110.659 1068.01 110.484 1067.25 110.329C1065.98 109.914 1064.89 109.385 1064.03 108.77C1060.4 106.627 1055.54 105.054 1050.07 104.251C1048.64 103.992 1047.09 103.932 1045.6 104.077C1042.17 104.521 1040.92 106.586 1038.14 107.669C1035.68 108.624 1032.31 108.721 1029.23 109.041C1026.14 109.361 1023.04 109.996 1020.93 111.15C1019.48 111.955 1018.69 112.989 1018.71 114.058C1018.62 114.557 1018.81 115.059 1019.24 115.514C1019.67 115.97 1020.33 116.364 1021.16 116.66C1022.11 116.962 1023.19 117.158 1024.32 117.235C1025.44 117.312 1026.59 117.267 1027.67 117.104C1026.82 118.525 1026.59 120.016 1026.99 121.483C1027.38 122.95 1028.4 124.361 1029.97 125.628C1031.55 126.896 1033.65 127.992 1036.13 128.847C1038.62 129.703 1041.45 130.3 1044.44 130.601L1045.03 131.12C1046.87 132.781 1048.27 134.549 1049.19 136.381C1044.48 137.673 1039.35 138.885 1036.24 139.001C1036.12 139.589 1035.89 140.171 1035.57 140.741C1034.84 142.17 1033.45 143.5 1031.49 144.626C1027.27 146.926 1008.29 164.312 1008.29 164.312C1008.29 164.312 1007.7 165.005 1006.72 166.186C994.932 166.887 975.696 167.899 970.33 167.38L949.272 157.666C949.272 157.666 942.46 160.187 943.055 163.251L939.256 161.502C939.256 161.502 919.223 168.916 950.856 173.773L998.988 176.481C994.41 183.19 990.125 191 991.453 195.248H991.846C992.766 195.248 993.684 195.214 994.593 195.146L994.511 195.901L989.878 236.152C989.878 236.152 988.825 243.567 1003.06 246.888C1003.06 246.888 1020.46 271.684 1013.61 274.499C1013.61 274.499 1014.42 274.707 1015.8 274.996L1001.49 281.145C1001.49 281.145 990.94 282.424 985.144 282.166C984.126 282.098 983.091 282.215 982.239 282.493C981.386 282.772 980.774 283.193 980.521 283.676C980.521 283.729 980.521 283.782 980.466 283.836V283.902C980.466 283.955 980.466 284.009 980.466 284.066C980.466 284.124 980.466 284.106 980.466 284.129C980.466 284.151 980.466 284.222 980.466 284.271C980.466 284.319 980.466 284.311 980.466 284.328C980.466 284.346 980.466 284.439 980.53 284.493V284.555C980.56 284.614 980.6 284.673 980.649 284.732L980.695 284.786C980.74 284.843 980.795 284.901 980.859 284.959V284.999C980.924 285.056 980.997 285.11 981.07 285.167L981.134 285.216C981.219 285.275 981.314 285.335 981.418 285.394L981.5 285.438C981.61 285.5 981.729 285.558 981.848 285.616L981.903 285.638L982.297 285.802L982.379 285.833C982.526 285.891 982.691 285.944 982.855 285.998L982.965 286.033C983.139 286.086 983.322 286.14 983.515 286.189H983.597L984.192 286.331H984.275L984.97 286.464L985.117 286.49L985.877 286.61H986.005L986.838 286.717H986.902L987.818 286.806H988.001L988.99 286.877H989.182L990.299 286.93C992.469 287.01 995.39 287.041 998.768 287.032C998.768 287.032 998.768 287.072 998.768 287.094C998.768 287.116 998.768 287.188 998.768 287.236V287.294C998.768 287.347 998.768 287.405 998.832 287.458V287.521C998.863 287.58 998.902 287.639 998.951 287.698L998.997 287.751C999.043 287.809 999.098 287.867 999.162 287.925V287.964C999.226 288.022 999.299 288.075 999.372 288.133L999.436 288.182C999.522 288.241 999.617 288.3 999.72 288.36L999.803 288.404C999.913 288.466 1000.03 288.524 1000.15 288.582L1000.21 288.604L1000.6 288.768L1000.68 288.799C1000.83 288.857 1000.99 288.91 1001.16 288.963L1001.28 288.999C1001.45 289.052 1001.63 289.106 1001.83 289.154H1001.91L1002.5 289.296H1002.59L1003.28 289.43L1003.43 289.456L1004.19 289.576H1004.32L1005.15 289.683H1005.21L1006.13 289.771H1006.31L1007.3 289.843H1007.49L1008.61 289.896C1022.34 290.406 1066.07 288.875 1066.07 288.875V288.817V288.741C1066.5 287.751 1068.61 281.997 1061.14 277.744C1061.36 277.633 1061.58 277.513 1061.78 277.389C1061.78 277.389 1055.98 272.532 1059.14 270.996C1062.3 269.459 1043.33 242.874 1043.33 242.874C1043.33 242.874 1033.31 235.206 1039.11 226.513C1044.9 217.82 1038.58 208.364 1038.58 208.364C1038.58 208.364 1052.4 206.37 1052.69 198.117C1052.69 197.868 1052.69 197.61 1052.69 197.348C1052.99 197.369 1053.3 197.378 1053.6 197.375C1053.8 197.382 1053.99 197.382 1054.19 197.375C1054.19 197.375 1051.55 192.775 1054.72 189.45C1057.89 186.125 1064.74 189.193 1071.06 175.647C1075.64 165.844 1079.67 154.567 1081.55 149.079C1082.36 146.876 1082.08 144.611 1080.71 142.473V142.473ZM960.396 171.229L955.589 169.009C957.183 169.329 958.95 169.644 960.927 169.946L979.056 170.967C970.962 171.331 963.445 171.527 960.396 171.234V171.229Z" fill="url(#paint7_linear)"/>
<path d="M1016.03 169.615C1016.03 169.615 974.81 172.125 966.217 171.388L943.313 161.855C943.313 161.855 921.552 169.132 955.914 173.894L1020.04 177.153L1016.03 169.615Z" fill="#FDC2CC"/>
<path opacity="0.05" d="M1016.03 169.615C1016.03 169.615 974.81 172.125 966.217 171.388L943.313 161.855C943.313 161.855 921.552 169.132 955.914 173.894L1020.04 177.153L1016.03 169.615Z" fill="black"/>
<path d="M1030.92 271.456L1010.88 279.233C1010.88 279.233 999.435 280.488 993.129 280.235C986.824 279.982 983.97 284.501 998.858 285.002C1013.75 285.503 1061.27 284 1061.27 284C1061.27 284 1065.85 275.974 1052.11 271.456H1030.92Z" fill="#47465A"/>
<path opacity="0.05" d="M1030.92 271.456L1010.88 279.233C1010.88 279.233 999.435 280.488 993.129 280.235C986.824 279.982 983.97 284.501 998.858 285.002C1013.75 285.503 1061.27 284 1061.27 284C1061.27 284 1065.85 275.974 1052.11 271.456H1030.92Z" fill="black"/>
<path opacity="0.3" d="M1061.98 280.523C1061.95 281.437 1061.71 282.348 1061.27 283.241C1061.27 283.241 1013.7 284.744 998.858 284.243C991.702 284.004 988.656 282.833 988.109 281.712C987.462 282.997 990.053 284.7 998.858 284.997C1013.75 285.498 1061.27 283.995 1061.27 283.995C1061.82 282.855 1062.06 281.689 1061.98 280.523Z" fill="white"/>
<path d="M1054.39 129.23C1054.39 129.23 1066.99 137.007 1062.41 142.275C1057.82 147.542 1086.43 136.754 1086.43 136.754C1086.43 136.754 1077.27 129.731 1081.84 122.206L1054.39 129.23Z" fill="#FDC2CC"/>
<path d="M1051 274.462L1030.96 282.239C1030.96 282.239 1019.52 283.494 1013.21 283.241C1006.9 282.989 1004.05 287.507 1018.94 288.008C1033.83 288.509 1081.35 287.006 1081.35 287.006C1081.35 287.006 1085.93 278.98 1072.19 274.462H1051Z" fill="#47465A"/>
<path d="M1056.69 272.706C1053.71 274.32 1049.49 274.923 1045.09 275.034C1035.08 275.242 1024.06 272.706 1024.06 272.706C1031.5 269.948 1012.61 245.614 1012.61 245.614C997.158 242.355 998.301 235.079 998.301 235.079L1003.36 195.585L1004.63 185.666L1020.66 181.401L1033.3 185.648L1045.28 189.679C1046.06 190.96 1046.56 192.271 1046.78 193.594C1048.17 202.812 1031.54 204.981 1031.54 204.981C1031.54 204.981 1038.41 214.261 1032.12 222.788C1025.82 231.314 1036.7 238.839 1036.7 238.839C1036.7 238.839 1057.32 264.924 1053.91 266.432C1050.5 267.939 1056.69 272.706 1056.69 272.706Z" fill="#565171"/>
<path opacity="0.05" d="M1056.69 272.706C1053.71 274.32 1049.49 274.923 1045.09 275.034C1035.08 275.242 1024.06 272.706 1024.06 272.706C1031.5 269.948 1012.61 245.614 1012.61 245.614C997.158 242.355 998.301 235.079 998.301 235.079L1003.36 195.585L1004.63 185.666L1020.66 181.401L1033.3 185.648L1045.28 189.679C1046.06 190.96 1046.56 192.271 1046.78 193.594C1048.17 202.812 1031.54 204.981 1031.54 204.981C1031.54 204.981 1038.41 214.261 1032.12 222.788C1025.82 231.314 1036.7 238.839 1036.7 238.839C1036.7 238.839 1057.32 264.924 1053.91 266.432C1050.5 267.939 1056.69 272.706 1056.69 272.706Z" fill="black"/>
<path d="M1076.73 275.717C1066.99 280.984 1044.1 275.717 1044.1 275.717C1044.57 275.531 1044.92 275.296 1045.11 275.034C1049.31 270.032 1030.94 246.12 1030.94 246.12C1015.49 242.861 1013.74 235.083 1013.74 235.083L1009.69 194.889L1009.16 189.683L1033.25 185.653L1040.65 184.416L1065.27 192.694C1066.34 194.403 1066.87 196.168 1066.85 197.939C1066.54 206.04 1051.53 207.996 1051.53 207.996C1051.53 207.996 1058.4 217.276 1052.11 225.803C1045.81 234.33 1056.69 241.854 1056.69 241.854C1056.69 241.854 1077.31 267.939 1073.9 269.447C1070.49 270.955 1076.73 275.717 1076.73 275.717Z" fill="#565171"/>
<path opacity="0.1" d="M1066.85 197.935C1061.9 197.625 1051.88 195.013 1046.73 193.594C1044.77 193.053 1043.51 192.707 1043.51 192.707C1043.51 192.707 1038.36 186.438 1024.62 191.204C1020.15 192.794 1015.1 194.044 1009.69 194.902C1007.62 195.223 1005.48 195.458 1003.31 195.603L1004.58 185.684L1020.61 181.418L1033.25 185.666L1040.65 184.429L1065.27 192.707C1066.34 194.411 1066.87 196.169 1066.85 197.935Z" fill="black"/>
<path d="M1092.61 149.761C1090.7 155.126 1086.56 166.151 1081.87 175.741C1075.38 188.998 1068.36 185.988 1065.11 189.241C1061.86 192.493 1064.57 196.992 1064.57 196.992C1059.16 197.243 1041.33 191.742 1041.33 191.742C1041.33 191.742 1036.46 185.493 1023.49 190.244C1010.52 194.994 1000.25 194.742 1000.25 194.742C997.548 186.492 1017.54 164.494 1017.54 164.494C1017.54 164.494 1037 147.494 1041.32 145.245C1043.32 144.143 1044.75 142.843 1045.49 141.445C1045.82 140.887 1046.05 140.318 1046.18 139.743C1053.2 139.492 1070.5 133.999 1070.5 133.999L1084.01 133V136.248C1084.16 136.281 1084.31 136.322 1084.45 136.372C1086.67 137.158 1089.47 140.495 1091.41 143.124C1092.98 145.257 1093.4 147.537 1092.61 149.761V149.761Z" fill="#F68080"/>
<path opacity="0.1" d="M1086.43 139.517C1086.43 139.517 1071.54 134.249 1049.21 151.307C1026.88 168.364 1021.73 165.602 1021.73 165.602C1021.73 165.602 1026.32 173.14 1024.02 174.634C1024.02 174.634 1039.47 174.133 1045.2 174.634C1050.93 175.135 1086.43 155.581 1086.43 155.581C1086.43 155.581 1104.79 144.532 1086.43 139.517Z" fill="black"/>
<path opacity="0.1" d="M1085.89 138.51C1085.89 138.51 1071 133.243 1048.68 150.3C1026.35 167.358 1021.2 164.596 1021.2 164.596C1021.2 164.596 1038.95 173.122 1044.67 173.628C1050.39 174.133 1085.89 154.561 1085.89 154.561C1085.89 154.561 1104.21 143.53 1085.89 138.51Z" fill="black"/>
<path opacity="0.1" d="M1023.52 173.002C1023.76 171.145 1022.16 167.877 1021.24 166.183C1024.72 165.983 1026.91 165.85 1026.91 165.85L1030.96 173.388L1023.52 173.002Z" fill="black"/>
<path opacity="0.1" d="M1082.45 122.712L1054.97 129.735C1056.13 130.476 1057.19 131.243 1058.17 132.032C1059.75 132.174 1061.37 132.245 1062.99 132.245C1070.32 132.245 1073.75 128.871 1078.17 126.6C1077.85 124.778 1081.23 124.729 1082.45 122.712Z" fill="black"/>
<path d="M1062.42 131.739C1075.7 131.739 1086.47 127.023 1086.47 121.204C1086.47 115.386 1075.7 110.669 1062.42 110.669C1049.14 110.669 1038.37 115.386 1038.37 121.204C1038.37 127.023 1049.14 131.739 1062.42 131.739Z" fill="#FDC2CC"/>
<path d="M1025.25 133.212H831.584V197.15H1025.25V133.212Z" fill="url(#paint8_linear)"/>
<path d="M1020.91 134.644H835.926V195.718H1020.91V134.644Z" fill="white"/>
<path opacity="0.2" d="M915.682 139.929H854.023V155.195H915.682V139.929Z" fill="#0AA8A7"/>
<path d="M1002.82 139.929H930.428V143.454H1002.82V139.929Z" fill="#E6E8EC"/>
<path d="M981.369 145.804H930.428V149.329H981.369V145.804Z" fill="#E6E8EC"/>
<path d="M1002.82 151.675H930.428V155.2H1002.82V151.675Z" fill="#E6E8EC"/>
<path d="M1002.82 157.545H854.023V161.071H1002.82V157.545Z" fill="#E6E8EC"/>
<path d="M1002.82 163.421H854.023V166.946H1002.82V163.421Z" fill="#E6E8EC"/>
<path d="M1002.82 169.291H854.023V172.816H1002.82V169.291Z" fill="#E6E8EC"/>
<path d="M990.751 175.166H854.023V178.691H990.751V175.166Z" fill="#E6E8EC"/>
<path d="M1002.82 181.037H854.023V184.562H1002.82V181.037Z" fill="#E6E8EC"/>
<path d="M1002.82 186.908H854.023V190.433H1002.82V186.908Z" fill="#E6E8EC"/>
<path opacity="0.1" d="M1032 112.682C1034.42 111.592 1037.58 110.867 1041 110.611C1044.34 110.296 1048.01 110.199 1050.68 109.281C1053.72 108.221 1055.05 106.208 1058.78 105.76C1060.4 105.618 1062.08 105.676 1063.62 105.929C1069.58 106.715 1074.86 108.259 1078.81 110.363C1079.74 110.966 1080.92 111.485 1082.3 111.893C1083.12 112.045 1083.93 112.217 1084.71 112.407C1085.56 112.703 1086.24 113.089 1086.67 113.529C1089.36 115.904 1089.97 118.626 1088.41 121.186C1087.48 122.698 1085.8 124.1 1084.81 125.62C1083.82 127.141 1083.56 128.831 1085.38 130.174C1083.62 130.569 1081.4 130.072 1080.32 129.354C1079.25 128.636 1078.89 127.749 1078.3 126.92C1077.15 125.289 1075.01 123.827 1072.1 122.694C1070.29 121.993 1067.03 121.523 1065.81 122.428C1065.32 122.778 1065.35 123.222 1064.94 123.585C1064.12 124.295 1061.75 124.437 1060.18 124.029C1058.67 123.571 1057.61 122.881 1057.21 122.095C1054.85 118.601 1050.83 116.402 1042.3 117.896C1039.12 118.455 1035.38 118.832 1032.32 117.874C1028.33 116.61 1029.11 114.11 1032 112.682Z" fill="black"/>
<path d="M1032 112.429C1034.42 111.339 1037.58 110.614 1041 110.359C1044.34 110.044 1048.01 109.946 1050.68 109.028C1053.72 107.969 1055.05 105.956 1058.78 105.508C1060.4 105.365 1062.08 105.423 1063.62 105.676C1069.58 106.463 1074.86 108.006 1078.81 110.11C1079.74 110.713 1080.92 111.233 1082.3 111.64C1083.12 111.793 1083.93 111.964 1084.71 112.154C1085.56 112.451 1086.24 112.836 1086.67 113.276C1089.36 115.651 1089.97 118.373 1088.41 120.934C1087.48 122.446 1085.8 123.847 1084.81 125.368C1083.82 126.889 1083.56 128.578 1085.38 129.921C1083.62 130.316 1081.4 129.819 1080.32 129.101C1079.25 128.383 1078.89 127.496 1078.3 126.667C1077.15 125.036 1075.01 123.574 1072.1 122.441C1070.29 121.741 1067.03 121.271 1065.81 122.175C1065.32 122.526 1065.35 122.969 1064.94 123.332C1064.12 124.042 1061.75 124.184 1060.18 123.776C1058.67 123.319 1057.61 122.628 1057.21 121.843C1054.85 118.349 1050.83 116.149 1042.3 117.644C1039.12 118.202 1035.38 118.579 1032.32 117.621C1028.33 116.358 1029.11 113.861 1032 112.429Z" fill="#B96B6B"/>
<path opacity="0.05" d="M1089.22 136.382H1077.58C1077.58 136.382 1054.68 141.397 1054.11 141.148C1053.73 140.98 1050.18 141.268 1047.94 141.477C1048.29 140.917 1048.53 140.346 1048.66 139.769C1056.1 139.517 1074.43 134.005 1074.43 134.005L1088.75 133.003V136.262C1088.91 136.293 1089.07 136.333 1089.22 136.382Z" fill="black"/>
<path opacity="0.3" d="M1082.02 283.534C1081.99 284.448 1081.75 285.359 1081.31 286.252C1081.31 286.252 1033.74 287.755 1018.9 287.254C1011.74 287.015 1008.7 285.844 1008.15 284.722C1007.5 286.008 1010.09 287.711 1018.9 288.008C1033.79 288.509 1081.31 287.006 1081.31 287.006C1081.86 285.865 1082.1 284.7 1082.02 283.534Z" fill="white"/>
<g opacity="0.05">
<path opacity="0.05" d="M1016.75 190.167C1010.02 192.827 1004.06 193.94 1000.14 194.383C1000.14 194.57 1000.21 194.756 1000.27 194.933C1000.27 194.933 1009.76 195.186 1021.75 190.419C1023.61 189.62 1025.8 189.044 1028.17 188.734C1025.56 188.127 1021.82 188.167 1016.75 190.167Z" fill="black"/>
<path opacity="0.05" d="M1084.55 143.166C1082.78 140.505 1080.14 137.18 1078.11 136.391C1077.99 136.341 1077.85 136.299 1077.71 136.267C1077.71 136.267 1073.57 136.337 1073.71 136.391C1075.76 137.18 1077.76 140.275 1079.55 142.913C1081 145.052 1081.37 147.336 1080.64 149.564C1078.87 154.947 1075.04 166.01 1070.7 175.632C1064.71 188.934 1058.22 185.914 1055.22 189.178C1052.76 191.838 1053.99 195.359 1054.52 196.543C1056.66 196.986 1058.51 197.266 1059.71 197.203C1059.71 197.203 1057.21 192.69 1060.21 189.426C1063.22 186.163 1069.71 189.173 1075.7 175.88C1080.04 166.263 1083.85 155.195 1085.64 149.813C1086.37 147.586 1085.99 145.303 1084.55 143.166Z" fill="black"/>
</g>
<path d="M1030.92 173.379L1023.52 173.002L966.845 170.116C932.493 165.349 954.244 158.078 954.244 158.078L977.148 167.611C983.757 168.192 1009.67 166.839 1021.28 166.187C1024.76 165.988 1026.95 165.855 1026.95 165.855L1030.92 173.379Z" fill="#FDC2CC"/>
<path d="M1086.43 139.016C1086.43 139.016 1071.54 133.748 1049.21 150.806C1026.88 167.863 1021.73 165.101 1021.73 165.101C1021.73 165.101 1026.32 172.639 1024.02 174.133C1024.02 174.133 1039.47 173.632 1045.2 174.133C1050.93 174.634 1086.43 155.067 1086.43 155.067C1086.43 155.067 1104.79 144.031 1086.43 139.016Z" fill="#F68080"/>
<rect x="562" y="274" width="355" height="45" fill="#0AA8A7"/>
<path d="M583.349 304.881H594.235V309H578.222V284.117H583.349V304.881ZM605.377 309.342C602.666 309.342 600.456 308.51 598.747 306.847C597.049 305.183 596.2 302.967 596.2 300.199V299.72C596.2 297.863 596.559 296.205 597.277 294.747C597.995 293.277 599.009 292.149 600.319 291.363C601.64 290.566 603.144 290.167 604.831 290.167C607.36 290.167 609.348 290.965 610.795 292.56C612.253 294.155 612.982 296.416 612.982 299.344V301.361H601.208C601.367 302.569 601.846 303.537 602.643 304.266C603.452 304.995 604.472 305.36 605.702 305.36C607.605 305.36 609.092 304.671 610.163 303.292L612.589 306.009C611.849 307.057 610.846 307.878 609.582 308.47C608.317 309.051 606.916 309.342 605.377 309.342ZM604.813 294.166C603.834 294.166 603.036 294.496 602.421 295.157C601.817 295.818 601.43 296.764 601.259 297.994H608.129V297.601C608.106 296.507 607.81 295.664 607.24 295.072C606.671 294.468 605.862 294.166 604.813 294.166ZM626.518 309C626.29 308.556 626.125 308.003 626.022 307.342C624.826 308.675 623.271 309.342 621.356 309.342C619.545 309.342 618.041 308.818 616.845 307.77C615.66 306.721 615.067 305.4 615.067 303.805C615.067 301.845 615.791 300.341 617.238 299.293C618.696 298.245 620.798 297.715 623.544 297.704H625.817V296.644C625.817 295.79 625.595 295.106 625.15 294.593C624.717 294.081 624.028 293.824 623.083 293.824C622.251 293.824 621.596 294.024 621.117 294.422C620.65 294.821 620.417 295.368 620.417 296.063H615.478C615.478 294.992 615.808 294.001 616.469 293.089C617.13 292.178 618.064 291.466 619.271 290.953C620.479 290.429 621.835 290.167 623.339 290.167C625.618 290.167 627.423 290.742 628.756 291.893C630.101 293.032 630.773 294.639 630.773 296.712V304.728C630.784 306.482 631.029 307.809 631.508 308.709V309H626.518ZM622.433 305.565C623.162 305.565 623.834 305.405 624.45 305.086C625.065 304.756 625.521 304.317 625.817 303.771V300.592H623.971C621.499 300.592 620.183 301.446 620.023 303.155L620.006 303.446C620.006 304.061 620.223 304.568 620.656 304.967C621.089 305.366 621.681 305.565 622.433 305.565ZM644.958 295.14C644.285 295.049 643.693 295.003 643.18 295.003C641.312 295.003 640.087 295.636 639.506 296.9V309H634.567V290.509H639.232L639.369 292.713C640.36 291.016 641.733 290.167 643.488 290.167C644.035 290.167 644.547 290.241 645.026 290.389L644.958 295.14ZM651.896 290.509L652.05 292.645C653.371 290.993 655.143 290.167 657.365 290.167C659.324 290.167 660.783 290.742 661.74 291.893C662.697 293.044 663.187 294.764 663.209 297.054V309H658.271V297.174C658.271 296.126 658.043 295.368 657.587 294.901C657.131 294.422 656.374 294.183 655.314 294.183C653.924 294.183 652.882 294.776 652.187 295.96V309H647.248V290.509H651.896ZM672.182 309H667.226V290.509H672.182V309ZM666.935 285.724C666.935 284.983 667.18 284.374 667.67 283.895C668.171 283.417 668.849 283.177 669.704 283.177C670.547 283.177 671.219 283.417 671.72 283.895C672.222 284.374 672.472 284.983 672.472 285.724C672.472 286.476 672.216 287.091 671.703 287.569C671.202 288.048 670.535 288.287 669.704 288.287C668.872 288.287 668.2 288.048 667.687 287.569C667.186 287.091 666.935 286.476 666.935 285.724ZM680.812 290.509L680.966 292.645C682.287 290.993 684.059 290.167 686.281 290.167C688.24 290.167 689.699 290.742 690.656 291.893C691.613 293.044 692.103 294.764 692.125 297.054V309H687.187V297.174C687.187 296.126 686.959 295.368 686.503 294.901C686.047 294.422 685.29 294.183 684.23 294.183C682.84 294.183 681.798 294.776 681.103 295.96V309H676.164V290.509H680.812ZM695.167 299.618C695.167 296.781 695.84 294.496 697.184 292.765C698.54 291.033 700.363 290.167 702.653 290.167C704.681 290.167 706.259 290.862 707.387 292.252L707.592 290.509H712.069V308.385C712.069 310.003 711.699 311.41 710.958 312.606C710.229 313.802 709.198 314.714 707.865 315.34C706.532 315.967 704.971 316.28 703.183 316.28C701.827 316.28 700.505 316.007 699.218 315.46C697.93 314.924 696.956 314.229 696.295 313.375L698.483 310.367C699.713 311.746 701.206 312.435 702.96 312.435C704.271 312.435 705.29 312.082 706.02 311.375C706.749 310.681 707.113 309.689 707.113 308.402V307.411C705.974 308.698 704.476 309.342 702.619 309.342C700.397 309.342 698.597 308.476 697.218 306.744C695.851 305.001 695.167 302.694 695.167 299.823V299.618ZM700.106 299.977C700.106 301.651 700.443 302.967 701.115 303.924C701.787 304.87 702.71 305.343 703.883 305.343C705.387 305.343 706.464 304.779 707.113 303.651V295.875C706.452 294.747 705.387 294.183 703.917 294.183C702.733 294.183 701.798 294.667 701.115 295.636C700.443 296.604 700.106 298.051 700.106 299.977ZM729.809 309H724.853V290.509H729.809V309ZM724.562 285.724C724.562 284.983 724.807 284.374 725.297 283.895C725.798 283.417 726.476 283.177 727.331 283.177C728.174 283.177 728.846 283.417 729.347 283.895C729.848 284.374 730.099 284.983 730.099 285.724C730.099 286.476 729.843 287.091 729.33 287.569C728.829 288.048 728.162 288.287 727.331 288.287C726.499 288.287 725.827 288.048 725.314 287.569C724.813 287.091 724.562 286.476 724.562 285.724ZM743.908 303.89C743.908 303.286 743.606 302.813 743.002 302.472C742.41 302.118 741.452 301.805 740.131 301.532C735.733 300.609 733.534 298.74 733.534 295.926C733.534 294.286 734.212 292.918 735.568 291.825C736.935 290.72 738.718 290.167 740.917 290.167C743.264 290.167 745.138 290.72 746.54 291.825C747.952 292.93 748.659 294.365 748.659 296.131H743.72C743.72 295.425 743.492 294.844 743.036 294.388C742.58 293.921 741.868 293.688 740.9 293.688C740.068 293.688 739.424 293.875 738.969 294.251C738.513 294.627 738.285 295.106 738.285 295.687C738.285 296.234 738.542 296.678 739.054 297.02C739.578 297.35 740.456 297.641 741.686 297.892C742.917 298.131 743.953 298.404 744.796 298.712C747.405 299.669 748.71 301.327 748.71 303.685C748.71 305.371 747.986 306.738 746.54 307.787C745.093 308.823 743.224 309.342 740.934 309.342C739.385 309.342 738.006 309.068 736.798 308.521C735.602 307.963 734.662 307.206 733.979 306.249C733.295 305.28 732.953 304.238 732.953 303.121H737.636C737.681 303.998 738.006 304.671 738.61 305.138C739.214 305.605 740.023 305.838 741.037 305.838C741.982 305.838 742.694 305.662 743.173 305.309C743.663 304.944 743.908 304.471 743.908 303.89ZM766.535 285.963V290.509H769.696V294.132H766.535V303.36C766.535 304.044 766.666 304.534 766.928 304.83C767.19 305.126 767.691 305.274 768.432 305.274C768.979 305.274 769.463 305.235 769.884 305.155V308.897C768.916 309.194 767.919 309.342 766.894 309.342C763.43 309.342 761.664 307.593 761.596 304.095V294.132H758.896V290.509H761.596V285.963H766.535ZM777.267 292.525C778.577 290.953 780.224 290.167 782.206 290.167C786.216 290.167 788.25 292.497 788.307 297.157V309H783.368V297.293C783.368 296.234 783.14 295.453 782.685 294.952C782.229 294.439 781.471 294.183 780.412 294.183C778.965 294.183 777.917 294.741 777.267 295.858V309H772.328V282.75H777.267V292.525ZM800.543 309.342C797.832 309.342 795.622 308.51 793.913 306.847C792.215 305.183 791.366 302.967 791.366 300.199V299.72C791.366 297.863 791.725 296.205 792.443 294.747C793.161 293.277 794.175 292.149 795.485 291.363C796.806 290.566 798.31 290.167 799.997 290.167C802.526 290.167 804.514 290.965 805.961 292.56C807.419 294.155 808.148 296.416 808.148 299.344V301.361H796.374C796.533 302.569 797.012 303.537 797.809 304.266C798.618 304.995 799.638 305.36 800.868 305.36C802.771 305.36 804.258 304.671 805.329 303.292L807.755 306.009C807.015 307.057 806.012 307.878 804.748 308.47C803.483 309.051 802.082 309.342 800.543 309.342ZM799.979 294.166C799 294.166 798.202 294.496 797.587 295.157C796.983 295.818 796.596 296.764 796.425 297.994H803.295V297.601C803.272 296.507 802.976 295.664 802.406 295.072C801.837 294.468 801.028 294.166 799.979 294.166ZM827.802 299.02L825.136 301.891V309H820.009V284.117H825.136V295.396L827.392 292.303L833.732 284.117H840.038L831.203 295.174L840.294 309H834.193L827.802 299.02ZM849.967 309.342C847.256 309.342 845.045 308.51 843.336 306.847C841.639 305.183 840.79 302.967 840.79 300.199V299.72C840.79 297.863 841.149 296.205 841.867 294.747C842.584 293.277 843.598 292.149 844.909 291.363C846.23 290.566 847.734 290.167 849.42 290.167C851.95 290.167 853.938 290.965 855.385 292.56C856.843 294.155 857.572 296.416 857.572 299.344V301.361H845.797C845.957 302.569 846.435 303.537 847.233 304.266C848.042 304.995 849.062 305.36 850.292 305.36C852.195 305.36 853.681 304.671 854.752 303.292L857.179 306.009C856.439 307.057 855.436 307.878 854.171 308.47C852.907 309.051 851.505 309.342 849.967 309.342ZM849.403 294.166C848.424 294.166 847.626 294.496 847.011 295.157C846.407 295.818 846.02 296.764 845.849 297.994H852.719V297.601C852.696 296.507 852.4 295.664 851.83 295.072C851.26 294.468 850.451 294.166 849.403 294.166ZM867.057 302.01L870.475 290.509H875.773L868.339 311.871L867.929 312.845C866.824 315.261 865.001 316.468 862.46 316.468C861.742 316.468 861.013 316.36 860.272 316.144V312.401L861.024 312.418C861.959 312.418 862.654 312.276 863.109 311.991C863.576 311.706 863.941 311.233 864.203 310.572L864.784 309.051L858.307 290.509H863.622L867.057 302.01Z" fill="white"/>
<path d="M899 277L902.368 287.365H913.266L904.449 293.771L907.817 304.135L899 297.729L890.183 304.135L893.551 293.771L884.734 287.365H895.632L899 277Z" fill="#F5F955"/>
<defs>
<linearGradient id="paint0_linear" x1="638.642" y1="264.818" x2="638.642" y2="50.0424" gradientUnits="userSpaceOnUse">
<stop stop-color="#808080" stop-opacity="0.25"/>
<stop offset="0.54" stop-color="#808080" stop-opacity="0.12"/>
<stop offset="1" stop-color="#808080" stop-opacity="0.1"/>
</linearGradient>
<linearGradient id="paint1_linear" x1="120949" y1="147717" x2="120949" y2="60952.9" gradientUnits="userSpaceOnUse">
<stop stop-color="#808080" stop-opacity="0.25"/>
<stop offset="0.54" stop-color="#808080" stop-opacity="0.12"/>
<stop offset="1" stop-color="#808080" stop-opacity="0.1"/>
</linearGradient>
<linearGradient id="paint2_linear" x1="37175.7" y1="120994" x2="37175.7" y2="68012.7" gradientUnits="userSpaceOnUse">
<stop stop-color="#808080" stop-opacity="0.25"/>
<stop offset="0.54" stop-color="#808080" stop-opacity="0.12"/>
<stop offset="1" stop-color="#808080" stop-opacity="0.1"/>
</linearGradient>
<linearGradient id="paint3_linear" x1="129391" y1="68620.9" x2="129391" y2="52087.1" gradientUnits="userSpaceOnUse">
<stop stop-color="#808080" stop-opacity="0.25"/>
<stop offset="0.54" stop-color="#808080" stop-opacity="0.12"/>
<stop offset="1" stop-color="#808080" stop-opacity="0.1"/>
</linearGradient>
<linearGradient id="paint4_linear" x1="35588.4" y1="19272.9" x2="43953.3" y2="19272.9" gradientUnits="userSpaceOnUse">
<stop stop-color="#808080" stop-opacity="0.25"/>
<stop offset="0.54" stop-color="#808080" stop-opacity="0.12"/>
<stop offset="1" stop-color="#808080" stop-opacity="0.1"/>
</linearGradient>
<linearGradient id="paint5_linear" x1="-113571" y1="160803" x2="-113571" y2="79200" gradientUnits="userSpaceOnUse">
<stop stop-color="#808080" stop-opacity="0.25"/>
<stop offset="0.54" stop-color="#808080" stop-opacity="0.12"/>
<stop offset="1" stop-color="#808080" stop-opacity="0.1"/>
</linearGradient>
<linearGradient id="paint6_linear" x1="21751.6" y1="18272.7" x2="21751.6" y2="15509.6" gradientUnits="userSpaceOnUse">
<stop stop-color="#808080" stop-opacity="0.25"/>
<stop offset="0.54" stop-color="#808080" stop-opacity="0.12"/>
<stop offset="1" stop-color="#808080" stop-opacity="0.1"/>
</linearGradient>
<linearGradient id="paint7_linear" x1="159162" y1="131900" x2="159162" y2="53885.9" gradientUnits="userSpaceOnUse">
<stop stop-color="#808080" stop-opacity="0.25"/>
<stop offset="0.54" stop-color="#808080" stop-opacity="0.12"/>
<stop offset="1" stop-color="#808080" stop-opacity="0.1"/>
</linearGradient>
<linearGradient id="paint8_linear" x1="178486" y1="28562.3" x2="178486" y2="19342.3" gradientUnits="userSpaceOnUse">
<stop stop-color="#808080" stop-opacity="0.25"/>
<stop offset="0.54" stop-color="#808080" stop-opacity="0.12"/>
<stop offset="1" stop-color="#808080" stop-opacity="0.1"/>
</linearGradient>
</defs>
</svg>
